<svg width="358" height="355" viewBox="0 0 358 355" fill="none" xmlns="http://www.w3.org/2000/svg">
<g filter="url(#filter0_dd_86_719)">
<mask id="path-1-inside-1_86_719" fill="white">
<path d="M3 18C3 9.16344 10.1634 2 19 2H339C347.837 2 355 9.16344 355 18V335C355 343.837 347.837 351 339 351H19C10.1634 351 3 343.837 3 335V18Z"/>
</mask>
<path d="M3 18C3 9.16344 10.1634 2 19 2H339C347.837 2 355 9.16344 355 18V335C355 343.837 347.837 351 339 351H19C10.1634 351 3 343.837 3 335V18Z" fill="white" shape-rendering="crispEdges"/>
<path d="M19 2V3H339V2V1H19V2ZM355 18H354V335H355H356V18H355ZM339 351V350H19V351V352H339V351ZM3 335H4V18H3H2V335H3ZM19 351V350C10.7157 350 4 343.284 4 335H3H2C2 344.389 9.61117 352 19 352V351ZM355 335H354C354 343.284 347.284 350 339 350V351V352C348.389 352 356 344.389 356 335H355ZM339 2V3C347.284 3 354 9.71573 354 18H355H356C356 8.61116 348.389 1 339 1V2ZM19 2V1C9.61116 1 2 8.61116 2 18H3H4C4 9.71573 10.7157 3 19 3V2Z" fill="white" mask="url(#path-1-inside-1_86_719)"/>
<path d="M144.19 158.456H149.758V160.168H144.19V158.456ZM144.35 163.256H150.67V165H142.27V153.8H150.446V155.544H144.35V163.256ZM151.488 165L155.248 160.104L155.216 161.176L151.632 156.456H153.856L156.368 159.816H155.52L158.048 156.456H160.208L156.592 161.176L156.608 160.104L160.352 165H158.096L155.456 161.432L156.288 161.544L153.696 165H151.488ZM166.564 165.112C165.87 165.112 165.236 164.952 164.66 164.632C164.094 164.312 163.641 163.832 163.3 163.192C162.969 162.541 162.804 161.72 162.804 160.728C162.804 159.725 162.964 158.904 163.284 158.264C163.614 157.624 164.062 157.149 164.628 156.84C165.193 156.52 165.838 156.36 166.564 156.36C167.406 156.36 168.148 156.541 168.788 156.904C169.438 157.267 169.95 157.773 170.324 158.424C170.708 159.075 170.9 159.843 170.9 160.728C170.9 161.613 170.708 162.387 170.324 163.048C169.95 163.699 169.438 164.205 168.788 164.568C168.148 164.931 167.406 165.112 166.564 165.112ZM161.828 168.104V156.456H163.732V158.472L163.668 160.744L163.828 163.016V168.104H161.828ZM166.34 163.4C166.82 163.4 167.246 163.293 167.62 163.08C168.004 162.867 168.308 162.557 168.532 162.152C168.756 161.747 168.868 161.272 168.868 160.728C168.868 160.173 168.756 159.699 168.532 159.304C168.308 158.899 168.004 158.589 167.62 158.376C167.246 158.163 166.82 158.056 166.34 158.056C165.86 158.056 165.428 158.163 165.044 158.376C164.66 158.589 164.356 158.899 164.132 159.304C163.908 159.699 163.796 160.173 163.796 160.728C163.796 161.272 163.908 161.747 164.132 162.152C164.356 162.557 164.66 162.867 165.044 163.08C165.428 163.293 165.86 163.4 166.34 163.4ZM176.812 165.112C175.863 165.112 175.031 164.925 174.316 164.552C173.612 164.168 173.063 163.645 172.668 162.984C172.284 162.323 172.092 161.571 172.092 160.728C172.092 159.875 172.279 159.123 172.652 158.472C173.036 157.811 173.559 157.293 174.22 156.92C174.892 156.547 175.655 156.36 176.508 156.36C177.34 156.36 178.082 156.541 178.732 156.904C179.383 157.267 179.895 157.779 180.268 158.44C180.642 159.101 180.828 159.88 180.828 160.776C180.828 160.861 180.823 160.957 180.812 161.064C180.812 161.171 180.807 161.272 180.796 161.368H173.676V160.04H179.74L178.956 160.456C178.967 159.965 178.866 159.533 178.652 159.16C178.439 158.787 178.146 158.493 177.772 158.28C177.41 158.067 176.988 157.96 176.508 157.96C176.018 157.96 175.586 158.067 175.212 158.28C174.85 158.493 174.562 158.792 174.348 159.176C174.146 159.549 174.044 159.992 174.044 160.504V160.824C174.044 161.336 174.162 161.789 174.396 162.184C174.631 162.579 174.962 162.883 175.388 163.096C175.815 163.309 176.306 163.416 176.86 163.416C177.34 163.416 177.772 163.341 178.156 163.192C178.54 163.043 178.882 162.808 179.18 162.488L180.252 163.72C179.868 164.168 179.383 164.515 178.796 164.76C178.22 164.995 177.559 165.112 176.812 165.112ZM182.75 165V156.456H184.654V158.808L184.43 158.12C184.686 157.544 185.086 157.107 185.63 156.808C186.184 156.509 186.872 156.36 187.694 156.36V158.264C187.608 158.243 187.528 158.232 187.454 158.232C187.379 158.221 187.304 158.216 187.23 158.216C186.472 158.216 185.87 158.44 185.422 158.888C184.974 159.325 184.75 159.981 184.75 160.856V165H182.75ZM192.919 165.112C191.98 165.112 191.255 164.872 190.743 164.392C190.231 163.901 189.975 163.181 189.975 162.232V154.568H191.975V162.184C191.975 162.589 192.076 162.904 192.279 163.128C192.492 163.352 192.785 163.464 193.159 163.464C193.607 163.464 193.98 163.347 194.279 163.112L194.839 164.536C194.604 164.728 194.316 164.872 193.975 164.968C193.633 165.064 193.281 165.112 192.919 165.112ZM188.567 158.12V156.52H194.263V158.12H188.567ZM196.484 165V156.456H198.484V165H196.484ZM197.492 155.048C197.119 155.048 196.809 154.931 196.564 154.696C196.329 154.461 196.212 154.179 196.212 153.848C196.212 153.507 196.329 153.224 196.564 153C196.809 152.765 197.119 152.648 197.492 152.648C197.865 152.648 198.169 152.76 198.404 152.984C198.649 153.197 198.772 153.469 198.772 153.8C198.772 154.152 198.655 154.451 198.42 154.696C198.185 154.931 197.876 155.048 197.492 155.048ZM203.749 165.112C203.034 165.112 202.346 165.021 201.685 164.84C201.034 164.648 200.517 164.419 200.133 164.152L200.901 162.632C201.285 162.877 201.744 163.08 202.277 163.24C202.81 163.4 203.344 163.48 203.877 163.48C204.506 163.48 204.96 163.395 205.237 163.224C205.525 163.053 205.669 162.824 205.669 162.536C205.669 162.301 205.573 162.125 205.381 162.008C205.189 161.88 204.938 161.784 204.629 161.72C204.32 161.656 203.973 161.597 203.589 161.544C203.216 161.491 202.837 161.421 202.453 161.336C202.08 161.24 201.738 161.107 201.429 160.936C201.12 160.755 200.869 160.515 200.677 160.216C200.485 159.917 200.389 159.523 200.389 159.032C200.389 158.488 200.544 158.019 200.853 157.624C201.162 157.219 201.594 156.909 202.149 156.696C202.714 156.472 203.381 156.36 204.149 156.36C204.725 156.36 205.306 156.424 205.893 156.552C206.48 156.68 206.965 156.861 207.349 157.096L206.581 158.616C206.176 158.371 205.765 158.205 205.349 158.12C204.944 158.024 204.538 157.976 204.133 157.976C203.525 157.976 203.072 158.067 202.773 158.248C202.485 158.429 202.341 158.659 202.341 158.936C202.341 159.192 202.437 159.384 202.629 159.512C202.821 159.64 203.072 159.741 203.381 159.816C203.69 159.891 204.032 159.955 204.405 160.008C204.789 160.051 205.168 160.12 205.541 160.216C205.914 160.312 206.256 160.445 206.565 160.616C206.885 160.776 207.141 161.005 207.333 161.304C207.525 161.603 207.621 161.992 207.621 162.472C207.621 163.005 207.461 163.469 207.141 163.864C206.832 164.259 206.389 164.568 205.813 164.792C205.237 165.005 204.549 165.112 203.749 165.112ZM213.359 165.112C212.41 165.112 211.578 164.925 210.863 164.552C210.159 164.168 209.61 163.645 209.215 162.984C208.831 162.323 208.639 161.571 208.639 160.728C208.639 159.875 208.826 159.123 209.199 158.472C209.583 157.811 210.106 157.293 210.767 156.92C211.439 156.547 212.202 156.36 213.055 156.36C213.887 156.36 214.629 156.541 215.279 156.904C215.93 157.267 216.442 157.779 216.815 158.44C217.189 159.101 217.375 159.88 217.375 160.776C217.375 160.861 217.37 160.957 217.359 161.064C217.359 161.171 217.354 161.272 217.343 161.368H210.223V160.04H216.287L215.503 160.456C215.514 159.965 215.413 159.533 215.199 159.16C214.986 158.787 214.693 158.493 214.319 158.28C213.957 158.067 213.535 157.96 213.055 157.96C212.565 157.96 212.133 158.067 211.759 158.28C211.397 158.493 211.109 158.792 210.895 159.176C210.693 159.549 210.591 159.992 210.591 160.504V160.824C210.591 161.336 210.709 161.789 210.943 162.184C211.178 162.579 211.509 162.883 211.935 163.096C212.362 163.309 212.853 163.416 213.407 163.416C213.887 163.416 214.319 163.341 214.703 163.192C215.087 163.043 215.429 162.808 215.727 162.488L216.799 163.72C216.415 164.168 215.93 164.515 215.343 164.76C214.767 164.995 214.106 165.112 213.359 165.112Z" fill="#0F52BA"/>
<path d="M75.8496 195.023V212.797H73.4863V203.871H71.7676V211.938H69.4824V195.316H71.7676V201.879H73.4863V195.023H75.8496ZM67.6074 197.074V199.086H63.4863V206.664C65.2051 206.654 66.7285 206.566 68.4473 206.254L68.623 208.285C66.4551 208.695 64.5605 208.754 62.2168 208.773H60.9863V197.074H67.6074ZM88.3105 196.605V198.578H77.7637V196.605H81.8066V194.926H84.2871V196.605H88.3105ZM83.0371 199.145C85.6152 199.145 87.4121 200.473 87.4121 202.426C87.4121 204.379 85.6152 205.707 83.0371 205.707C80.459 205.707 78.623 204.379 78.623 202.426C78.623 200.473 80.459 199.145 83.0371 199.145ZM83.0371 201.02C81.8457 201.02 81.0449 201.508 81.0645 202.426C81.0449 203.324 81.8457 203.793 83.0371 203.793C84.2285 203.793 85.0488 203.324 85.0488 202.426C85.0488 201.508 84.2285 201.02 83.0371 201.02ZM91.8652 195.023V199.633H94.2676V201.664H91.8652V206.176H89.3652V195.023H91.8652ZM91.8652 206.918V212.797H89.3652V208.91H79.8926V206.918H91.8652ZM98.3105 196.098V198.5H101.807V196.098H104.268V197.641H107.549V195.023H110.029V205.648H107.549V203.266H104.268V204.613H95.8105V196.098H98.3105ZM98.3105 202.68H101.807V200.414H98.3105V202.68ZM103.955 205.941C107.744 205.961 110.068 207.211 110.088 209.398C110.068 211.547 107.744 212.797 103.955 212.797C100.166 212.797 97.8418 211.547 97.8418 209.398C97.8418 207.211 100.166 205.961 103.955 205.941ZM103.955 207.855C101.592 207.855 100.322 208.344 100.322 209.398C100.322 210.395 101.592 210.902 103.955 210.902C106.318 210.902 107.607 210.395 107.607 209.398C107.607 208.344 106.318 207.855 103.955 207.855ZM104.268 201.273H107.549V199.613H104.268V201.273ZM127.393 195.043V208.461H124.893V207.055H121.494V205.355H124.893V195.043H127.393ZM127.783 210.492V212.484H114.541V207.172H117.021V204.809C115.43 204.877 113.916 204.887 112.568 204.887L112.275 202.914C115.537 202.895 119.932 202.855 123.682 202.387L123.818 204.164C122.412 204.398 120.957 204.564 119.521 204.672V208.051H117.021V210.492H127.783ZM118.057 195.648C120.635 195.629 122.49 196.938 122.49 198.832C122.49 200.727 120.635 201.957 118.057 201.957C115.42 201.957 113.584 200.727 113.584 198.832C113.584 196.938 115.4 195.629 118.057 195.648ZM118.057 197.465C116.787 197.465 115.928 197.953 115.947 198.832C115.928 199.691 116.787 200.16 118.057 200.16C119.248 200.16 120.107 199.691 120.127 198.832C120.107 197.953 119.248 197.465 118.057 197.465ZM134.014 205.141V207.035H141.416V205.141H143.877V212.602H131.572V205.141H134.014ZM134.014 210.59H141.416V208.93H134.014V210.59ZM143.955 195.746V197.172C143.955 198.52 143.955 199.965 143.545 201.977H145.889V203.969H129.619V201.977H141.064C141.416 200.258 141.465 198.92 141.475 197.738H131.611V195.746H143.955ZM158.643 204.633V207.309C160.098 207.221 161.572 207.084 162.959 206.879L163.154 208.695C159.209 209.457 154.99 209.496 151.885 209.496L151.592 207.484C152.93 207.475 154.502 207.465 156.162 207.406V204.633H158.643ZM162.314 197.113V199.125H158.682C158.848 200.844 160.186 202.455 162.861 203.109L161.729 205.043C159.648 204.516 158.213 203.363 157.412 201.879C156.621 203.432 155.205 204.643 153.115 205.18L151.943 203.305C154.629 202.592 155.928 200.922 156.104 199.125H152.51V197.113H156.162V195.18H158.643V197.113H162.314ZM166.455 195.023V212.836H163.975V195.023H166.455ZM175.342 198.812C175.342 200.668 176.689 202.484 179.541 203.227L178.428 205.16C176.377 204.623 174.951 203.49 174.131 202.035C173.35 203.627 171.934 204.867 169.834 205.473L168.662 203.539C171.533 202.758 172.861 200.805 172.861 198.812V198.754H169.287V196.801H172.861V194.945H175.381V196.801H178.936V198.754H175.342V198.812ZM183.779 195.023V205.434H181.299V201.703H178.486V199.691H181.299V195.023H183.779ZM183.779 206.195V212.602H171.826V206.195H183.779ZM174.326 208.188V210.609H181.338V208.188H174.326ZM200.186 195.023V199.867H202.588V201.918H200.186V207.875H197.686V195.023H200.186ZM194.795 196.449V198.441H189.268V202.934C192.48 202.914 194.248 202.816 196.24 202.387L196.494 204.379C194.268 204.848 192.217 204.945 188.271 204.945H186.768V196.449H194.795ZM200.83 210.492V212.484H188.662V206.508H191.143V210.492H200.83ZM223.486 195.023V212.797H221.104V203.891H219.6V211.977H217.236V206.879L215.83 208.754C214.18 207.885 213.115 206.41 212.49 204.574C211.895 206.684 210.84 208.393 209.15 209.398L207.607 207.484C210.303 205.961 211.221 202.816 211.221 199.418V198.852H208.213V196.859H216.357V198.852H213.643V199.418C213.643 202.514 214.561 205.463 217.236 206.84V195.277H219.6V201.859H221.104V195.023H223.486ZM239.482 195.023V199.223H241.748V201.293H239.482V205.492H236.982V195.023H239.482ZM239.482 206.117V210.102H229.951V211.02H240.068V212.68H227.451V208.598H236.982V207.777H227.432V206.117H239.482ZM225.068 203.578C226.367 203.588 227.842 203.588 229.385 203.539V202.758C227.441 202.533 226.24 201.723 226.26 200.453C226.24 199.008 227.959 198.168 230.615 198.168C233.252 198.168 234.951 199.008 234.971 200.453C234.951 201.723 233.779 202.523 231.865 202.758V203.461C233.32 203.393 234.785 203.275 236.162 203.09L236.338 204.633C232.549 205.277 228.428 205.297 225.322 205.297L225.068 203.578ZM235.713 196.137V197.797H225.537V196.137H229.385V194.867H231.865V196.137H235.713ZM230.615 199.711C229.346 199.711 228.623 199.945 228.643 200.453C228.623 200.98 229.346 201.254 230.615 201.273C231.865 201.254 232.568 200.98 232.588 200.453C232.568 199.945 231.865 199.711 230.615 199.711ZM254.072 199.047C254.072 202.309 255.557 205.59 258.564 206.859L257.1 208.852C255.068 207.934 253.662 206.166 252.861 203.969C252.051 206.361 250.596 208.295 248.428 209.281L246.924 207.211C250.029 205.902 251.533 202.504 251.553 199.047V196.391H254.072V199.047ZM262.041 195.023V212.836H259.521V195.023H262.041ZM273.799 197.367C273.799 199.965 276.104 202.758 280.127 203.441L279.033 205.512C275.938 204.896 273.633 203.158 272.49 200.863C271.309 203.139 269.004 204.887 265.928 205.512L264.854 203.441C268.799 202.738 271.123 199.945 271.143 197.367V196.078H273.799V197.367ZM280.713 208.559V210.609H264.443V208.559H280.713ZM289.209 196.078V198.09H284.814V199.496H288.545V201.41H284.814V202.953C286.758 202.924 288.174 202.846 289.814 202.582L290.068 204.516C288.018 204.867 286.318 204.926 283.643 204.926H282.432V196.078H289.209ZM297.002 195.023V205.629H294.639V195.023H297.002ZM293.467 195.297V205.512H291.104V201.293H289.307V199.301H291.104V195.297H293.467ZM297.002 206.332V212.602H284.873V206.332H297.002ZM287.354 208.285V210.609H294.541V208.285H287.354Z" fill="#1A1A1A"/>
<path d="M75.3594 237.328V251.328H73.9375V244.141H72.2656V250.641H70.8594V237.594H72.2656V242.891H73.9375V237.328H75.3594ZM67.5156 241.031C67.5156 243.547 68.4688 245.828 70.5 246.875L69.625 248.016C68.25 247.273 67.3281 245.969 66.8281 244.344C66.3516 246.188 65.4219 247.656 64 248.5L63.0781 247.375C65.125 246.219 66.0781 243.812 66.0781 241.031V240.125H63.4531V238.922H69.9531V240.125H67.5156V241.031ZM88.1094 237.328V240.812H90.1094V242.078H88.1094V245.578H86.625V237.328H88.1094ZM88.1094 246.172V249.094H80.375V250.156H88.625V251.188H78.8906V248.141H86.6406V247.203H78.8594V246.172H88.1094ZM77 244.25C78.0859 244.25 79.3438 244.25 80.6562 244.203V243.422C79.0469 243.273 78.0469 242.633 78.0625 241.578C78.0469 240.438 79.3594 239.766 81.3906 239.766C83.4062 239.766 84.7188 240.438 84.7188 241.578C84.7188 242.625 83.7266 243.266 82.1406 243.422V244.156C83.3906 244.094 84.6562 243.992 85.8281 243.828L85.9531 244.797C82.9375 245.297 79.625 245.312 77.1562 245.312L77 244.25ZM85.4375 238.328V239.359H77.3594V238.328H80.6562V237.203H82.1406V238.328H85.4375ZM81.3906 240.734C80.1875 240.734 79.4688 241.047 79.4688 241.578C79.4688 242.141 80.1875 242.484 81.3906 242.484C82.5781 242.484 83.2969 242.141 83.2969 241.578C83.2969 241.047 82.5781 240.734 81.3906 240.734ZM95.4844 238.328C97.7031 238.312 99.2812 239.688 99.2969 241.656C99.2812 243.625 97.7031 245 95.4844 245C93.2812 245 91.6562 243.625 91.6719 241.656C91.6562 239.688 93.2812 238.312 95.4844 238.328ZM95.4844 239.609C94.125 239.609 93.125 240.422 93.1406 241.656C93.125 242.891 94.125 243.703 95.4844 243.703C96.8438 243.703 97.8438 242.891 97.8438 241.656C97.8438 240.422 96.8438 239.609 95.4844 239.609ZM102.5 237.328V251.359H101.016V237.328H102.5ZM91 247.109C93.5469 247.109 97.0781 247.078 100.141 246.641L100.25 247.719C97.0781 248.328 93.6875 248.344 91.1875 248.344L91 247.109ZM113.109 238.75V239.938H104.766V238.75H108.203V237.266H109.688V238.75H113.109ZM108.938 240.562C110.953 240.578 112.328 241.578 112.328 243.109C112.328 244.641 110.953 245.656 108.938 245.656C106.906 245.656 105.531 244.641 105.531 243.109C105.531 241.578 106.906 240.578 108.938 240.562ZM108.938 241.703C107.75 241.703 106.953 242.25 106.969 243.109C106.953 243.984 107.75 244.5 108.938 244.5C110.125 244.5 110.922 243.984 110.938 243.109C110.922 242.25 110.125 241.703 108.938 241.703ZM115.75 237.328V241.125H117.781V242.359H115.75V246.078H114.266V237.328H115.75ZM115.75 246.797V251.328H114.266V248H106.5V246.797H115.75ZM126.375 238.828V239.688C126.375 240.859 126.375 242.672 125.969 245.172L124.5 245.062C124.852 242.82 124.891 241.203 124.906 240.031H119.219V238.828H126.375ZM122.781 242.828V247.016C124.273 246.969 125.789 246.867 127.188 246.688L127.266 247.797C124.344 248.266 121.094 248.328 118.609 248.312L118.438 247.109C119.312 247.102 120.289 247.094 121.312 247.062V242.828H122.781ZM129.484 237.328V243.109H131.625V244.375H129.484V251.328H127.984V237.328H129.484ZM147.984 237.344V247.594H146.5V242.328H143.828V241.125H146.5V237.344H147.984ZM148.359 249.828V251.031H138.891V246.672H140.375V249.828H148.359ZM141.328 240.172C141.328 241.922 142.594 243.672 144.703 244.375L143.938 245.562C142.367 245.008 141.203 243.883 140.594 242.5C139.984 244.039 138.758 245.281 137.094 245.875L136.328 244.672C138.484 243.938 139.812 242.094 139.812 240.172V239.625H136.781V238.406H144.328V239.625H141.328V240.172ZM162.938 244.406V245.609H157.375V248.328H155.906V245.609H150.125V244.406H162.938ZM161.281 237.984V242.953H151.766V237.984H161.281ZM153.219 239.156V241.781H159.812V239.156H153.219ZM161.516 249.828V251.031H151.719V247H153.203V249.828H161.516ZM168.531 238.328C170.75 238.312 172.328 239.688 172.344 241.656C172.328 243.625 170.75 245 168.531 245C166.328 245 164.703 243.625 164.719 241.656C164.703 239.688 166.328 238.312 168.531 238.328ZM168.531 239.609C167.172 239.609 166.172 240.422 166.188 241.656C166.172 242.891 167.172 243.703 168.531 243.703C169.891 243.703 170.891 242.891 170.891 241.656C170.891 240.422 169.891 239.609 168.531 239.609ZM175.547 237.328V251.359H174.062V237.328H175.547ZM164.047 247.109C166.594 247.109 170.125 247.078 173.188 246.641L173.297 247.719C170.125 248.328 166.734 248.344 164.234 248.344L164.047 247.109ZM182 238.219C184.156 238.219 185.766 239.578 185.766 241.547C185.766 243.281 184.516 244.539 182.75 244.812V247.031C183.992 246.977 185.234 246.883 186.391 246.734L186.5 247.844C183.547 248.359 180.281 248.375 177.859 248.359L177.625 247.141C178.711 247.133 179.961 247.125 181.266 247.094V244.812C179.453 244.555 178.219 243.289 178.234 241.547C178.219 239.578 179.797 238.219 182 238.219ZM182 239.469C180.656 239.484 179.672 240.297 179.672 241.547C179.672 242.797 180.656 243.625 182 243.609C183.328 243.625 184.297 242.797 184.312 241.547C184.297 240.297 183.328 239.484 182 239.469ZM188.719 237.328V243.016H190.875V244.266H188.719V251.328H187.234V237.328H188.719ZM202.672 238.109C202.672 239.781 204.922 241.359 207.609 241.734L207.031 242.891C204.797 242.547 202.82 241.453 201.922 239.938C201.016 241.461 199.039 242.547 196.797 242.891L196.234 241.734C198.922 241.359 201.156 239.797 201.156 238.109V237.516H202.672V238.109ZM208.297 243.875V245.078H202.641V246.734H206.734V251.328H205.234V247.922H196.953V246.734H201.172V245.078H195.531V243.875H208.297ZM216.031 238.312V242.531H211.406V244.609C213.734 244.602 215.117 244.531 216.766 244.25L216.922 245.453C215.109 245.766 213.609 245.812 210.953 245.812H209.922V241.391H214.531V239.5H209.891V238.312H216.031ZM221.031 237.344V247.641H219.547V243.969H216.938V242.75H219.547V240.812H216.938V239.625H219.547V237.344H221.031ZM221.438 249.766V250.984H211.828V246.875H213.312V249.766H221.438ZM231.344 241.812V243.016H228.609V244.781C229.852 244.727 231.086 244.641 232.234 244.516L232.344 245.609C229.359 246.016 226.078 246.094 223.453 246.094L223.25 244.906C224.445 244.898 225.781 244.883 227.141 244.844V243.016H224.5V238.219H231.219V239.422H225.984V241.812H231.344ZM234.797 237.328V247.828H233.312V237.328H234.797ZM235.234 249.828V251.031H225.562V247.078H227.047V249.828H235.234ZM252.516 237.328V251.328H251.031V237.328H252.516ZM246.188 241.828C246.188 244.062 247.672 246.344 249.844 247.266L249.031 248.406C247.422 247.703 246.133 246.25 245.484 244.484C244.852 246.352 243.586 247.906 241.953 248.641L241.125 247.5C243.297 246.531 244.734 244.172 244.734 241.828V240.906H241.547V239.719H244.719V237.609H246.188V239.719H249.328V240.906H246.188V241.828ZM267.562 248.406V249.656H254.75V248.406H258.25V245.938H256.312V241.484H264.531V239.531H256.281V238.312H266V242.688H257.781V244.719H266.328V245.938H264.203V248.406H267.562ZM259.688 248.406H262.75V245.938H259.688V248.406ZM273.438 240.891C273.422 243.375 274.859 245.906 276.953 246.922L276.031 248.109C274.508 247.32 273.328 245.75 272.719 243.875C272.086 245.875 270.859 247.547 269.266 248.375L268.344 247.172C270.5 246.141 271.953 243.453 271.953 240.891V238.5H273.438V240.891ZM279.484 237.328V242.906H281.734V244.172H279.484V251.328H278V237.328H279.484ZM293.312 237.328V242.906H295.484V244.141H293.312V251.312H291.828V237.328H293.312ZM289.656 238.797C289.641 242.844 287.859 246.453 283.25 248.734L282.422 247.578C285.93 245.828 287.836 243.297 288.141 240.031H283.125V238.797H289.656ZM65.7812 263.328V266.953H67.8125V268.219H65.7812V271.766H64.2969V263.328H65.7812ZM65.7812 272.5V277.156H56.8438V272.5H65.7812ZM58.2969 273.672V275.953H64.3125V273.672H58.2969ZM63.1406 264.75V265.938H54.7969V264.75H58.2344V263.219H59.7188V264.75H63.1406ZM58.9688 266.547C60.9844 266.547 62.3594 267.547 62.3594 269.047C62.3594 270.562 60.9844 271.547 58.9688 271.562C56.9219 271.547 55.5625 270.562 55.5625 269.047C55.5625 267.547 56.9219 266.547 58.9688 266.547ZM58.9688 267.688C57.7812 267.672 56.9844 268.203 57 269.047C56.9844 269.922 57.7812 270.438 58.9688 270.438C60.1562 270.438 60.9531 269.922 60.9688 269.047C60.9531 268.203 60.1562 267.672 58.9688 267.688ZM72.0781 264.984C72.0625 268.125 71.6719 271.359 69.7188 274.109L68.5625 273.453C70.1953 271.266 70.6875 268.844 70.7969 266.203H68.8906V264.984H72.0781ZM75.1875 264.984C75.1875 266.164 75.1641 267.453 75.0156 268.75H76.6562V263.688H78.0625V276.641H76.6562V269.953H74.8438C74.5234 271.695 73.9375 273.422 72.8594 274.953L71.7031 274.281C73.5156 271.852 73.8438 268.906 73.9062 266.203H72.5V264.984H75.1875ZM80.7188 263.328V277.328H79.2969V263.328H80.7188ZM98.0156 263.328V270.531H96.5312V266.938H93.5781V265.734H96.5312V263.328H98.0156ZM98.0156 271.188V274.672H90.3438V275.969H98.5V277.156H88.8906V273.547H96.5469V272.359H88.8594V271.188H98.0156ZM91.2656 265C91.2656 266.781 92.5469 268.438 94.6562 269.109L93.875 270.266C92.3359 269.734 91.1719 268.68 90.5625 267.344C89.9453 268.844 88.7422 270.023 87.0938 270.594L86.2969 269.406C88.4844 268.703 89.7812 266.969 89.7969 265V263.781H91.2656V265ZM112.203 263.328V277.328H110.797V263.328H112.203ZM109.344 263.688V276.641H107.938V271.875H105.547V270.656H107.938V268.375H105.781C105.102 270.727 103.609 272.766 100.969 274.344L100.094 273.281C103.062 271.516 104.492 269.164 104.75 266.281H100.781V265.062H106.219C106.219 265.781 106.164 266.477 106.047 267.156H107.938V263.688H109.344ZM124.906 263.328V269H127.156V270.234H124.906V277.328H123.438V263.328H124.906ZM122.219 265.516V266.734H113.922V265.516H117.375V263.516H118.859V265.516H122.219ZM118.125 267.766C120.125 267.766 121.594 269.109 121.609 271.016C121.594 272.938 120.125 274.266 118.125 274.281C116.109 274.266 114.641 272.938 114.641 271.016C114.641 269.109 116.109 267.766 118.125 267.766ZM118.125 268.984C116.938 268.984 116.047 269.812 116.062 271.016C116.047 272.234 116.938 273.047 118.125 273.031C119.312 273.047 120.188 272.234 120.188 271.016C120.188 269.812 119.312 268.984 118.125 268.984ZM139.156 267.422V268.609H129.516V263.828H130.984V267.422H139.156ZM140.625 270.375V271.562H127.812V270.375H140.625ZM139.25 275.781V277H129.406V272.891H130.891V275.781H139.25ZM250.688 265.562C250.688 267.297 252.047 268.922 254.203 269.547L253.453 270.703C251.82 270.211 250.586 269.141 249.953 267.766C249.32 269.234 248.07 270.398 246.391 270.953L245.641 269.781C247.812 269.109 249.172 267.406 249.188 265.562V265.406H246.047V264.203H253.766V265.406H250.688V265.562ZM257.109 263.328V270.906H255.625V263.328H257.109ZM249.406 271.562V273.125H255.641V271.562H257.109V277.156H247.953V271.562H249.406ZM249.406 275.953H255.641V274.297H249.406V275.953ZM272.094 269.812V271.016H266.438V272.359C269.008 272.5 270.531 273.367 270.531 274.828C270.531 276.422 268.719 277.312 265.703 277.297C262.656 277.312 260.844 276.422 260.844 274.828C260.844 273.367 262.367 272.5 264.969 272.359V271.016H259.328V269.812H272.094ZM265.703 273.484C263.562 273.484 262.344 273.969 262.344 274.828C262.344 275.672 263.562 276.172 265.703 276.156C267.812 276.172 269.047 275.672 269.047 274.828C269.047 273.969 267.812 273.484 265.703 273.484ZM270.953 263.969V265.156H266.703C266.914 266.508 268.883 267.656 271.438 267.906L270.906 269.078C268.484 268.797 266.477 267.773 265.719 266.281C264.938 267.773 262.938 268.797 260.516 269.078L260 267.906C262.516 267.656 264.492 266.508 264.703 265.156H260.5V263.969H270.953ZM288.656 263.328V277.328H287.172V263.328H288.656ZM282.328 267.828C282.328 270.062 283.812 272.344 285.984 273.266L285.172 274.406C283.562 273.703 282.273 272.25 281.625 270.484C280.992 272.352 279.727 273.906 278.094 274.641L277.266 273.5C279.438 272.531 280.875 270.172 280.875 267.828V266.906H277.688V265.719H280.859V263.609H282.328V265.719H285.469V266.906H282.328V267.828ZM303.703 274.406V275.656H290.891V274.406H294.391V271.938H292.453V267.484H300.672V265.531H292.422V264.312H302.141V268.688H293.922V270.719H302.469V271.938H300.344V274.406H303.703ZM295.828 274.406H298.891V271.938H295.828V274.406ZM119.359 300.328V301.578H106.547V300.328H119.359ZM118.188 290.672V291.891H116.047V296.562H118.141V297.75H107.672V296.562H109.766V291.891H107.641V290.672H118.188ZM111.234 296.562H114.594V291.891H111.234V296.562ZM133.188 300.406V301.656H120.375V300.406H126.016V297.953H121.938V293.5H130.156V291.531H121.906V290.312H131.625V294.688H123.406V296.734H131.953V297.953H127.484V300.406H133.188ZM145.297 290.75V292.25C145.297 294.062 145.297 296.031 144.781 299.016L143.266 298.875C143.828 296.078 143.828 294.016 143.828 292.25V291.969H135.578V290.75H145.297ZM146.969 300.109V301.344H134.203V300.109H146.969ZM159.969 289.344V297.656H158.562V294.016H156.844V297.5H155.453V289.594H156.844V292.797H158.562V289.344H159.969ZM159.969 298.281V303.156H150.609V298.281H159.969ZM152.094 299.469V301.953H158.516V299.469H152.094ZM153.938 290.219V294.156H150.094V295.906C151.828 295.891 153.148 295.812 154.688 295.516L154.844 296.703C153.078 297.031 151.625 297.078 149.578 297.078H148.656V293.016H152.516V291.406H148.625V290.219H153.938ZM168.234 289.562C171.391 289.562 173.234 290.406 173.234 291.969C173.234 293.531 171.391 294.391 168.234 294.391C165.078 294.391 163.234 293.531 163.234 291.969C163.234 290.406 165.078 289.562 168.234 289.562ZM168.234 290.656C166 290.656 164.766 291.141 164.781 291.969C164.766 292.828 166 293.281 168.234 293.281C170.469 293.281 171.703 292.828 171.703 291.969C171.703 291.141 170.469 290.656 168.234 290.656ZM174.625 295.25V296.438H161.859V295.25H174.625ZM173.016 297.516V300.797H164.859V302.047H173.406V303.188H163.406V299.719H171.547V298.625H163.391V297.516H173.016ZM191.609 289.328V303.328H190.188V289.328H191.609ZM188.766 289.625V302.625H187.359V295.5H185.188V294.281H187.359V289.625H188.766ZM183.812 293.234C183.812 295.625 184.781 298.016 186.75 299.156L185.859 300.25C184.523 299.453 183.602 298.039 183.125 296.344C182.617 298.172 181.664 299.727 180.297 300.578L179.391 299.469C181.375 298.266 182.391 295.719 182.391 293.234V292.109H179.812V290.906H186.219V292.109H183.812V293.234ZM199.734 298.125C202.766 298.125 204.672 299.078 204.688 300.719C204.672 302.344 202.766 303.312 199.734 303.297C196.734 303.312 194.812 302.344 194.812 300.719C194.812 299.078 196.734 298.125 199.734 298.125ZM199.734 299.25C197.609 299.25 196.281 299.797 196.297 300.719C196.281 301.625 197.609 302.156 199.734 302.156C201.875 302.156 203.203 301.625 203.219 300.719C203.203 299.797 201.875 299.25 199.734 299.25ZM204.578 290.016V291.188C204.578 292.312 204.578 293.469 204.188 294.906L202.734 294.75C203.109 293.32 203.109 292.289 203.109 291.203H194.922V290.016H204.578ZM206.172 295.766V296.969H193.438V295.766H198.547V293.141H200V295.766H206.172ZM218.25 289.328V292.844H220.281V294.094H218.25V297.484H216.766V289.328H218.25ZM210.766 298.062V299.422H216.766V298.062H218.25V303.156H209.297V298.062H210.766ZM210.766 301.969H216.766V300.578H210.766V301.969ZM215.609 290.703V291.891H207.266V290.703H210.703V289.203H212.188V290.703H215.609ZM211.438 292.469C213.453 292.469 214.828 293.422 214.828 294.922C214.828 296.406 213.453 297.391 211.438 297.375C209.391 297.391 208.031 296.406 208.031 294.922C208.031 293.422 209.391 292.469 211.438 292.469ZM211.438 293.578C210.25 293.562 209.453 294.109 209.469 294.922C209.453 295.75 210.25 296.281 211.438 296.281C212.625 296.281 213.422 295.75 213.438 294.922C213.422 294.109 212.625 293.562 211.438 293.578ZM232.703 289.328V303.328H231.219V289.328H232.703ZM223.406 290.688V298.484C225.445 298.469 227.594 298.305 229.844 297.844L230.047 299.094C227.562 299.594 225.312 299.766 223.109 299.766H221.938V290.688H223.406ZM245.812 289.328V294.75H248.062V295.969H245.812V303.359H244.328V289.328H245.812ZM242.047 290.672V291.875H236.984V298.641C239.336 298.633 241.102 298.531 243.094 298.172L243.281 299.422C241.094 299.812 239.234 299.891 236.625 299.875H235.5V290.672H242.047ZM250.328 302.109C249.719 302.109 249.203 301.609 249.219 301C249.203 300.391 249.719 299.891 250.328 299.891C250.922 299.891 251.438 300.391 251.438 301C251.438 301.609 250.922 302.109 250.328 302.109Z" fill="#555555"/>
<path d="M150.812 264.688V276H148.453V266.922H148.391L145.797 268.547V266.469L148.594 264.688H150.812ZM154.812 274.625C154.078 274.625 153.484 274.031 153.5 273.312C153.484 272.594 154.078 272.016 154.812 272.016C155.5 272.016 156.109 272.594 156.109 273.312C156.109 274.031 155.5 274.625 154.812 274.625ZM154.812 268.672C154.078 268.672 153.484 268.078 153.5 267.359C153.484 266.641 154.078 266.062 154.812 266.062C155.5 266.062 156.109 266.641 156.109 267.359C156.109 268.078 155.5 268.672 154.812 268.672ZM162.828 264.688V276H160.469V266.922H160.406L157.812 268.547V266.469L160.609 264.688H162.828ZM180.047 263.219V267.891H181.859V269.531H180.047V274.312H178.047V263.219H180.047ZM180.531 275.594V277.188H170.516V273.578H172.516V275.594H180.531ZM168.516 271.391C169.539 271.391 170.727 271.383 171.969 271.344V270.516C170.422 270.305 169.453 269.531 169.469 268.422C169.453 267.016 170.844 266.188 172.953 266.203C175.047 266.188 176.422 267.016 176.438 268.422C176.422 269.523 175.477 270.297 173.953 270.516V271.25C175.125 271.18 176.297 271.07 177.391 270.906L177.531 272.281C174.531 272.859 171.172 272.891 168.719 272.922L168.516 271.391ZM177.031 264.375V265.797H168.891V264.375H171.969V263.172H173.953V264.375H177.031ZM172.953 267.531C171.938 267.531 171.359 267.812 171.375 268.422C171.359 268.953 171.938 269.25 172.953 269.25C173.953 269.25 174.516 268.953 174.531 268.422C174.516 267.812 173.953 267.531 172.953 267.531ZM187.75 267.094C187.734 269.266 188.891 271.766 191.234 272.844L190.125 274.406C188.539 273.68 187.406 272.227 186.781 270.516C186.141 272.398 184.977 273.992 183.328 274.766L182.172 273.188C184.547 272.078 185.734 269.438 185.75 267.094V266.219H182.734V264.594H190.609V266.219H187.75V267.094ZM193.719 263.219V268.641H195.812V270.312H193.719V277.438H191.719V263.219H193.719ZM207.266 264.141V270.375H200.438V264.141H207.266ZM202.406 265.719V268.797H205.297V265.719H202.406ZM211.297 263.219V266.312H213.219V267.938H211.297V271.188H209.297V263.219H211.297ZM211.469 271.859V273.438H207.828C208.164 274.5 209.57 275.555 212.094 275.891L211.391 277.406C209.109 277.102 207.5 276.188 206.688 274.969C205.867 276.188 204.266 277.086 202 277.375L201.281 275.859C203.844 275.547 205.219 274.531 205.547 273.438H201.891V271.859H211.469ZM226.812 270.047V271.625H221.297V272.719H225.266V277.281H215.344V272.719H219.328V271.625H213.844V270.047H226.812ZM221.297 263.219V264.438H225.562V266H221.469C221.711 266.984 223.164 267.867 226.234 268.047L225.656 269.516C223.023 269.336 221.203 268.617 220.312 267.5C219.414 268.617 217.594 269.336 214.969 269.516L214.391 268.047C217.484 267.867 218.906 266.984 219.172 266H215.094V264.438H219.328V263.219H221.297ZM217.312 274.297V275.688H223.312V274.297H217.312ZM235.609 264.531V266.109H227.703V264.531H230.766V263.094H232.75V264.531H235.609ZM231.734 266.578C233.688 266.594 235.094 267.672 235.109 269.25C235.094 270.844 233.688 271.906 231.734 271.891C229.766 271.906 228.391 270.844 228.406 269.25C228.391 267.672 229.766 266.594 231.734 266.578ZM231.734 268.062C230.828 268.062 230.25 268.484 230.266 269.25C230.25 270.016 230.828 270.422 231.734 270.422C232.625 270.422 233.25 270.016 233.25 269.25C233.25 268.484 232.625 268.062 231.734 268.062ZM239.656 263.219V272.281H237.672V270.781H235.734V269.188H237.672V267.938H235.766V266.344H237.672V263.219H239.656ZM234.828 272.453C237.844 272.453 239.734 273.375 239.734 274.953C239.734 276.5 237.844 277.438 234.828 277.438C231.797 277.438 229.922 276.5 229.922 274.953C229.922 273.375 231.797 272.453 234.828 272.453ZM234.828 273.953C233.016 273.969 232.016 274.281 232.016 274.953C232.016 275.594 233.016 275.938 234.828 275.938C236.609 275.938 237.594 275.594 237.594 274.953C237.594 274.281 236.609 273.969 234.828 273.953Z" fill="#1A1A1A"/>
<g filter="url(#filter1_dd_86_719)">
<path d="M139 83C139 60.9086 156.909 43 179 43C201.091 43 219 60.9086 219 83C219 105.091 201.091 123 179 123C156.909 123 139 105.091 139 83Z" fill="white" shape-rendering="crispEdges"/>
<path d="M177.333 66.3333V69.6666" stroke="#0F52BA" stroke-width="3.33333" stroke-linecap="round" stroke-linejoin="round"/>
<path d="M167.333 66.3333V69.6666" stroke="#0F52BA" stroke-width="3.33333" stroke-linecap="round" stroke-linejoin="round"/>
<path d="M167.333 68H165.667C164.783 68 163.935 68.3512 163.31 68.9763C162.685 69.6014 162.333 70.4493 162.333 71.3333V78C162.333 80.6522 163.387 83.1957 165.262 85.0711C167.138 86.9464 169.681 88 172.333 88C174.985 88 177.529 86.9464 179.404 85.0711C181.28 83.1957 182.333 80.6522 182.333 78V71.3333C182.333 70.4493 181.982 69.6014 181.357 68.9763C180.732 68.3512 179.884 68 179 68H177.333" stroke="#0F52BA" stroke-width="3.33333" stroke-linecap="round" stroke-linejoin="round"/>
<path d="M172.333 88C172.333 90.6522 173.387 93.1957 175.262 95.0711C177.138 96.9464 179.681 98 182.333 98C184.985 98 187.529 96.9464 189.404 95.0711C191.28 93.1957 192.333 90.6522 192.333 88V83" stroke="#0F52BA" stroke-width="3.33333" stroke-linecap="round" stroke-linejoin="round"/>
<path d="M192.333 82.9999C194.174 82.9999 195.667 81.5075 195.667 79.6666C195.667 77.8256 194.174 76.3333 192.333 76.3333C190.492 76.3333 189 77.8256 189 79.6666C189 81.5075 190.492 82.9999 192.333 82.9999Z" stroke="#0F52BA" stroke-width="3.33333" stroke-linecap="round" stroke-linejoin="round"/>
</g>
</g>
<defs>
<filter id="filter0_dd_86_719" x="0" y="0" width="358" height="355" filterUnits="userSpaceOnUse" color-interpolation-filters="sRGB">
<feFlood flood-opacity="0" result="BackgroundImageFix"/>
<feColorMatrix in="SourceAlpha" type="matrix" values="0 0 0 0 0 0 0 0 0 0 0 0 0 0 0 0 0 0 127 0" result="hardAlpha"/>
<feMorphology radius="1" operator="erode" in="SourceAlpha" result="effect1_dropShadow_86_719"/>
<feOffset dy="1"/>
<feGaussianBlur stdDeviation="1"/>
<feComposite in2="hardAlpha" operator="out"/>
<feColorMatrix type="matrix" values="0 0 0 0 0 0 0 0 0 0 0 0 0 0 0 0 0 0 0.1 0"/>
<feBlend mode="normal" in2="BackgroundImageFix" result="effect1_dropShadow_86_719"/>
<feColorMatrix in="SourceAlpha" type="matrix" values="0 0 0 0 0 0 0 0 0 0 0 0 0 0 0 0 0 0 127 0" result="hardAlpha"/>
<feOffset dy="1"/>
<feGaussianBlur stdDeviation="1.5"/>
<feComposite in2="hardAlpha" operator="out"/>
<feColorMatrix type="matrix" values="0 0 0 0 0 0 0 0 0 0 0 0 0 0 0 0 0 0 0.1 0"/>
<feBlend mode="normal" in2="effect1_dropShadow_86_719" result="effect2_dropShadow_86_719"/>
<feBlend mode="normal" in="SourceGraphic" in2="effect2_dropShadow_86_719" result="shape"/>
</filter>
<filter id="filter1_dd_86_719" x="134" y="42" width="90" height="90" filterUnits="userSpaceOnUse" color-interpolation-filters="sRGB">
<feFlood flood-opacity="0" result="BackgroundImageFix"/>
<feColorMatrix in="SourceAlpha" type="matrix" values="0 0 0 0 0 0 0 0 0 0 0 0 0 0 0 0 0 0 127 0" result="hardAlpha"/>
<feMorphology radius="2" operator="erode" in="SourceAlpha" result="effect1_dropShadow_86_719"/>
<feOffset dy="2"/>
<feGaussianBlur stdDeviation="2"/>
<feComposite in2="hardAlpha" operator="out"/>
<feColorMatrix type="matrix" values="0 0 0 0 0 0 0 0 0 0 0 0 0 0 0 0 0 0 0.1 0"/>
<feBlend mode="normal" in2="BackgroundImageFix" result="effect1_dropShadow_86_719"/>
<feColorMatrix in="SourceAlpha" type="matrix" values="0 0 0 0 0 0 0 0 0 0 0 0 0 0 0 0 0 0 127 0" result="hardAlpha"/>
<feMorphology radius="1" operator="erode" in="SourceAlpha" result="effect2_dropShadow_86_719"/>
<feOffset dy="4"/>
<feGaussianBlur stdDeviation="3"/>
<feComposite in2="hardAlpha" operator="out"/>
<feColorMatrix type="matrix" values="0 0 0 0 0 0 0 0 0 0 0 0 0 0 0 0 0 0 0.1 0"/>
<feBlend mode="normal" in2="effect1_dropShadow_86_719" result="effect2_dropShadow_86_719"/>
<feBlend mode="normal" in="SourceGraphic" in2="effect2_dropShadow_86_719" result="shape"/>
</filter>
</defs>
</svg>
