<svg width="358" height="355" viewBox="0 0 358 355" fill="none" xmlns="http://www.w3.org/2000/svg">
<g filter="url(#filter0_dd_86_719)">
<mask id="path-1-inside-1_86_719" fill="white">
<path d="M3 18C3 9.16344 10.1634 2 19 2H339C347.837 2 355 9.16344 355 18V335C355 343.837 347.837 351 339 351H19C10.1634 351 3 343.837 3 335V18Z"/>
</mask>
<path d="M3 18C3 9.16344 10.1634 2 19 2H339C347.837 2 355 9.16344 355 18V335C355 343.837 347.837 351 339 351H19C10.1634 351 3 343.837 3 335V18Z" fill="white" shape-rendering="crispEdges"/>
<path d="M19 2V3H339V2V1H19V2ZM355 18H354V335H355H356V18H355ZM339 351V350H19V351V352H339V351ZM3 335H4V18H3H2V335H3ZM19 351V350C10.7157 350 4 343.284 4 335H3H2C2 344.389 9.61117 352 19 352V351ZM355 335H354C354 343.284 347.284 350 339 350V351V352C348.389 352 356 344.389 356 335H355ZM339 2V3C347.284 3 354 9.71573 354 18H355H356C356 8.61116 348.389 1 339 1V2ZM19 2V1C9.61116 1 2 8.61116 2 18H3H4C4 9.71573 10.7157 3 19 3V2Z" fill="white" mask="url(#path-1-inside-1_86_719)"/>
<path d="M144.19 158.456H149.758V160.168H144.19V158.456ZM144.35 163.256H150.67V165H142.27V153.8H150.446V155.544H144.35V163.256ZM151.488 165L155.248 160.104L155.216 161.176L151.632 156.456H153.856L156.368 159.816H155.52L158.048 156.456H160.208L156.592 161.176L156.608 160.104L160.352 165H158.096L155.456 161.432L156.288 161.544L153.696 165H151.488ZM166.564 165.112C165.87 165.112 165.236 164.952 164.66 164.632C164.094 164.312 163.641 163.832 163.3 163.192C162.969 162.541 162.804 161.72 162.804 160.728C162.804 159.725 162.964 158.904 163.284 158.264C163.614 157.624 164.062 157.149 164.628 156.84C165.193 156.52 165.838 156.36 166.564 156.36C167.406 156.36 168.148 156.541 168.788 156.904C169.438 157.267 169.95 157.773 170.324 158.424C170.708 159.075 170.9 159.843 170.9 160.728C170.9 161.613 170.708 162.387 170.324 163.048C169.95 163.699 169.438 164.205 168.788 164.568C168.148 164.931 167.406 165.112 166.564 165.112ZM161.828 168.104V156.456H163.732V158.472L163.668 160.744L163.828 163.016V168.104H161.828ZM166.34 163.4C166.82 163.4 167.246 163.293 167.62 163.08C168.004 162.867 168.308 162.557 168.532 162.152C168.756 161.747 168.868 161.272 168.868 160.728C168.868 160.173 168.756 159.699 168.532 159.304C168.308 158.899 168.004 158.589 167.62 158.376C167.246 158.163 166.82 158.056 166.34 158.056C165.86 158.056 165.428 158.163 165.044 158.376C164.66 158.589 164.356 158.899 164.132 159.304C163.908 159.699 163.796 160.173 163.796 160.728C163.796 161.272 163.908 161.747 164.132 162.152C164.356 162.557 164.66 162.867 165.044 163.08C165.428 163.293 165.86 163.4 166.34 163.4ZM176.812 165.112C175.863 165.112 175.031 164.925 174.316 164.552C173.612 164.168 173.063 163.645 172.668 162.984C172.284 162.323 172.092 161.571 172.092 160.728C172.092 159.875 172.279 159.123 172.652 158.472C173.036 157.811 173.559 157.293 174.22 156.92C174.892 156.547 175.655 156.36 176.508 156.36C177.34 156.36 178.082 156.541 178.732 156.904C179.383 157.267 179.895 157.779 180.268 158.44C180.642 159.101 180.828 159.88 180.828 160.776C180.828 160.861 180.823 160.957 180.812 161.064C180.812 161.171 180.807 161.272 180.796 161.368H173.676V160.04H179.74L178.956 160.456C178.967 159.965 178.866 159.533 178.652 159.16C178.439 158.787 178.146 158.493 177.772 158.28C177.41 158.067 176.988 157.96 176.508 157.96C176.018 157.96 175.586 158.067 175.212 158.28C174.85 158.493 174.562 158.792 174.348 159.176C174.146 159.549 174.044 159.992 174.044 160.504V160.824C174.044 161.336 174.162 161.789 174.396 162.184C174.631 162.579 174.962 162.883 175.388 163.096C175.815 163.309 176.306 163.416 176.86 163.416C177.34 163.416 177.772 163.341 178.156 163.192C178.54 163.043 178.882 162.808 179.18 162.488L180.252 163.72C179.868 164.168 179.383 164.515 178.796 164.76C178.22 164.995 177.559 165.112 176.812 165.112ZM182.75 165V156.456H184.654V158.808L184.43 158.12C184.686 157.544 185.086 157.107 185.63 156.808C186.184 156.509 186.872 156.36 187.694 156.36V158.264C187.608 158.243 187.528 158.232 187.454 158.232C187.379 158.221 187.304 158.216 187.23 158.216C186.472 158.216 185.87 158.44 185.422 158.888C184.974 159.325 184.75 159.981 184.75 160.856V165H182.75ZM192.919 165.112C191.98 165.112 191.255 164.872 190.743 164.392C190.231 163.901 189.975 163.181 189.975 162.232V154.568H191.975V162.184C191.975 162.589 192.076 162.904 192.279 163.128C192.492 163.352 192.785 163.464 193.159 163.464C193.607 163.464 193.98 163.347 194.279 163.112L194.839 164.536C194.604 164.728 194.316 164.872 193.975 164.968C193.633 165.064 193.281 165.112 192.919 165.112ZM188.567 158.12V156.52H194.263V158.12H188.567ZM196.484 165V156.456H198.484V165H196.484ZM197.492 155.048C197.119 155.048 196.809 154.931 196.564 154.696C196.329 154.461 196.212 154.179 196.212 153.848C196.212 153.507 196.329 153.224 196.564 153C196.809 152.765 197.119 152.648 197.492 152.648C197.865 152.648 198.169 152.76 198.404 152.984C198.649 153.197 198.772 153.469 198.772 153.8C198.772 154.152 198.655 154.451 198.42 154.696C198.185 154.931 197.876 155.048 197.492 155.048ZM203.749 165.112C203.034 165.112 202.346 165.021 201.685 164.84C201.034 164.648 200.517 164.419 200.133 164.152L200.901 162.632C201.285 162.877 201.744 163.08 202.277 163.24C202.81 163.4 203.344 163.48 203.877 163.48C204.506 163.48 204.96 163.395 205.237 163.224C205.525 163.053 205.669 162.824 205.669 162.536C205.669 162.301 205.573 162.125 205.381 162.008C205.189 161.88 204.938 161.784 204.629 161.72C204.32 161.656 203.973 161.597 203.589 161.544C203.216 161.491 202.837 161.421 202.453 161.336C202.08 161.24 201.738 161.107 201.429 160.936C201.12 160.755 200.869 160.515 200.677 160.216C200.485 159.917 200.389 159.523 200.389 159.032C200.389 158.488 200.544 158.019 200.853 157.624C201.162 157.219 201.594 156.909 202.149 156.696C202.714 156.472 203.381 156.36 204.149 156.36C204.725 156.36 205.306 156.424 205.893 156.552C206.48 156.68 206.965 156.861 207.349 157.096L206.581 158.616C206.176 158.371 205.765 158.205 205.349 158.12C204.944 158.024 204.538 157.976 204.133 157.976C203.525 157.976 203.072 158.067 202.773 158.248C202.485 158.429 202.341 158.659 202.341 158.936C202.341 159.192 202.437 159.384 202.629 159.512C202.821 159.64 203.072 159.741 203.381 159.816C203.69 159.891 204.032 159.955 204.405 160.008C204.789 160.051 205.168 160.12 205.541 160.216C205.914 160.312 206.256 160.445 206.565 160.616C206.885 160.776 207.141 161.005 207.333 161.304C207.525 161.603 207.621 161.992 207.621 162.472C207.621 163.005 207.461 163.469 207.141 163.864C206.832 164.259 206.389 164.568 205.813 164.792C205.237 165.005 204.549 165.112 203.749 165.112ZM213.359 165.112C212.41 165.112 211.578 164.925 210.863 164.552C210.159 164.168 209.61 163.645 209.215 162.984C208.831 162.323 208.639 161.571 208.639 160.728C208.639 159.875 208.826 159.123 209.199 158.472C209.583 157.811 210.106 157.293 210.767 156.92C211.439 156.547 212.202 156.36 213.055 156.36C213.887 156.36 214.629 156.541 215.279 156.904C215.93 157.267 216.442 157.779 216.815 158.44C217.189 159.101 217.375 159.88 217.375 160.776C217.375 160.861 217.37 160.957 217.359 161.064C217.359 161.171 217.354 161.272 217.343 161.368H210.223V160.04H216.287L215.503 160.456C215.514 159.965 215.413 159.533 215.199 159.16C214.986 158.787 214.693 158.493 214.319 158.28C213.957 158.067 213.535 157.96 213.055 157.96C212.565 157.96 212.133 158.067 211.759 158.28C211.397 158.493 211.109 158.792 210.895 159.176C210.693 159.549 210.591 159.992 210.591 160.504V160.824C210.591 161.336 210.709 161.789 210.943 162.184C211.178 162.579 211.509 162.883 211.935 163.096C212.362 163.309 212.853 163.416 213.407 163.416C213.887 163.416 214.319 163.341 214.703 163.192C215.087 163.043 215.429 162.808 215.727 162.488L216.799 163.72C216.415 164.168 215.93 164.515 215.343 164.76C214.767 164.995 214.106 165.112 213.359 165.112Z" fill="#0F52BA"/>
<path d="M75.8496 195.023V212.797H73.4863V203.871H71.7676V211.938H69.4824V195.316H71.7676V201.879H73.4863V195.023H75.8496ZM67.6074 197.074V199.086H63.4863V206.664C65.2051 206.654 66.7285 206.566 68.4473 206.254L68.623 208.285C66.4551 208.695 64.5605 208.754 62.2168 208.773H60.9863V197.074H67.6074ZM88.3105 196.605V198.578H77.7637V196.605H81.8066V194.926H84.2871V196.605H88.3105ZM83.0371 199.145C85.6152 199.145 87.4121 200.473 87.4121 202.426C87.4121 204.379 85.6152 205.707 83.0371 205.707C80.459 205.707 78.623 204.379 78.623 202.426C78.623 200.473 80.459 199.145 83.0371 199.145ZM83.0371 201.02C81.8457 201.02 81.0449 201.508 81.0645 202.426C81.0449 203.324 81.8457 203.793 83.0371 203.793C84.2285 203.793 85.0488 203.324 85.0488 202.426C85.0488 201.508 84.2285 201.02 83.0371 201.02ZM91.8652 195.023V199.633H94.2676V201.664H91.8652V206.176H89.3652V195.023H91.8652ZM91.8652 206.918V212.797H89.3652V208.91H79.8926V206.918H91.8652ZM98.3105 196.098V198.5H101.807V196.098H104.268V197.641H107.549V195.023H110.029V205.648H107.549V203.266H104.268V204.613H95.8105V196.098H98.3105ZM98.3105 202.68H101.807V200.414H98.3105V202.68ZM103.955 205.941C107.744 205.961 110.068 207.211 110.088 209.398C110.068 211.547 107.744 212.797 103.955 212.797C100.166 212.797 97.8418 211.547 97.8418 209.398C97.8418 207.211 100.166 205.961 103.955 205.941ZM103.955 207.855C101.592 207.855 100.322 208.344 100.322 209.398C100.322 210.395 101.592 210.902 103.955 210.902C106.318 210.902 107.607 210.395 107.607 209.398C107.607 208.344 106.318 207.855 103.955 207.855ZM104.268 201.273H107.549V199.613H104.268V201.273ZM127.393 195.043V208.461H124.893V207.055H121.494V205.355H124.893V195.043H127.393ZM127.783 210.492V212.484H114.541V207.172H117.021V204.809C115.43 204.877 113.916 204.887 112.568 204.887L112.275 202.914C115.537 202.895 119.932 202.855 123.682 202.387L123.818 204.164C122.412 204.398 120.957 204.564 119.521 204.672V208.051H117.021V210.492H127.783ZM118.057 195.648C120.635 195.629 122.49 196.938 122.49 198.832C122.49 200.727 120.635 201.957 118.057 201.957C115.42 201.957 113.584 200.727 113.584 198.832C113.584 196.938 115.4 195.629 118.057 195.648ZM118.057 197.465C116.787 197.465 115.928 197.953 115.947 198.832C115.928 199.691 116.787 200.16 118.057 200.16C119.248 200.16 120.107 199.691 120.127 198.832C120.107 197.953 119.248 197.465 118.057 197.465ZM134.014 205.141V207.035H141.416V205.141H143.877V212.602H131.572V205.141H134.014ZM134.014 210.59H141.416V208.93H134.014V210.59ZM143.955 195.746V197.172C143.955 198.52 143.955 199.965 143.545 201.977H145.889V203.969H129.619V201.977H141.064C141.416 200.258 141.465 198.92 141.475 197.738H131.611V195.746H143.955ZM158.643 204.633V207.309C160.098 207.221 161.572 207.084 162.959 206.879L163.154 208.695C159.209 209.457 154.99 209.496 151.885 209.496L151.592 207.484C152.93 207.475 154.502 207.465 156.162 207.406V204.633H158.643ZM162.314 197.113V199.125H158.682C158.848 200.844 160.186 202.455 162.861 203.109L161.729 205.043C159.648 204.516 158.213 203.363 157.412 201.879C156.621 203.432 155.205 204.643 153.115 205.18L151.943 203.305C154.629 202.592 155.928 200.922 156.104 199.125H152.51V197.113H156.162V195.18H158.643V197.113H162.314ZM166.455 195.023V212.836H163.975V195.023H166.455ZM175.342 198.812C175.342 200.668 176.689 202.484 179.541 203.227L178.428 205.16C176.377 204.623 174.951 203.49 174.131 202.035C173.35 203.627 171.934 204.867 169.834 205.473L168.662 203.539C171.533 202.758 172.861 200.805 172.861 198.812V198.754H169.287V196.801H172.861V194.945H175.381V196.801H178.936V198.754H175.342V198.812ZM183.779 195.023V205.434H181.299V201.703H178.486V199.691H181.299V195.023H183.779ZM183.779 206.195V212.602H171.826V206.195H183.779ZM174.326 208.188V210.609H181.338V208.188H174.326ZM200.186 195.023V199.867H202.588V201.918H200.186V207.875H197.686V195.023H200.186ZM194.795 196.449V198.441H189.268V202.934C192.48 202.914 194.248 202.816 196.24 202.387L196.494 204.379C194.268 204.848 192.217 204.945 188.271 204.945H186.768V196.449H194.795ZM200.83 210.492V212.484H188.662V206.508H191.143V210.492H200.83ZM223.486 195.023V212.797H221.104V203.891H219.6V211.977H217.236V206.879L215.83 208.754C214.18 207.885 213.115 206.41 212.49 204.574C211.895 206.684 210.84 208.393 209.15 209.398L207.607 207.484C210.303 205.961 211.221 202.816 211.221 199.418V198.852H208.213V196.859H216.357V198.852H213.643V199.418C213.643 202.514 214.561 205.463 217.236 206.84V195.277H219.6V201.859H221.104V195.023H223.486ZM239.482 195.023V199.223H241.748V201.293H239.482V205.492H236.982V195.023H239.482ZM239.482 206.117V210.102H229.951V211.02H240.068V212.68H227.451V208.598H236.982V207.777H227.432V206.117H239.482ZM225.068 203.578C226.367 203.588 227.842 203.588 229.385 203.539V202.758C227.441 202.533 226.24 201.723 226.26 200.453C226.24 199.008 227.959 198.168 230.615 198.168C233.252 198.168 234.951 199.008 234.971 200.453C234.951 201.723 233.779 202.523 231.865 202.758V203.461C233.32 203.393 234.785 203.275 236.162 203.09L236.338 204.633C232.549 205.277 228.428 205.297 225.322 205.297L225.068 203.578ZM235.713 196.137V197.797H225.537V196.137H229.385V194.867H231.865V196.137H235.713ZM230.615 199.711C229.346 199.711 228.623 199.945 228.643 200.453C228.623 200.98 229.346 201.254 230.615 201.273C231.865 201.254 232.568 200.98 232.588 200.453C232.568 199.945 231.865 199.711 230.615 199.711ZM254.072 199.047C254.072 202.309 255.557 205.59 258.564 206.859L257.1 208.852C255.068 207.934 253.662 206.166 252.861 203.969C252.051 206.361 250.596 208.295 248.428 209.281L246.924 207.211C250.029 205.902 251.533 202.504 251.553 199.047V196.391H254.072V199.047ZM262.041 195.023V212.836H259.521V195.023H262.041ZM273.799 197.367C273.799 199.965 276.104 202.758 280.127 203.441L279.033 205.512C275.938 204.896 273.633 203.158 272.49 200.863C271.309 203.139 269.004 204.887 265.928 205.512L264.854 203.441C268.799 202.738 271.123 199.945 271.143 197.367V196.078H273.799V197.367ZM280.713 208.559V210.609H264.443V208.559H280.713ZM289.209 196.078V198.09H284.814V199.496H288.545V201.41H284.814V202.953C286.758 202.924 288.174 202.846 289.814 202.582L290.068 204.516C288.018 204.867 286.318 204.926 283.643 204.926H282.432V196.078H289.209ZM297.002 195.023V205.629H294.639V195.023H297.002ZM293.467 195.297V205.512H291.104V201.293H289.307V199.301H291.104V195.297H293.467ZM297.002 206.332V212.602H284.873V206.332H297.002ZM287.354 208.285V210.609H294.541V208.285H287.354Z" fill="#1A1A1A"/>
<path d="M59.5781 237.328V251.328H58.1562V244.141H56.4844V250.641H55.0781V237.594H56.4844V242.891H58.1562V237.328H59.5781ZM51.7344 241.031C51.7344 243.547 52.6875 245.828 54.7188 246.875L53.8438 248.016C52.4688 247.273 51.5469 245.969 51.0469 244.344C50.5703 246.188 49.6406 247.656 48.2188 248.5L47.2969 247.375C49.3438 246.219 50.2969 243.812 50.2969 241.031V240.125H47.6719V238.922H54.1719V240.125H51.7344V241.031ZM72.3281 237.328V240.812H74.3281V242.078H72.3281V245.578H70.8438V237.328H72.3281ZM72.3281 246.172V249.094H64.5938V250.156H72.8438V251.188H63.1094V248.141H70.8594V247.203H63.0781V246.172H72.3281ZM61.2188 244.25C62.3047 244.25 63.5625 244.25 64.875 244.203V243.422C63.2656 243.273 62.2656 242.633 62.2812 241.578C62.2656 240.438 63.5781 239.766 65.6094 239.766C67.625 239.766 68.9375 240.438 68.9375 241.578C68.9375 242.625 67.9453 243.266 66.3594 243.422V244.156C67.6094 244.094 68.875 243.992 70.0469 243.828L70.1719 244.797C67.1562 245.297 63.8438 245.312 61.375 245.312L61.2188 244.25ZM69.6562 238.328V239.359H61.5781V238.328H64.875V237.203H66.3594V238.328H69.6562ZM65.6094 240.734C64.4062 240.734 63.6875 241.047 63.6875 241.578C63.6875 242.141 64.4062 242.484 65.6094 242.484C66.7969 242.484 67.5156 242.141 67.5156 241.578C67.5156 241.047 66.7969 240.734 65.6094 240.734ZM79.7031 238.328C81.9219 238.312 83.5 239.688 83.5156 241.656C83.5 243.625 81.9219 245 79.7031 245C77.5 245 75.875 243.625 75.8906 241.656C75.875 239.688 77.5 238.312 79.7031 238.328ZM79.7031 239.609C78.3438 239.609 77.3438 240.422 77.3594 241.656C77.3438 242.891 78.3438 243.703 79.7031 243.703C81.0625 243.703 82.0625 242.891 82.0625 241.656C82.0625 240.422 81.0625 239.609 79.7031 239.609ZM86.7188 237.328V251.359H85.2344V237.328H86.7188ZM75.2188 247.109C77.7656 247.109 81.2969 247.078 84.3594 246.641L84.4688 247.719C81.2969 248.328 77.9062 248.344 75.4062 248.344L75.2188 247.109ZM97.3281 238.75V239.938H88.9844V238.75H92.4219V237.266H93.9062V238.75H97.3281ZM93.1562 240.562C95.1719 240.578 96.5469 241.578 96.5469 243.109C96.5469 244.641 95.1719 245.656 93.1562 245.656C91.125 245.656 89.75 244.641 89.75 243.109C89.75 241.578 91.125 240.578 93.1562 240.562ZM93.1562 241.703C91.9688 241.703 91.1719 242.25 91.1875 243.109C91.1719 243.984 91.9688 244.5 93.1562 244.5C94.3438 244.5 95.1406 243.984 95.1562 243.109C95.1406 242.25 94.3438 241.703 93.1562 241.703ZM99.9688 237.328V241.125H102V242.359H99.9688V246.078H98.4844V237.328H99.9688ZM99.9688 246.797V251.328H98.4844V248H90.7188V246.797H99.9688ZM110.594 238.828V239.688C110.594 240.859 110.594 242.672 110.188 245.172L108.719 245.062C109.07 242.82 109.109 241.203 109.125 240.031H103.438V238.828H110.594ZM107 242.828V247.016C108.492 246.969 110.008 246.867 111.406 246.688L111.484 247.797C108.562 248.266 105.312 248.328 102.828 248.312L102.656 247.109C103.531 247.102 104.508 247.094 105.531 247.062V242.828H107ZM113.703 237.328V243.109H115.844V244.375H113.703V251.328H112.203V237.328H113.703ZM132.203 237.344V247.594H130.719V242.328H128.047V241.125H130.719V237.344H132.203ZM132.578 249.828V251.031H123.109V246.672H124.594V249.828H132.578ZM125.547 240.172C125.547 241.922 126.812 243.672 128.922 244.375L128.156 245.562C126.586 245.008 125.422 243.883 124.812 242.5C124.203 244.039 122.977 245.281 121.312 245.875L120.547 244.672C122.703 243.938 124.031 242.094 124.031 240.172V239.625H121V238.406H128.547V239.625H125.547V240.172ZM147.156 244.406V245.609H141.594V248.328H140.125V245.609H134.344V244.406H147.156ZM145.5 237.984V242.953H135.984V237.984H145.5ZM137.438 239.156V241.781H144.031V239.156H137.438ZM145.734 249.828V251.031H135.938V247H137.422V249.828H145.734ZM152.75 238.328C154.969 238.312 156.547 239.688 156.562 241.656C156.547 243.625 154.969 245 152.75 245C150.547 245 148.922 243.625 148.938 241.656C148.922 239.688 150.547 238.312 152.75 238.328ZM152.75 239.609C151.391 239.609 150.391 240.422 150.406 241.656C150.391 242.891 151.391 243.703 152.75 243.703C154.109 243.703 155.109 242.891 155.109 241.656C155.109 240.422 154.109 239.609 152.75 239.609ZM159.766 237.328V251.359H158.281V237.328H159.766ZM148.266 247.109C150.812 247.109 154.344 247.078 157.406 246.641L157.516 247.719C154.344 248.328 150.953 248.344 148.453 248.344L148.266 247.109ZM166.219 238.219C168.375 238.219 169.984 239.578 169.984 241.547C169.984 243.281 168.734 244.539 166.969 244.812V247.031C168.211 246.977 169.453 246.883 170.609 246.734L170.719 247.844C167.766 248.359 164.5 248.375 162.078 248.359L161.844 247.141C162.93 247.133 164.18 247.125 165.484 247.094V244.812C163.672 244.555 162.438 243.289 162.453 241.547C162.438 239.578 164.016 238.219 166.219 238.219ZM166.219 239.469C164.875 239.484 163.891 240.297 163.891 241.547C163.891 242.797 164.875 243.625 166.219 243.609C167.547 243.625 168.516 242.797 168.531 241.547C168.516 240.297 167.547 239.484 166.219 239.469ZM172.938 237.328V243.016H175.094V244.266H172.938V251.328H171.453V237.328H172.938ZM186.891 238.109C186.891 239.781 189.141 241.359 191.828 241.734L191.25 242.891C189.016 242.547 187.039 241.453 186.141 239.938C185.234 241.461 183.258 242.547 181.016 242.891L180.453 241.734C183.141 241.359 185.375 239.797 185.375 238.109V237.516H186.891V238.109ZM192.516 243.875V245.078H186.859V246.734H190.953V251.328H189.453V247.922H181.172V246.734H185.391V245.078H179.75V243.875H192.516ZM200.25 238.312V242.531H195.625V244.609C197.953 244.602 199.336 244.531 200.984 244.25L201.141 245.453C199.328 245.766 197.828 245.812 195.172 245.812H194.141V241.391H198.75V239.5H194.109V238.312H200.25ZM205.25 237.344V247.641H203.766V243.969H201.156V242.75H203.766V240.812H201.156V239.625H203.766V237.344H205.25ZM205.656 249.766V250.984H196.047V246.875H197.531V249.766H205.656ZM215.562 241.812V243.016H212.828V244.781C214.07 244.727 215.305 244.641 216.453 244.516L216.562 245.609C213.578 246.016 210.297 246.094 207.672 246.094L207.469 244.906C208.664 244.898 210 244.883 211.359 244.844V243.016H208.719V238.219H215.438V239.422H210.203V241.812H215.562ZM219.016 237.328V247.828H217.531V237.328H219.016ZM219.453 249.828V251.031H209.781V247.078H211.266V249.828H219.453ZM236.734 237.328V251.328H235.25V237.328H236.734ZM230.406 241.828C230.406 244.062 231.891 246.344 234.062 247.266L233.25 248.406C231.641 247.703 230.352 246.25 229.703 244.484C229.07 246.352 227.805 247.906 226.172 248.641L225.344 247.5C227.516 246.531 228.953 244.172 228.953 241.828V240.906H225.766V239.719H228.938V237.609H230.406V239.719H233.547V240.906H230.406V241.828ZM251.781 248.406V249.656H238.969V248.406H242.469V245.938H240.531V241.484H248.75V239.531H240.5V238.312H250.219V242.688H242V244.719H250.547V245.938H248.422V248.406H251.781ZM243.906 248.406H246.969V245.938H243.906V248.406ZM257.656 240.891C257.641 243.375 259.078 245.906 261.172 246.922L260.25 248.109C258.727 247.32 257.547 245.75 256.938 243.875C256.305 245.875 255.078 247.547 253.484 248.375L252.562 247.172C254.719 246.141 256.172 243.453 256.172 240.891V238.5H257.656V240.891ZM263.703 237.328V242.906H265.953V244.172H263.703V251.328H262.219V237.328H263.703ZM277.531 237.328V242.906H279.703V244.141H277.531V251.312H276.047V237.328H277.531ZM273.875 238.797C273.859 242.844 272.078 246.453 267.469 248.734L266.641 247.578C270.148 245.828 272.055 243.297 272.359 240.031H267.344V238.797H273.875ZM295.359 237.328V240.953H297.391V242.219H295.359V245.766H293.875V237.328H295.359ZM295.359 246.5V251.156H286.422V246.5H295.359ZM287.875 247.672V249.953H293.891V247.672H287.875ZM292.719 238.75V239.938H284.375V238.75H287.812V237.219H289.297V238.75H292.719ZM288.547 240.547C290.562 240.547 291.938 241.547 291.938 243.047C291.938 244.562 290.562 245.547 288.547 245.562C286.5 245.547 285.141 244.562 285.141 243.047C285.141 241.547 286.5 240.547 288.547 240.547ZM288.547 241.688C287.359 241.672 286.562 242.203 286.578 243.047C286.562 243.922 287.359 244.438 288.547 244.438C289.734 244.438 290.531 243.922 290.547 243.047C290.531 242.203 289.734 241.672 288.547 241.688ZM301.656 238.984C301.641 242.125 301.25 245.359 299.297 248.109L298.141 247.453C299.773 245.266 300.266 242.844 300.375 240.203H298.469V238.984H301.656ZM304.766 238.984C304.766 240.164 304.742 241.453 304.594 242.75H306.234V237.688H307.641V250.641H306.234V243.953H304.422C304.102 245.695 303.516 247.422 302.438 248.953L301.281 248.281C303.094 245.852 303.422 242.906 303.484 240.203H302.078V238.984H304.766ZM310.297 237.328V251.328H308.875V237.328H310.297ZM59.7969 263.328V270.531H58.3125V266.938H55.3594V265.734H58.3125V263.328H59.7969ZM59.7969 271.188V274.672H52.125V275.969H60.2812V277.156H50.6719V273.547H58.3281V272.359H50.6406V271.188H59.7969ZM53.0469 265C53.0469 266.781 54.3281 268.438 56.4375 269.109L55.6562 270.266C54.1172 269.734 52.9531 268.68 52.3438 267.344C51.7266 268.844 50.5234 270.023 48.875 270.594L48.0781 269.406C50.2656 268.703 51.5625 266.969 51.5781 265V263.781H53.0469V265ZM73.9844 263.328V277.328H72.5781V263.328H73.9844ZM71.125 263.688V276.641H69.7188V271.875H67.3281V270.656H69.7188V268.375H67.5625C66.8828 270.727 65.3906 272.766 62.75 274.344L61.875 273.281C64.8438 271.516 66.2734 269.164 66.5312 266.281H62.5625V265.062H68C68 265.781 67.9453 266.477 67.8281 267.156H69.7188V263.688H71.125ZM86.6875 263.328V269H88.9375V270.234H86.6875V277.328H85.2188V263.328H86.6875ZM84 265.516V266.734H75.7031V265.516H79.1562V263.516H80.6406V265.516H84ZM79.9062 267.766C81.9062 267.766 83.375 269.109 83.3906 271.016C83.375 272.938 81.9062 274.266 79.9062 274.281C77.8906 274.266 76.4219 272.938 76.4219 271.016C76.4219 269.109 77.8906 267.766 79.9062 267.766ZM79.9062 268.984C78.7188 268.984 77.8281 269.812 77.8438 271.016C77.8281 272.234 78.7188 273.047 79.9062 273.031C81.0938 273.047 81.9688 272.234 81.9688 271.016C81.9688 269.812 81.0938 268.984 79.9062 268.984ZM100.938 267.422V268.609H91.2969V263.828H92.7656V267.422H100.938ZM102.406 270.375V271.562H89.5938V270.375H102.406ZM101.031 275.781V277H91.1875V272.891H92.6719V275.781H101.031ZM112.125 264.688V276H110.391V266.406H110.328L107.625 268.172V266.531L110.438 264.688H112.125ZM116.109 274.547C115.5 274.547 114.984 274.047 115 273.438C114.984 272.828 115.5 272.328 116.109 272.328C116.703 272.328 117.219 272.828 117.219 273.438C117.219 274.047 116.703 274.547 116.109 274.547ZM116.109 268.375C115.5 268.375 114.984 267.875 115 267.266C114.984 266.656 115.5 266.156 116.109 266.156C116.703 266.156 117.219 266.656 117.219 267.266C117.219 267.875 116.703 268.375 116.109 268.375ZM123.516 264.688V276H121.781V266.406H121.719L119.016 268.172V266.531L121.828 264.688H123.516ZM140.828 263.328V268.125H142.828V269.359H140.828V274.266H139.344V263.328H140.828ZM141.328 275.828V277.031H131.781V273.531H133.266V275.828H141.328ZM129.719 271.547C130.797 271.547 132.055 271.539 133.375 271.484V270.516C131.781 270.344 130.766 269.57 130.781 268.422C130.766 267.062 132.094 266.25 134.109 266.266C136.109 266.25 137.438 267.062 137.438 268.422C137.438 269.562 136.438 270.336 134.859 270.516V271.422C136.109 271.352 137.375 271.242 138.547 271.062L138.672 272.109C135.688 272.672 132.312 272.719 129.875 272.734L129.719 271.547ZM138.156 264.625V265.719H130.078V264.625H133.375V263.281H134.859V264.625H138.156ZM134.109 267.281C132.906 267.281 132.188 267.703 132.188 268.422C132.188 269.109 132.906 269.531 134.109 269.531C135.297 269.531 136.016 269.109 136.016 268.422C136.016 267.703 135.297 267.281 134.109 267.281ZM148.516 267.453C148.516 269.672 149.969 272.141 152.094 273.141L151.25 274.297C149.68 273.539 148.438 271.961 147.812 270.125C147.164 272.133 145.852 273.859 144.25 274.656L143.375 273.484C145.5 272.469 147.047 269.828 147.047 267.453V265.969H143.891V264.734H151.562V265.969H148.516V267.453ZM154.547 263.328V268.875H156.797V270.125H154.547V277.328H153.062V263.328H154.547ZM168.469 264.266V270.297H161.922V264.266H168.469ZM163.375 265.453V269.109H167.016V265.453H163.375ZM172.375 263.328V266.578H174.406V267.812H172.375V271.266H170.891V263.328H172.375ZM172.594 272.047V273.234H168.766C168.969 274.562 170.789 275.789 173.172 276.141L172.625 277.281C170.5 276.953 168.75 275.977 167.938 274.641C167.141 275.984 165.398 276.953 163.281 277.266L162.734 276.125C165.133 275.789 166.914 274.602 167.156 273.234H163.297V272.047H172.594ZM187.969 270.188V271.375H182.312V272.75H186.406V277.156H176.734V272.75H180.844V271.375H175.203V270.188H187.969ZM182.312 263.281V264.609H186.688V265.781H182.406C182.555 267.125 184.484 268.117 187.281 268.344L186.844 269.453C184.406 269.234 182.445 268.461 181.578 267.172C180.703 268.461 178.742 269.234 176.328 269.453L175.875 268.344C178.68 268.117 180.594 267.125 180.766 265.781H176.484V264.609H180.844V263.281H182.312ZM178.203 273.938V275.953H184.969V273.938H178.203ZM196.922 264.797V265.984H189.047V264.797H192.328V263.203H193.797V264.797H196.922ZM193.047 266.625C194.938 266.625 196.266 267.672 196.281 269.234C196.266 270.797 194.938 271.828 193.047 271.828C191.141 271.828 189.828 270.797 189.828 269.234C189.828 267.672 191.141 266.625 193.047 266.625ZM193.047 267.75C191.938 267.75 191.219 268.328 191.219 269.234C191.219 270.141 191.938 270.703 193.047 270.703C194.141 270.703 194.891 270.141 194.906 269.234C194.891 268.328 194.141 267.75 193.047 267.75ZM200.703 263.328V272.344H199.219V270.547H196.953V269.344H199.219V267.797H196.969V266.594H199.219V263.328H200.703ZM196.047 272.484C198.984 272.484 200.781 273.359 200.781 274.891C200.781 276.406 198.984 277.312 196.047 277.297C193.094 277.312 191.297 276.406 191.297 274.891C191.297 273.359 193.094 272.484 196.047 272.484ZM196.047 273.625C194.031 273.625 192.844 274.062 192.844 274.891C192.844 275.703 194.031 276.172 196.047 276.156C198.016 276.172 199.203 275.703 199.203 274.891C199.203 274.062 198.016 273.625 196.047 273.625ZM211.953 265.562C211.953 267.297 213.312 268.922 215.469 269.547L214.719 270.703C213.086 270.211 211.852 269.141 211.219 267.766C210.586 269.234 209.336 270.398 207.656 270.953L206.906 269.781C209.078 269.109 210.438 267.406 210.453 265.562V265.406H207.312V264.203H215.031V265.406H211.953V265.562ZM218.375 263.328V270.906H216.891V263.328H218.375ZM210.672 271.562V273.125H216.906V271.562H218.375V277.156H209.219V271.562H210.672ZM210.672 275.953H216.906V274.297H210.672V275.953ZM233.359 269.812V271.016H227.703V272.359C230.273 272.5 231.797 273.367 231.797 274.828C231.797 276.422 229.984 277.312 226.969 277.297C223.922 277.312 222.109 276.422 222.109 274.828C222.109 273.367 223.633 272.5 226.234 272.359V271.016H220.594V269.812H233.359ZM226.969 273.484C224.828 273.484 223.609 273.969 223.609 274.828C223.609 275.672 224.828 276.172 226.969 276.156C229.078 276.172 230.312 275.672 230.312 274.828C230.312 273.969 229.078 273.484 226.969 273.484ZM232.219 263.969V265.156H227.969C228.18 266.508 230.148 267.656 232.703 267.906L232.172 269.078C229.75 268.797 227.742 267.773 226.984 266.281C226.203 267.773 224.203 268.797 221.781 269.078L221.266 267.906C223.781 267.656 225.758 266.508 225.969 265.156H221.766V263.969H232.219ZM249.922 263.328V277.328H248.438V263.328H249.922ZM243.594 267.828C243.594 270.062 245.078 272.344 247.25 273.266L246.438 274.406C244.828 273.703 243.539 272.25 242.891 270.484C242.258 272.352 240.992 273.906 239.359 274.641L238.531 273.5C240.703 272.531 242.141 270.172 242.141 267.828V266.906H238.953V265.719H242.125V263.609H243.594V265.719H246.734V266.906H243.594V267.828ZM264.969 274.406V275.656H252.156V274.406H255.656V271.938H253.719V267.484H261.938V265.531H253.688V264.312H263.406V268.688H255.188V270.719H263.734V271.938H261.609V274.406H264.969ZM257.094 274.406H260.156V271.938H257.094V274.406ZM282.703 274.328V275.578H269.891V274.328H282.703ZM281.531 264.672V265.891H279.391V270.562H281.484V271.75H271.016V270.562H273.109V265.891H270.984V264.672H281.531ZM274.578 270.562H277.938V265.891H274.578V270.562ZM296.531 274.406V275.656H283.719V274.406H289.359V271.953H285.281V267.5H293.5V265.531H285.25V264.312H294.969V268.688H286.75V270.734H295.297V271.953H290.828V274.406H296.531ZM308.641 264.75V266.25C308.641 268.062 308.641 270.031 308.125 273.016L306.609 272.875C307.172 270.078 307.172 268.016 307.172 266.25V265.969H298.922V264.75H308.641ZM310.312 274.109V275.344H297.547V274.109H310.312ZM139.227 289.344V297.656H137.82V294.016H136.102V297.5H134.711V289.594H136.102V292.797H137.82V289.344H139.227ZM139.227 298.281V303.156H129.867V298.281H139.227ZM131.352 299.469V301.953H137.773V299.469H131.352ZM133.195 290.219V294.156H129.352V295.906C131.086 295.891 132.406 295.812 133.945 295.516L134.102 296.703C132.336 297.031 130.883 297.078 128.836 297.078H127.914V293.016H131.773V291.406H127.883V290.219H133.195ZM147.492 289.562C150.648 289.562 152.492 290.406 152.492 291.969C152.492 293.531 150.648 294.391 147.492 294.391C144.336 294.391 142.492 293.531 142.492 291.969C142.492 290.406 144.336 289.562 147.492 289.562ZM147.492 290.656C145.258 290.656 144.023 291.141 144.039 291.969C144.023 292.828 145.258 293.281 147.492 293.281C149.727 293.281 150.961 292.828 150.961 291.969C150.961 291.141 149.727 290.656 147.492 290.656ZM153.883 295.25V296.438H141.117V295.25H153.883ZM152.273 297.516V300.797H144.117V302.047H152.664V303.188H142.664V299.719H150.805V298.625H142.648V297.516H152.273ZM170.867 289.328V303.328H169.445V289.328H170.867ZM168.023 289.625V302.625H166.617V295.5H164.445V294.281H166.617V289.625H168.023ZM163.07 293.234C163.07 295.625 164.039 298.016 166.008 299.156L165.117 300.25C163.781 299.453 162.859 298.039 162.383 296.344C161.875 298.172 160.922 299.727 159.555 300.578L158.648 299.469C160.633 298.266 161.648 295.719 161.648 293.234V292.109H159.07V290.906H165.477V292.109H163.07V293.234ZM178.992 298.125C182.023 298.125 183.93 299.078 183.945 300.719C183.93 302.344 182.023 303.312 178.992 303.297C175.992 303.312 174.07 302.344 174.07 300.719C174.07 299.078 175.992 298.125 178.992 298.125ZM178.992 299.25C176.867 299.25 175.539 299.797 175.555 300.719C175.539 301.625 176.867 302.156 178.992 302.156C181.133 302.156 182.461 301.625 182.477 300.719C182.461 299.797 181.133 299.25 178.992 299.25ZM183.836 290.016V291.188C183.836 292.312 183.836 293.469 183.445 294.906L181.992 294.75C182.367 293.32 182.367 292.289 182.367 291.203H174.18V290.016H183.836ZM185.43 295.766V296.969H172.695V295.766H177.805V293.141H179.258V295.766H185.43ZM197.508 289.328V292.844H199.539V294.094H197.508V297.484H196.023V289.328H197.508ZM190.023 298.062V299.422H196.023V298.062H197.508V303.156H188.555V298.062H190.023ZM190.023 301.969H196.023V300.578H190.023V301.969ZM194.867 290.703V291.891H186.523V290.703H189.961V289.203H191.445V290.703H194.867ZM190.695 292.469C192.711 292.469 194.086 293.422 194.086 294.922C194.086 296.406 192.711 297.391 190.695 297.375C188.648 297.391 187.289 296.406 187.289 294.922C187.289 293.422 188.648 292.469 190.695 292.469ZM190.695 293.578C189.508 293.562 188.711 294.109 188.727 294.922C188.711 295.75 189.508 296.281 190.695 296.281C191.883 296.281 192.68 295.75 192.695 294.922C192.68 294.109 191.883 293.562 190.695 293.578ZM211.961 289.328V303.328H210.477V289.328H211.961ZM202.664 290.688V298.484C204.703 298.469 206.852 298.305 209.102 297.844L209.305 299.094C206.82 299.594 204.57 299.766 202.367 299.766H201.195V290.688H202.664ZM225.07 289.328V294.75H227.32V295.969H225.07V303.359H223.586V289.328H225.07ZM221.305 290.672V291.875H216.242V298.641C218.594 298.633 220.359 298.531 222.352 298.172L222.539 299.422C220.352 299.812 218.492 299.891 215.883 299.875H214.758V290.672H221.305ZM229.586 302.109C228.977 302.109 228.461 301.609 228.477 301C228.461 300.391 228.977 299.891 229.586 299.891C230.18 299.891 230.695 300.391 230.695 301C230.695 301.609 230.18 302.109 229.586 302.109Z" fill="#555555"/>
<g filter="url(#filter1_dd_86_719)">
<path d="M139 83C139 60.9086 156.909 43 179 43C201.091 43 219 60.9086 219 83C219 105.091 201.091 123 179 123C156.909 123 139 105.091 139 83Z" fill="white" shape-rendering="crispEdges"/>
<path d="M177.333 66.3333V69.6666" stroke="#0F52BA" stroke-width="3.33333" stroke-linecap="round" stroke-linejoin="round"/>
<path d="M167.333 66.3333V69.6666" stroke="#0F52BA" stroke-width="3.33333" stroke-linecap="round" stroke-linejoin="round"/>
<path d="M167.333 68H165.667C164.783 68 163.935 68.3512 163.31 68.9763C162.685 69.6014 162.333 70.4493 162.333 71.3333V78C162.333 80.6522 163.387 83.1957 165.262 85.0711C167.138 86.9464 169.681 88 172.333 88C174.985 88 177.529 86.9464 179.404 85.0711C181.28 83.1957 182.333 80.6522 182.333 78V71.3333C182.333 70.4493 181.982 69.6014 181.357 68.9763C180.732 68.3512 179.884 68 179 68H177.333" stroke="#0F52BA" stroke-width="3.33333" stroke-linecap="round" stroke-linejoin="round"/>
<path d="M172.333 88C172.333 90.6522 173.387 93.1957 175.262 95.0711C177.138 96.9464 179.681 98 182.333 98C184.985 98 187.529 96.9464 189.404 95.0711C191.28 93.1957 192.333 90.6522 192.333 88V83" stroke="#0F52BA" stroke-width="3.33333" stroke-linecap="round" stroke-linejoin="round"/>
<path d="M192.333 82.9999C194.174 82.9999 195.667 81.5075 195.667 79.6666C195.667 77.8256 194.174 76.3333 192.333 76.3333C190.492 76.3333 189 77.8256 189 79.6666C189 81.5075 190.492 82.9999 192.333 82.9999Z" stroke="#0F52BA" stroke-width="3.33333" stroke-linecap="round" stroke-linejoin="round"/>
</g>
</g>
<defs>
<filter id="filter0_dd_86_719" x="0" y="0" width="358" height="355" filterUnits="userSpaceOnUse" color-interpolation-filters="sRGB">
<feFlood flood-opacity="0" result="BackgroundImageFix"/>
<feColorMatrix in="SourceAlpha" type="matrix" values="0 0 0 0 0 0 0 0 0 0 0 0 0 0 0 0 0 0 127 0" result="hardAlpha"/>
<feMorphology radius="1" operator="erode" in="SourceAlpha" result="effect1_dropShadow_86_719"/>
<feOffset dy="1"/>
<feGaussianBlur stdDeviation="1"/>
<feComposite in2="hardAlpha" operator="out"/>
<feColorMatrix type="matrix" values="0 0 0 0 0 0 0 0 0 0 0 0 0 0 0 0 0 0 0.1 0"/>
<feBlend mode="normal" in2="BackgroundImageFix" result="effect1_dropShadow_86_719"/>
<feColorMatrix in="SourceAlpha" type="matrix" values="0 0 0 0 0 0 0 0 0 0 0 0 0 0 0 0 0 0 127 0" result="hardAlpha"/>
<feOffset dy="1"/>
<feGaussianBlur stdDeviation="1.5"/>
<feComposite in2="hardAlpha" operator="out"/>
<feColorMatrix type="matrix" values="0 0 0 0 0 0 0 0 0 0 0 0 0 0 0 0 0 0 0.1 0"/>
<feBlend mode="normal" in2="effect1_dropShadow_86_719" result="effect2_dropShadow_86_719"/>
<feBlend mode="normal" in="SourceGraphic" in2="effect2_dropShadow_86_719" result="shape"/>
</filter>
<filter id="filter1_dd_86_719" x="134" y="42" width="90" height="90" filterUnits="userSpaceOnUse" color-interpolation-filters="sRGB">
<feFlood flood-opacity="0" result="BackgroundImageFix"/>
<feColorMatrix in="SourceAlpha" type="matrix" values="0 0 0 0 0 0 0 0 0 0 0 0 0 0 0 0 0 0 127 0" result="hardAlpha"/>
<feMorphology radius="2" operator="erode" in="SourceAlpha" result="effect1_dropShadow_86_719"/>
<feOffset dy="2"/>
<feGaussianBlur stdDeviation="2"/>
<feComposite in2="hardAlpha" operator="out"/>
<feColorMatrix type="matrix" values="0 0 0 0 0 0 0 0 0 0 0 0 0 0 0 0 0 0 0.1 0"/>
<feBlend mode="normal" in2="BackgroundImageFix" result="effect1_dropShadow_86_719"/>
<feColorMatrix in="SourceAlpha" type="matrix" values="0 0 0 0 0 0 0 0 0 0 0 0 0 0 0 0 0 0 127 0" result="hardAlpha"/>
<feMorphology radius="1" operator="erode" in="SourceAlpha" result="effect2_dropShadow_86_719"/>
<feOffset dy="4"/>
<feGaussianBlur stdDeviation="3"/>
<feComposite in2="hardAlpha" operator="out"/>
<feColorMatrix type="matrix" values="0 0 0 0 0 0 0 0 0 0 0 0 0 0 0 0 0 0 0.1 0"/>
<feBlend mode="normal" in2="effect1_dropShadow_86_719" result="effect2_dropShadow_86_719"/>
<feBlend mode="normal" in="SourceGraphic" in2="effect2_dropShadow_86_719" result="shape"/>
</filter>
</defs>
</svg>
