<svg width="358" height="355" viewBox="0 0 358 355" fill="none" xmlns="http://www.w3.org/2000/svg">
<g filter="url(#filter0_dd_86_733)">
<mask id="path-1-inside-1_86_733" fill="white">
<path d="M3 18C3 9.16344 10.1634 2 19 2H339C347.837 2 355 9.16344 355 18V335C355 343.837 347.837 351 339 351H19C10.1634 351 3 343.837 3 335V18Z"/>
</mask>
<path d="M3 18C3 9.16344 10.1634 2 19 2H339C347.837 2 355 9.16344 355 18V335C355 343.837 347.837 351 339 351H19C10.1634 351 3 343.837 3 335V18Z" fill="white" shape-rendering="crispEdges"/>
<path d="M19 2V3H339V2V1H19V2ZM355 18H354V335H355H356V18H355ZM339 351V350H19V351V352H339V351ZM3 335H4V18H3H2V335H3ZM19 351V350C10.7157 350 4 343.284 4 335H3H2C2 344.389 9.61117 352 19 352V351ZM355 335H354C354 343.284 347.284 350 339 350V351V352C348.389 352 356 344.389 356 335H355ZM339 2V3C347.284 3 354 9.71573 354 18H355H356C356 8.61116 348.389 1 339 1V2ZM19 2V1C9.61116 1 2 8.61116 2 18H3H4C4 9.71573 10.7157 3 19 3V2Z" fill="white" mask="url(#path-1-inside-1_86_733)"/>
<path d="M154.759 153.8H156.839V165H154.759V153.8ZM148.967 165H146.887V153.8H148.967V165ZM154.919 160.2H148.791V158.424H154.919V160.2ZM163.488 165.112C162.613 165.112 161.835 164.925 161.152 164.552C160.469 164.168 159.931 163.645 159.536 162.984C159.141 162.323 158.944 161.571 158.944 160.728C158.944 159.875 159.141 159.123 159.536 158.472C159.931 157.811 160.469 157.293 161.152 156.92C161.835 156.547 162.613 156.36 163.488 156.36C164.373 156.36 165.157 156.547 165.84 156.92C166.533 157.293 167.072 157.805 167.456 158.456C167.851 159.107 168.048 159.864 168.048 160.728C168.048 161.571 167.851 162.323 167.456 162.984C167.072 163.645 166.533 164.168 165.84 164.552C165.157 164.925 164.373 165.112 163.488 165.112ZM163.488 163.4C163.979 163.4 164.416 163.293 164.8 163.08C165.184 162.867 165.483 162.557 165.696 162.152C165.92 161.747 166.032 161.272 166.032 160.728C166.032 160.173 165.92 159.699 165.696 159.304C165.483 158.899 165.184 158.589 164.8 158.376C164.416 158.163 163.984 158.056 163.504 158.056C163.013 158.056 162.576 158.163 162.192 158.376C161.819 158.589 161.52 158.899 161.296 159.304C161.072 159.699 160.96 160.173 160.96 160.728C160.96 161.272 161.072 161.747 161.296 162.152C161.52 162.557 161.819 162.867 162.192 163.08C162.576 163.293 163.008 163.4 163.488 163.4ZM174.808 156.36C175.491 156.36 176.099 156.493 176.632 156.76C177.176 157.027 177.603 157.437 177.912 157.992C178.222 158.536 178.376 159.24 178.376 160.104V165H176.376V160.36C176.376 159.603 176.195 159.037 175.832 158.664C175.48 158.291 174.984 158.104 174.344 158.104C173.875 158.104 173.459 158.2 173.096 158.392C172.734 158.584 172.451 158.872 172.248 159.256C172.056 159.629 171.96 160.104 171.96 160.68V165H169.96V156.456H171.864V158.76L171.528 158.056C171.827 157.512 172.259 157.096 172.824 156.808C173.4 156.509 174.062 156.36 174.808 156.36ZM184.945 165.112C183.996 165.112 183.164 164.925 182.449 164.552C181.745 164.168 181.196 163.645 180.801 162.984C180.417 162.323 180.225 161.571 180.225 160.728C180.225 159.875 180.412 159.123 180.785 158.472C181.169 157.811 181.692 157.293 182.353 156.92C183.025 156.547 183.788 156.36 184.641 156.36C185.473 156.36 186.215 156.541 186.865 156.904C187.516 157.267 188.028 157.779 188.401 158.44C188.775 159.101 188.961 159.88 188.961 160.776C188.961 160.861 188.956 160.957 188.945 161.064C188.945 161.171 188.94 161.272 188.929 161.368H181.809V160.04H187.873L187.089 160.456C187.1 159.965 186.999 159.533 186.785 159.16C186.572 158.787 186.279 158.493 185.905 158.28C185.543 158.067 185.121 157.96 184.641 157.96C184.151 157.96 183.719 158.067 183.345 158.28C182.983 158.493 182.695 158.792 182.481 159.176C182.279 159.549 182.177 159.992 182.177 160.504V160.824C182.177 161.336 182.295 161.789 182.529 162.184C182.764 162.579 183.095 162.883 183.521 163.096C183.948 163.309 184.439 163.416 184.993 163.416C185.473 163.416 185.905 163.341 186.289 163.192C186.673 163.043 187.015 162.808 187.313 162.488L188.385 163.72C188.001 164.168 187.516 164.515 186.929 164.76C186.353 164.995 185.692 165.112 184.945 165.112ZM193.522 165.112C192.808 165.112 192.12 165.021 191.458 164.84C190.808 164.648 190.29 164.419 189.906 164.152L190.674 162.632C191.058 162.877 191.517 163.08 192.05 163.24C192.584 163.4 193.117 163.48 193.65 163.48C194.28 163.48 194.733 163.395 195.01 163.224C195.298 163.053 195.442 162.824 195.442 162.536C195.442 162.301 195.346 162.125 195.154 162.008C194.962 161.88 194.712 161.784 194.402 161.72C194.093 161.656 193.746 161.597 193.362 161.544C192.989 161.491 192.61 161.421 192.226 161.336C191.853 161.24 191.512 161.107 191.202 160.936C190.893 160.755 190.642 160.515 190.45 160.216C190.258 159.917 190.162 159.523 190.162 159.032C190.162 158.488 190.317 158.019 190.626 157.624C190.936 157.219 191.368 156.909 191.922 156.696C192.488 156.472 193.154 156.36 193.922 156.36C194.498 156.36 195.08 156.424 195.666 156.552C196.253 156.68 196.738 156.861 197.122 157.096L196.354 158.616C195.949 158.371 195.538 158.205 195.122 158.12C194.717 158.024 194.312 157.976 193.906 157.976C193.298 157.976 192.845 158.067 192.546 158.248C192.258 158.429 192.114 158.659 192.114 158.936C192.114 159.192 192.21 159.384 192.402 159.512C192.594 159.64 192.845 159.741 193.154 159.816C193.464 159.891 193.805 159.955 194.178 160.008C194.562 160.051 194.941 160.12 195.314 160.216C195.688 160.312 196.029 160.445 196.338 160.616C196.658 160.776 196.914 161.005 197.106 161.304C197.298 161.603 197.394 161.992 197.394 162.472C197.394 163.005 197.234 163.469 196.914 163.864C196.605 164.259 196.162 164.568 195.586 164.792C195.01 165.005 194.322 165.112 193.522 165.112ZM202.333 165.112C201.394 165.112 200.669 164.872 200.157 164.392C199.645 163.901 199.389 163.181 199.389 162.232V154.568H201.389V162.184C201.389 162.589 201.49 162.904 201.693 163.128C201.906 163.352 202.199 163.464 202.573 163.464C203.021 163.464 203.394 163.347 203.693 163.112L204.253 164.536C204.018 164.728 203.73 164.872 203.389 164.968C203.047 165.064 202.695 165.112 202.333 165.112ZM197.981 158.12V156.52H203.677V158.12H197.981ZM206.446 168.216C206.03 168.216 205.614 168.147 205.198 168.008C204.782 167.869 204.435 167.677 204.158 167.432L204.958 165.96C205.16 166.141 205.39 166.285 205.646 166.392C205.902 166.499 206.163 166.552 206.43 166.552C206.792 166.552 207.086 166.461 207.31 166.28C207.534 166.099 207.742 165.795 207.934 165.368L208.43 164.248L208.59 164.008L211.822 156.456H213.742L209.742 165.688C209.475 166.328 209.176 166.835 208.846 167.208C208.526 167.581 208.163 167.843 207.758 167.992C207.363 168.141 206.926 168.216 206.446 168.216ZM208.206 165.304L204.35 156.456H206.43L209.566 163.832L208.206 165.304Z" fill="#0F52BA"/>
<path d="M94.2266 196.801V198.227C94.207 199.906 94.207 202.094 93.7383 205.043L91.2773 204.848C91.6777 202.27 91.7168 200.365 91.7461 198.793H85.0078V196.801H94.2266ZM89.793 201.898V207.055C91.541 206.986 93.3184 206.859 94.9492 206.645L95.1055 208.5C91.4531 209.125 87.4102 209.184 84.3047 209.164L84.0703 207.172C85.0664 207.162 86.1797 207.162 87.332 207.133V201.898H89.793ZM98.3086 195.023V202.172H100.73V204.242H98.3086V212.797H95.7891V195.023H98.3086ZM116.395 195.043V205.473H113.895V195.043H116.395ZM110.34 205.805C114.07 205.805 116.434 207.094 116.453 209.301C116.434 211.508 114.07 212.797 110.34 212.797C106.531 212.797 104.227 211.508 104.227 209.301C104.227 207.094 106.531 205.805 110.34 205.805ZM110.34 207.758C107.977 207.738 106.727 208.227 106.727 209.301C106.727 210.336 107.977 210.863 110.34 210.863C112.684 210.863 113.992 210.336 113.992 209.301C113.992 208.227 112.684 207.738 110.34 207.758ZM106.648 196.039C109.422 196.039 111.512 197.816 111.512 200.297C111.512 202.777 109.422 204.555 106.648 204.555C103.875 204.555 101.785 202.777 101.785 200.297C101.785 197.816 103.875 196.039 106.648 196.039ZM106.648 198.129C105.223 198.129 104.207 198.91 104.227 200.297C104.207 201.684 105.223 202.445 106.648 202.465C108.035 202.445 109.051 201.684 109.051 200.297C109.051 198.91 108.035 198.129 106.648 198.129ZM130.34 198.539C130.34 200.668 131.648 202.836 134.578 203.715L133.309 205.668C131.316 205.043 129.91 203.764 129.109 202.152C128.299 203.9 126.854 205.307 124.773 206L123.484 204.047C126.434 203.09 127.801 200.785 127.801 198.539V198.285H124.148V196.293H133.914V198.285H130.34V198.539ZM138.289 195.043V207.895H135.789V195.043H138.289ZM138.758 210.492V212.484H126.375V206.723H128.895V210.492H138.758ZM156.961 208.773V210.824H140.691V208.773H144.852V206.059H142.566V200.082H152.625V198.168H142.547V196.176H155.086V202.074H145.066V204.047H155.496V206.059H152.977V208.773H156.961ZM147.273 208.773H150.535V206.059H147.273V208.773ZM166.863 205.414V207.191H168.777V205.414H171.082V210.805C173.055 209.926 173.895 208.266 173.895 206.645V205.277H176.395V206.645C176.375 208.461 177.254 210.18 179.48 210.902L178.191 212.758C176.658 212.23 175.672 211.215 175.105 209.945C174.51 211.176 173.533 212.201 172.098 212.758L171.082 211.215V212.602H164.559V205.414H166.863ZM166.863 210.707H168.777V209.027H166.863V210.707ZM167.547 195.688C169.812 195.688 171.619 196.947 172.117 198.832H175.086V195.023H177.566V204.438H175.086V200.883H172.117C171.639 202.807 169.822 204.086 167.547 204.086C164.812 204.086 162.801 202.348 162.82 199.867C162.801 197.426 164.812 195.688 167.547 195.688ZM167.547 197.738C166.16 197.738 165.164 198.559 165.184 199.867C165.164 201.215 166.16 202.035 167.547 202.055C168.895 202.035 169.871 201.215 169.871 199.867C169.871 198.559 168.895 197.738 167.547 197.738ZM194.305 199.867V201.82H181.883V195.648H184.363V199.867H194.305ZM196.121 203.734V205.688H179.852V203.734H196.121ZM194.422 210.414V212.406H181.727V207.133H184.227V210.414H194.422ZM215.789 195.023V201.664H218.406V203.754H215.789V212.797H213.289V195.023H215.789ZM204.812 196.43V200.766H208.504V196.43H210.984V208.676H202.332V196.43H204.812ZM204.812 206.664H208.504V202.699H204.812V206.664ZM235.301 204.633V206.625H219.031V204.633H235.301ZM233.719 210.492V212.484H221.082V207.602H223.582V210.492H233.719ZM233.328 195.434V200.336H223.543V201.605H233.66V203.48H221.062V198.559H230.828V197.348H221.023V195.434H233.328ZM255.809 195.023V212.797H253.309V195.023H255.809ZM247.898 200.59C247.898 203.168 249.363 206.078 252.312 207.289L250.965 209.203C248.943 208.373 247.498 206.674 246.688 204.633C245.896 206.801 244.441 208.617 242.371 209.477L241.043 207.562C243.973 206.293 245.418 203.305 245.418 200.59V199.906H241.629V197.914H245.398V195.414H247.879V197.914H251.59V199.906H247.898V200.59ZM274.5 208.773V210.824H258.23V208.773H262.391V206.059H260.105V200.082H270.164V198.168H260.086V196.176H272.625V202.074H262.605V204.047H273.035V206.059H270.516V208.773H274.5ZM264.812 208.773H268.074V206.059H264.812V208.773Z" fill="#1A1A1A"/>
<path d="M58.8594 237.547V238.766H65.3438V237.547H66.8281V242.188H57.3906V237.547H58.8594ZM58.8594 241.062H65.3438V239.859H58.8594V241.062ZM68.4844 243.203V244.406H62.8281V245.609H66.875V248.875H58.7188V250.047H67.2656V251.188H57.2656V247.812H65.4062V246.719H57.25V245.609H61.3438V244.406H55.7188V243.203H68.4844ZM81.1875 237.328V244.562H79.6875V237.328H81.1875ZM81.1875 245.203V248.672H73.3906V250H81.6719V251.188H71.9375V247.594H79.7188V246.375H71.8906V245.203H81.1875ZM77.7656 238.25V239.422H76.4219V242.734C77.1016 242.688 77.7734 242.625 78.4062 242.547L78.4688 243.625C75.6719 244.047 72.4062 244.141 69.9531 244.141L69.7812 242.953L71.4844 242.938V239.422H70.1562V238.25H77.7656ZM72.9062 242.906C73.5938 242.883 74.2969 242.859 75 242.812V239.422H72.9062V242.906ZM96.1875 248.344V249.578H83.375V248.344H86.4375V244.688C85.2891 244.055 84.5938 243.047 84.5938 241.797C84.5938 239.594 86.75 238.141 89.75 238.141C92.7656 238.141 94.9219 239.594 94.9219 241.797C94.9219 243.031 94.25 244.023 93.125 244.656V248.344H96.1875ZM89.75 239.328C87.5469 239.328 86.0312 240.281 86.0312 241.797C86.0312 243.297 87.5469 244.281 89.75 244.281C91.9375 244.281 93.4844 243.297 93.4844 241.797C93.4844 240.281 91.9375 239.328 89.75 239.328ZM87.9062 248.344H91.625V245.219C91.0547 245.367 90.4219 245.438 89.75 245.438C89.0938 245.438 88.4688 245.367 87.9062 245.234V248.344ZM108.203 237.344V241.844H110.234V243.078H108.203V247.812H106.719V237.344H108.203ZM105.562 238.969V240.172H97.2188V238.969H100.656V237.328H102.141V238.969H105.562ZM101.391 240.844C103.406 240.844 104.781 241.891 104.781 243.484C104.781 245.078 103.406 246.109 101.391 246.109C99.3594 246.109 97.9844 245.078 97.9844 243.484C97.9844 241.891 99.3594 240.844 101.391 240.844ZM101.391 241.984C100.203 241.984 99.4062 242.562 99.4219 243.484C99.4062 244.391 100.203 244.953 101.391 244.953C102.578 244.953 103.375 244.391 103.391 243.484C103.375 242.562 102.578 241.984 101.391 241.984ZM108.797 249.828V251.031H99.3281V246.984H100.812V249.828H108.797ZM122.172 238.203C122.172 241.766 119.734 244.297 115.672 245.438L115.062 244.281C118.289 243.375 120.297 241.625 120.594 239.422H115.797V238.203H122.172ZM126.609 237.344V245.266H125.125V242.078H122.234V240.844H125.125V237.344H126.609ZM126.609 245.844V251.141H117.453V245.844H126.609ZM118.906 247.031V249.953H125.141V247.031H118.906ZM133.625 240.891C133.609 243.375 135.047 245.906 137.141 246.922L136.219 248.109C134.695 247.32 133.516 245.75 132.906 243.875C132.273 245.875 131.047 247.547 129.453 248.375L128.531 247.172C130.688 246.141 132.141 243.453 132.141 240.891V238.5H133.625V240.891ZM139.672 237.328V242.906H141.922V244.172H139.672V251.328H138.188V237.328H139.672ZM153.922 241.422V242.609H144.281V237.828H145.75V241.422H153.922ZM155.391 244.375V245.562H142.578V244.375H155.391ZM154.016 249.781V251H144.172V246.891H145.656V249.781H154.016ZM172.047 237.344V247.906H170.547V246.078H167.578V244.891H170.547V237.344H172.047ZM172.391 249.828V251.031H162.281V246.766H163.766V249.828H172.391ZM160.234 242.797C161.984 242.789 164.18 242.766 166.344 242.625C166.578 241.211 166.641 240.109 166.656 239.328H161.5V238.125H168.141V238.672C168.141 239.43 168.141 240.727 167.844 242.5C168.359 242.453 168.867 242.398 169.359 242.328L169.469 243.406C168.211 243.625 166.906 243.758 165.625 243.844V247H164.141V243.922C162.805 243.984 161.539 244 160.438 244L160.234 242.797ZM185.062 237.328V243H187.312V244.234H185.062V251.328H183.594V237.328H185.062ZM182.375 239.516V240.734H174.078V239.516H177.531V237.516H179.016V239.516H182.375ZM178.281 241.766C180.281 241.766 181.75 243.109 181.766 245.016C181.75 246.938 180.281 248.266 178.281 248.281C176.266 248.266 174.797 246.938 174.797 245.016C174.797 243.109 176.266 241.766 178.281 241.766ZM178.281 242.984C177.094 242.984 176.203 243.812 176.219 245.016C176.203 246.234 177.094 247.047 178.281 247.031C179.469 247.047 180.344 246.234 180.344 245.016C180.344 243.812 179.469 242.984 178.281 242.984ZM193.141 241.453C193.141 243.797 194.672 246.219 196.828 247.141L196.016 248.297C194.367 247.57 193.055 246.031 192.406 244.156C191.758 246.156 190.438 247.859 188.812 248.656L187.953 247.484C190.062 246.5 191.625 243.859 191.641 241.453V239.969H188.438V238.734H196.328V239.969H193.141V241.453ZM199.578 237.328V251.328H198.094V237.328H199.578ZM209.609 238.078C211.734 238.078 213.281 239.438 213.281 241.328C213.281 243.234 211.734 244.578 209.609 244.578C207.5 244.578 205.922 243.234 205.938 241.328C205.922 239.438 207.5 238.078 209.609 238.078ZM209.609 239.312C208.344 239.312 207.375 240.141 207.375 241.328C207.375 242.516 208.344 243.359 209.609 243.359C210.891 243.359 211.844 242.516 211.844 241.328C211.844 240.141 210.891 239.312 209.609 239.312ZM216.719 237.328V240.391H218.75V241.625H216.719V244.297H215.234V237.328H216.719ZM208.578 245.75V249.734C209.398 249.695 210.344 249.578 211.234 249.281L211.453 250.453C210.156 250.891 208.891 250.953 207.844 250.953H207.125V245.75H208.578ZM218.031 245.797V246.938H210.969V245.797H213.797V244.656H215.25V245.797H218.031ZM214.5 247.344C216.047 247.344 217.141 248.125 217.141 249.344C217.141 250.547 216.047 251.312 214.5 251.297C212.922 251.312 211.844 250.547 211.859 249.344C211.844 248.125 212.922 247.344 214.5 247.344ZM214.5 248.406C213.719 248.406 213.172 248.766 213.172 249.344C213.172 249.906 213.719 250.266 214.5 250.266C215.266 250.266 215.812 249.906 215.812 249.344C215.812 248.766 215.266 248.406 214.5 248.406ZM230.875 238.672V240.047C230.875 241.781 230.875 243.719 230.344 246.578L228.844 246.422C229.391 243.719 229.391 241.734 229.391 240.047V239.875H220.891V238.672H230.875ZM232.312 248.203V249.438H219.547V248.203H224.406V243.266H225.875V248.203H232.312ZM235.891 248.922L234.641 253.234H233.312L234.141 248.922H235.891ZM252.391 237.328V242.125H254.391V243.359H252.391V248.266H250.906V237.328H252.391ZM252.891 249.828V251.031H243.344V247.531H244.828V249.828H252.891ZM241.281 245.547C242.359 245.547 243.617 245.539 244.938 245.484V244.516C243.344 244.344 242.328 243.57 242.344 242.422C242.328 241.062 243.656 240.25 245.672 240.266C247.672 240.25 249 241.062 249 242.422C249 243.562 248 244.336 246.422 244.516V245.422C247.672 245.352 248.938 245.242 250.109 245.062L250.234 246.109C247.25 246.672 243.875 246.719 241.438 246.734L241.281 245.547ZM249.719 238.625V239.719H241.641V238.625H244.938V237.281H246.422V238.625H249.719ZM245.672 241.281C244.469 241.281 243.75 241.703 243.75 242.422C243.75 243.109 244.469 243.531 245.672 243.531C246.859 243.531 247.578 243.109 247.578 242.422C247.578 241.703 246.859 241.281 245.672 241.281ZM260.078 241.453C260.078 243.672 261.531 246.141 263.656 247.141L262.812 248.297C261.242 247.539 260 245.961 259.375 244.125C258.727 246.133 257.414 247.859 255.812 248.656L254.938 247.484C257.062 246.469 258.609 243.828 258.609 241.453V239.969H255.453V238.734H263.125V239.969H260.078V241.453ZM266.109 237.328V242.875H268.359V244.125H266.109V251.328H264.625V237.328H266.109ZM281.828 244.656V245.844H276.266V248.422H274.797V245.844H269.016V244.656H281.828ZM280.406 249.828V251.031H270.609V247.203H272.078V249.828H280.406ZM272.172 237.766V239.469H278.656V237.766H280.141V243.422H270.703V237.766H272.172ZM272.172 242.234H278.656V240.578H272.172V242.234ZM287.422 238.328C289.641 238.312 291.219 239.688 291.234 241.656C291.219 243.625 289.641 245 287.422 245C285.219 245 283.594 243.625 283.609 241.656C283.594 239.688 285.219 238.312 287.422 238.328ZM287.422 239.609C286.062 239.609 285.062 240.422 285.078 241.656C285.062 242.891 286.062 243.703 287.422 243.703C288.781 243.703 289.781 242.891 289.781 241.656C289.781 240.422 288.781 239.609 287.422 239.609ZM294.438 237.328V251.359H292.953V237.328H294.438ZM282.938 247.109C285.484 247.109 289.016 247.078 292.078 246.641L292.188 247.719C289.016 248.328 285.625 248.344 283.125 248.344L282.938 247.109ZM83.3359 265.562C83.3359 267.406 84.6172 269.109 86.7109 269.797L85.9141 270.969C84.3828 270.43 83.2344 269.336 82.6328 267.953C82.0156 269.523 80.8281 270.75 79.1953 271.359L78.3984 270.172C80.5859 269.391 81.8516 267.531 81.8672 265.438V264.062H83.3359V265.562ZM89.5078 263.328V266.844H91.5391V268.094H89.5078V271.781H88.0234V263.328H89.5078ZM84.9922 272.109C87.8672 272.109 89.6328 273.062 89.6328 274.703C89.6328 276.359 87.8672 277.312 84.9922 277.297C82.0859 277.312 80.2891 276.359 80.2891 274.703C80.2891 273.062 82.0859 272.109 84.9922 272.109ZM84.9922 273.281C82.9609 273.281 81.7578 273.812 81.7734 274.703C81.7578 275.625 82.9609 276.125 84.9922 276.141C87.0078 276.125 88.1797 275.625 88.1797 274.703C88.1797 273.812 87.0078 273.281 84.9922 273.281ZM98.4766 264.891V266.078H94.2891V268.578H98.2422V269.75H94.2891V272.703C96.1797 272.695 97.4297 272.617 98.9141 272.375L99.0391 273.594C97.3984 273.891 96.0391 273.953 93.8047 273.953H92.8672V264.891H98.4766ZM104.383 263.328V277.328H102.961V270.094H101.273V276.641H99.8516V263.594H101.273V268.891H102.961V263.328H104.383ZM118.211 263.328V277.328H116.789V263.328H118.211ZM115.367 263.594V276.641H113.945V269.891H112.367C112.242 272.625 111.07 274.328 109.336 274.312C107.508 274.328 106.32 272.406 106.32 269.375C106.32 266.344 107.508 264.438 109.336 264.453C111.039 264.438 112.195 266.055 112.367 268.688H113.945V263.594H115.367ZM109.336 265.844C108.32 265.844 107.695 267.141 107.695 269.375C107.695 271.609 108.32 272.906 109.336 272.906C110.367 272.906 111.008 271.609 111.008 269.375C111.008 267.141 110.367 265.844 109.336 265.844ZM135.273 263.938V264.625C135.273 265.516 135.273 266.938 134.867 268.812L133.414 268.641C133.75 267.109 133.805 265.969 133.836 265.125H130.445V263.938H135.273ZM136.648 269.891V271.094H123.914V269.891H129.82V267.188H131.289V269.891H136.648ZM135.07 272.469V277.25H133.555V273.672H125.305V272.469H135.07ZM129.305 263.938V264.453C129.289 265.297 129.289 266.797 128.617 268.828L127.195 268.625C127.695 267.078 127.812 265.93 127.852 265.125H124.992V263.938H129.305ZM153.273 263.328V270.562H151.773V263.328H153.273ZM153.273 271.203V274.672H145.477V276H153.758V277.188H144.023V273.594H151.805V272.375H143.977V271.203H153.273ZM149.852 264.25V265.422H148.508V268.734C149.188 268.688 149.859 268.625 150.492 268.547L150.555 269.625C147.758 270.047 144.492 270.141 142.039 270.141L141.867 268.953L143.57 268.938V265.422H142.242V264.25H149.852ZM144.992 268.906C145.68 268.883 146.383 268.859 147.086 268.812V265.422H144.992V268.906ZM168.273 274.344V275.578H155.461V274.344H158.523V270.688C157.375 270.055 156.68 269.047 156.68 267.797C156.68 265.594 158.836 264.141 161.836 264.141C164.852 264.141 167.008 265.594 167.008 267.797C167.008 269.031 166.336 270.023 165.211 270.656V274.344H168.273ZM161.836 265.328C159.633 265.328 158.117 266.281 158.117 267.797C158.117 269.297 159.633 270.281 161.836 270.281C164.023 270.281 165.57 269.297 165.57 267.797C165.57 266.281 164.023 265.328 161.836 265.328ZM159.992 274.344H163.711V271.219C163.141 271.367 162.508 271.438 161.836 271.438C161.18 271.438 160.555 271.367 159.992 271.234V274.344ZM180.289 263.344V267.844H182.32V269.078H180.289V273.812H178.805V263.344H180.289ZM177.648 264.969V266.172H169.305V264.969H172.742V263.328H174.227V264.969H177.648ZM173.477 266.844C175.492 266.844 176.867 267.891 176.867 269.484C176.867 271.078 175.492 272.109 173.477 272.109C171.445 272.109 170.07 271.078 170.07 269.484C170.07 267.891 171.445 266.844 173.477 266.844ZM173.477 267.984C172.289 267.984 171.492 268.562 171.508 269.484C171.492 270.391 172.289 270.953 173.477 270.953C174.664 270.953 175.461 270.391 175.477 269.484C175.461 268.562 174.664 267.984 173.477 267.984ZM180.883 275.828V277.031H171.414V272.984H172.898V275.828H180.883ZM198.617 263.328V277.328H197.133V263.328H198.617ZM192.289 267.828C192.289 270.062 193.773 272.344 195.945 273.266L195.133 274.406C193.523 273.703 192.234 272.25 191.586 270.484C190.953 272.352 189.688 273.906 188.055 274.641L187.227 273.5C189.398 272.531 190.836 270.172 190.836 267.828V266.906H187.648V265.719H190.82V263.609H192.289V265.719H195.43V266.906H192.289V267.828ZM213.664 274.406V275.656H200.852V274.406H204.352V271.938H202.414V267.484H210.633V265.531H202.383V264.312H212.102V268.688H203.883V270.719H212.43V271.938H210.305V274.406H213.664ZM205.789 274.406H208.852V271.938H205.789V274.406ZM226.383 264.828V265.688C226.383 266.859 226.383 268.672 225.977 271.172L224.508 271.062C224.859 268.82 224.898 267.203 224.914 266.031H219.227V264.828H226.383ZM222.789 268.828V273.016C224.281 272.969 225.797 272.867 227.195 272.688L227.273 273.797C224.352 274.266 221.102 274.328 218.617 274.312L218.445 273.109C219.32 273.102 220.297 273.094 221.32 273.062V268.828H222.789ZM229.492 263.328V269.109H231.633V270.375H229.492V277.328H227.992V263.328H229.492ZM244.086 263.328V271.656H242.602V268.109H239.992V266.891H242.602V263.328H244.086ZM239.398 272.047C242.336 272.047 244.133 273.016 244.133 274.688C244.133 276.359 242.336 277.312 239.398 277.328C236.461 277.312 234.648 276.359 234.664 274.688C234.648 273.016 236.461 272.047 239.398 272.047ZM239.398 273.203C237.352 273.203 236.133 273.734 236.133 274.688C236.133 275.625 237.352 276.172 239.398 276.156C241.445 276.172 242.664 275.625 242.664 274.688C242.664 273.734 241.445 273.203 239.398 273.203ZM237.43 265.797C237.43 267.578 238.695 269.297 240.805 270.016L240.039 271.188C238.469 270.641 237.312 269.523 236.711 268.141C236.094 269.711 234.867 270.969 233.195 271.578L232.414 270.391C234.586 269.641 235.914 267.75 235.914 265.812V265.5H232.883V264.297H240.43V265.5H237.43V265.797ZM253.336 264.562V271.094H246.789V264.562H253.336ZM248.242 265.766V269.922H251.883V265.766H248.242ZM257.242 263.312V267.5H259.273V268.75H257.242V273.578H255.758V263.312H257.242ZM257.836 275.828V277.031H248.367V272.594H249.852V275.828H257.836ZM266.445 263.562C269.602 263.562 271.445 264.406 271.445 265.969C271.445 267.531 269.602 268.391 266.445 268.391C263.289 268.391 261.445 267.531 261.445 265.969C261.445 264.406 263.289 263.562 266.445 263.562ZM266.445 264.656C264.211 264.656 262.977 265.141 262.992 265.969C262.977 266.828 264.211 267.281 266.445 267.281C268.68 267.281 269.914 266.828 269.914 265.969C269.914 265.141 268.68 264.656 266.445 264.656ZM272.836 269.25V270.438H260.07V269.25H272.836ZM271.227 271.516V274.797H263.07V276.047H271.617V277.188H261.617V273.719H269.758V272.625H261.602V271.516H271.227Z" fill="#555555"/>
<path d="M122.242 297.562V299.188H116.695V303.359H114.727V299.188H109.227V297.562H122.242ZM120.852 294.953V296.531H110.867V289.719H120.695V291.281H112.82V292.344H120.398V293.875H112.82V294.953H120.852ZM135.055 289.141V297.469H133.07V295.656H130.414V296.688H123.664V290.188H130.414V291.219H133.07V289.141H135.055ZM125.648 291.766V295.109H128.461V291.766H125.648ZM130.195 297.844C133.227 297.844 135.086 298.859 135.102 300.609C135.086 302.359 133.227 303.359 130.195 303.359C127.164 303.359 125.305 302.359 125.305 300.609C125.305 298.859 127.164 297.844 130.195 297.844ZM130.195 299.359C128.305 299.359 127.289 299.766 127.289 300.609C127.289 301.422 128.305 301.844 130.195 301.844C132.086 301.844 133.117 301.422 133.117 300.609C133.117 299.766 132.086 299.359 130.195 299.359ZM130.414 294.047H133.07V292.797H130.414V294.047ZM148.117 289.141V294.703H150.211V296.344H148.117V303.359H146.148V289.141H148.117ZM145.18 291.266V292.859H136.82V291.266H140.039V289.359H142.039V291.266H145.18ZM141.039 293.656C143.117 293.656 144.664 295.062 144.664 297.047C144.664 299.031 143.117 300.438 141.039 300.438C138.945 300.438 137.398 299.031 137.398 297.047C137.398 295.062 138.945 293.656 141.039 293.656ZM141.039 295.266C140.039 295.281 139.305 295.953 139.305 297.047C139.305 298.156 140.039 298.812 141.039 298.797C142.039 298.812 142.758 298.156 142.758 297.047C142.758 295.953 142.039 295.281 141.039 295.266ZM163.055 289.141V303.359H161.18V289.141H163.055ZM160.023 289.453V302.734H158.164V296.203H155.836C155.023 297.828 153.703 299.234 151.68 300.406L150.555 299C153.422 297.297 154.688 295.227 154.961 292.438H151.336V290.828H156.945C156.938 292.18 156.797 293.453 156.461 294.625H158.164V289.453H160.023Z" fill="#1A1A1A"/>
<path d="M180.352 289.25V303.25H178.93V289.25H180.352ZM177.508 289.547V302.547H176.102V295.422H173.93V294.203H176.102V289.547H177.508ZM172.555 293.156C172.555 295.547 173.523 297.938 175.492 299.078L174.602 300.172C173.266 299.375 172.344 297.961 171.867 296.266C171.359 298.094 170.406 299.648 169.039 300.5L168.133 299.391C170.117 298.188 171.133 295.641 171.133 293.156V292.031H168.555V290.828H174.961V292.031H172.555V293.156ZM193.164 289.234V293.422H195.195V294.672H193.164V299.531H191.68V289.234H193.164ZM193.758 301.75V302.953H184.289V298.453H185.773V301.75H193.758ZM186.102 290.203C188.211 290.203 189.82 291.641 189.836 293.688C189.82 295.719 188.211 297.172 186.102 297.172C183.992 297.172 182.367 295.719 182.383 293.688C182.367 291.641 183.992 290.203 186.102 290.203ZM186.102 291.5C184.82 291.5 183.82 292.391 183.836 293.688C183.82 294.984 184.82 295.875 186.102 295.875C187.398 295.875 188.383 294.984 188.383 293.688C188.383 292.391 187.398 291.5 186.102 291.5ZM206.992 289.25V292.766H209.023V294.016H206.992V297.406H205.508V289.25H206.992ZM199.508 297.984V299.344H205.508V297.984H206.992V303.078H198.039V297.984H199.508ZM199.508 301.891H205.508V300.5H199.508V301.891ZM204.352 290.625V291.812H196.008V290.625H199.445V289.125H200.93V290.625H204.352ZM200.18 292.391C202.195 292.391 203.57 293.344 203.57 294.844C203.57 296.328 202.195 297.312 200.18 297.297C198.133 297.312 196.773 296.328 196.773 294.844C196.773 293.344 198.133 292.391 200.18 292.391ZM200.18 293.5C198.992 293.484 198.195 294.031 198.211 294.844C198.195 295.672 198.992 296.203 200.18 296.203C201.367 296.203 202.164 295.672 202.18 294.844C202.164 294.031 201.367 293.484 200.18 293.5ZM221.445 289.25V303.25H219.961V289.25H221.445ZM212.148 290.609V298.406C214.188 298.391 216.336 298.227 218.586 297.766L218.789 299.016C216.305 299.516 214.055 299.688 211.852 299.688H210.68V290.609H212.148ZM234.555 289.25V294.672H236.805V295.891H234.555V303.281H233.07V289.25H234.555ZM230.789 290.594V291.797H225.727V298.562C228.078 298.555 229.844 298.453 231.836 298.094L232.023 299.344C229.836 299.734 227.977 299.812 225.367 299.797H224.242V290.594H230.789ZM239.07 302.031C238.461 302.031 237.945 301.531 237.961 300.922C237.945 300.312 238.461 299.812 239.07 299.812C239.664 299.812 240.18 300.312 240.18 300.922C240.18 301.531 239.664 302.031 239.07 302.031Z" fill="#555555"/>
<g filter="url(#filter1_dd_86_733)">
<path d="M139 83C139 60.9086 156.909 43 179 43C201.091 43 219 60.9086 219 83C219 105.091 201.091 123 179 123C156.909 123 139 105.091 139 83Z" fill="white" shape-rendering="crispEdges"/>
<path d="M184 66.3333H174C173.08 66.3333 172.333 67.0794 172.333 67.9999V71.3333C172.333 72.2537 173.08 72.9999 174 72.9999H184C184.921 72.9999 185.667 72.2537 185.667 71.3333V67.9999C185.667 67.0794 184.921 66.3333 184 66.3333Z" stroke="#0F52BA" stroke-width="3.33333" stroke-linecap="round" stroke-linejoin="round"/>
<path d="M185.667 69.6667H189C189.884 69.6667 190.732 70.0179 191.357 70.6431C191.982 71.2682 192.333 72.116 192.333 73.0001V96.3334C192.333 97.2175 191.982 98.0653 191.357 98.6904C190.732 99.3156 189.884 99.6667 189 99.6667H169C168.116 99.6667 167.268 99.3156 166.643 98.6904C166.018 98.0653 165.667 97.2175 165.667 96.3334V73.0001C165.667 72.116 166.018 71.2682 166.643 70.6431C167.268 70.0179 168.116 69.6667 169 69.6667H172.333" stroke="#0F52BA" stroke-width="3.33333" stroke-linecap="round" stroke-linejoin="round"/>
<path d="M174 86.3333L177.333 89.6667L184 83" stroke="#0F52BA" stroke-width="3.33333" stroke-linecap="round" stroke-linejoin="round"/>
</g>
</g>
<defs>
<filter id="filter0_dd_86_733" x="0" y="0" width="358" height="355" filterUnits="userSpaceOnUse" color-interpolation-filters="sRGB">
<feFlood flood-opacity="0" result="BackgroundImageFix"/>
<feColorMatrix in="SourceAlpha" type="matrix" values="0 0 0 0 0 0 0 0 0 0 0 0 0 0 0 0 0 0 127 0" result="hardAlpha"/>
<feMorphology radius="1" operator="erode" in="SourceAlpha" result="effect1_dropShadow_86_733"/>
<feOffset dy="1"/>
<feGaussianBlur stdDeviation="1"/>
<feComposite in2="hardAlpha" operator="out"/>
<feColorMatrix type="matrix" values="0 0 0 0 0 0 0 0 0 0 0 0 0 0 0 0 0 0 0.1 0"/>
<feBlend mode="normal" in2="BackgroundImageFix" result="effect1_dropShadow_86_733"/>
<feColorMatrix in="SourceAlpha" type="matrix" values="0 0 0 0 0 0 0 0 0 0 0 0 0 0 0 0 0 0 127 0" result="hardAlpha"/>
<feOffset dy="1"/>
<feGaussianBlur stdDeviation="1.5"/>
<feComposite in2="hardAlpha" operator="out"/>
<feColorMatrix type="matrix" values="0 0 0 0 0 0 0 0 0 0 0 0 0 0 0 0 0 0 0.1 0"/>
<feBlend mode="normal" in2="effect1_dropShadow_86_733" result="effect2_dropShadow_86_733"/>
<feBlend mode="normal" in="SourceGraphic" in2="effect2_dropShadow_86_733" result="shape"/>
</filter>
<filter id="filter1_dd_86_733" x="134" y="42" width="90" height="90" filterUnits="userSpaceOnUse" color-interpolation-filters="sRGB">
<feFlood flood-opacity="0" result="BackgroundImageFix"/>
<feColorMatrix in="SourceAlpha" type="matrix" values="0 0 0 0 0 0 0 0 0 0 0 0 0 0 0 0 0 0 127 0" result="hardAlpha"/>
<feMorphology radius="2" operator="erode" in="SourceAlpha" result="effect1_dropShadow_86_733"/>
<feOffset dy="2"/>
<feGaussianBlur stdDeviation="2"/>
<feComposite in2="hardAlpha" operator="out"/>
<feColorMatrix type="matrix" values="0 0 0 0 0 0 0 0 0 0 0 0 0 0 0 0 0 0 0.1 0"/>
<feBlend mode="normal" in2="BackgroundImageFix" result="effect1_dropShadow_86_733"/>
<feColorMatrix in="SourceAlpha" type="matrix" values="0 0 0 0 0 0 0 0 0 0 0 0 0 0 0 0 0 0 127 0" result="hardAlpha"/>
<feMorphology radius="1" operator="erode" in="SourceAlpha" result="effect2_dropShadow_86_733"/>
<feOffset dy="4"/>
<feGaussianBlur stdDeviation="3"/>
<feComposite in2="hardAlpha" operator="out"/>
<feColorMatrix type="matrix" values="0 0 0 0 0 0 0 0 0 0 0 0 0 0 0 0 0 0 0.1 0"/>
<feBlend mode="normal" in2="effect1_dropShadow_86_733" result="effect2_dropShadow_86_733"/>
<feBlend mode="normal" in="SourceGraphic" in2="effect2_dropShadow_86_733" result="shape"/>
</filter>
</defs>
</svg>
