<svg width="358" height="355" viewBox="0 0 358 355" fill="none" xmlns="http://www.w3.org/2000/svg">
<g filter="url(#filter0_dd_86_748)">
<mask id="path-1-inside-1_86_748" fill="white">
<path d="M3 18C3 9.16344 10.1634 2 19 2H339C347.837 2 355 9.16344 355 18V335C355 343.837 347.837 351 339 351H19C10.1634 351 3 343.837 3 335V18Z"/>
</mask>
<path d="M3 18C3 9.16344 10.1634 2 19 2H339C347.837 2 355 9.16344 355 18V335C355 343.837 347.837 351 339 351H19C10.1634 351 3 343.837 3 335V18Z" fill="white" shape-rendering="crispEdges"/>
<path d="M19 2V3H339V2V1H19V2ZM355 18H354V335H355H356V18H355ZM339 351V350H19V351V352H339V351ZM3 335H4V18H3H2V335H3ZM19 351V350C10.7157 350 4 343.284 4 335H3H2C2 344.389 9.61117 352 19 352V351ZM355 335H354C354 343.284 347.284 350 339 350V351V352C348.389 352 356 344.389 356 335H355ZM339 2V3C347.284 3 354 9.71573 354 18H355H356C356 8.61116 348.389 1 339 1V2ZM19 2V1C9.61116 1 2 8.61116 2 18H3H4C4 9.71573 10.7157 3 19 3V2Z" fill="white" mask="url(#path-1-inside-1_86_748)"/>
<path d="M119.274 165.16C118.421 165.16 117.626 165.021 116.89 164.744C116.165 164.456 115.53 164.056 114.986 163.544C114.453 163.021 114.037 162.408 113.738 161.704C113.439 161 113.29 160.232 113.29 159.4C113.29 158.568 113.439 157.8 113.738 157.096C114.037 156.392 114.458 155.784 115.002 155.272C115.546 154.749 116.181 154.349 116.906 154.072C117.631 153.784 118.426 153.64 119.29 153.64C120.207 153.64 121.045 153.8 121.802 154.12C122.559 154.429 123.199 154.893 123.722 155.512L122.378 156.776C121.973 156.339 121.519 156.013 121.018 155.8C120.517 155.576 119.973 155.464 119.386 155.464C118.799 155.464 118.261 155.56 117.77 155.752C117.29 155.944 116.869 156.216 116.506 156.568C116.154 156.92 115.877 157.336 115.674 157.816C115.482 158.296 115.386 158.824 115.386 159.4C115.386 159.976 115.482 160.504 115.674 160.984C115.877 161.464 116.154 161.88 116.506 162.232C116.869 162.584 117.29 162.856 117.77 163.048C118.261 163.24 118.799 163.336 119.386 163.336C119.973 163.336 120.517 163.229 121.018 163.016C121.519 162.792 121.973 162.456 122.378 162.008L123.722 163.288C123.199 163.896 122.559 164.36 121.802 164.68C121.045 165 120.202 165.16 119.274 165.16ZM129.035 165.112C128.16 165.112 127.381 164.925 126.699 164.552C126.016 164.168 125.477 163.645 125.083 162.984C124.688 162.323 124.491 161.571 124.491 160.728C124.491 159.875 124.688 159.123 125.083 158.472C125.477 157.811 126.016 157.293 126.699 156.92C127.381 156.547 128.16 156.36 129.035 156.36C129.92 156.36 130.704 156.547 131.387 156.92C132.08 157.293 132.619 157.805 133.003 158.456C133.397 159.107 133.595 159.864 133.595 160.728C133.595 161.571 133.397 162.323 133.003 162.984C132.619 163.645 132.08 164.168 131.387 164.552C130.704 164.925 129.92 165.112 129.035 165.112ZM129.035 163.4C129.525 163.4 129.963 163.293 130.347 163.08C130.731 162.867 131.029 162.557 131.243 162.152C131.467 161.747 131.579 161.272 131.579 160.728C131.579 160.173 131.467 159.699 131.243 159.304C131.029 158.899 130.731 158.589 130.347 158.376C129.963 158.163 129.531 158.056 129.051 158.056C128.56 158.056 128.123 158.163 127.739 158.376C127.365 158.589 127.067 158.899 126.843 159.304C126.619 159.699 126.507 160.173 126.507 160.728C126.507 161.272 126.619 161.747 126.843 162.152C127.067 162.557 127.365 162.867 127.739 163.08C128.123 163.293 128.555 163.4 129.035 163.4ZM146.291 156.36C146.974 156.36 147.577 156.493 148.099 156.76C148.633 157.027 149.049 157.437 149.347 157.992C149.646 158.536 149.795 159.24 149.795 160.104V165H147.795V160.36C147.795 159.603 147.63 159.037 147.299 158.664C146.969 158.291 146.494 158.104 145.875 158.104C145.438 158.104 145.049 158.2 144.707 158.392C144.377 158.584 144.115 158.867 143.923 159.24C143.742 159.613 143.651 160.088 143.651 160.664V165H141.651V160.36C141.651 159.603 141.486 159.037 141.155 158.664C140.825 158.291 140.35 158.104 139.731 158.104C139.294 158.104 138.905 158.2 138.563 158.392C138.233 158.584 137.971 158.867 137.779 159.24C137.598 159.613 137.507 160.088 137.507 160.664V165H135.507V156.456H137.411V158.728L137.075 158.056C137.363 157.501 137.779 157.08 138.323 156.792C138.878 156.504 139.507 156.36 140.211 156.36C141.011 156.36 141.705 156.557 142.291 156.952C142.889 157.347 143.283 157.944 143.475 158.744L142.691 158.472C142.969 157.832 143.427 157.32 144.067 156.936C144.707 156.552 145.449 156.36 146.291 156.36ZM163.135 156.36C163.818 156.36 164.42 156.493 164.943 156.76C165.476 157.027 165.892 157.437 166.191 157.992C166.49 158.536 166.639 159.24 166.639 160.104V165H164.639V160.36C164.639 159.603 164.474 159.037 164.143 158.664C163.812 158.291 163.338 158.104 162.719 158.104C162.282 158.104 161.892 158.2 161.551 158.392C161.22 158.584 160.959 158.867 160.767 159.24C160.586 159.613 160.495 160.088 160.495 160.664V165H158.495V160.36C158.495 159.603 158.33 159.037 157.999 158.664C157.668 158.291 157.194 158.104 156.575 158.104C156.138 158.104 155.748 158.2 155.407 158.392C155.076 158.584 154.815 158.867 154.623 159.24C154.442 159.613 154.351 160.088 154.351 160.664V165H152.351V156.456H154.255V158.728L153.919 158.056C154.207 157.501 154.623 157.08 155.167 156.792C155.722 156.504 156.351 156.36 157.055 156.36C157.855 156.36 158.548 156.557 159.135 156.952C159.732 157.347 160.127 157.944 160.319 158.744L159.535 158.472C159.812 157.832 160.271 157.32 160.911 156.936C161.551 156.552 162.292 156.36 163.135 156.36ZM172.811 165.112C172.085 165.112 171.445 164.979 170.891 164.712C170.336 164.435 169.904 164.019 169.595 163.464C169.285 162.899 169.131 162.189 169.131 161.336V156.456H171.131V161.064C171.131 161.832 171.301 162.408 171.643 162.792C171.995 163.165 172.491 163.352 173.131 163.352C173.6 163.352 174.005 163.256 174.347 163.064C174.699 162.872 174.971 162.584 175.163 162.2C175.365 161.816 175.467 161.341 175.467 160.776V156.456H177.467V165H175.563V162.696L175.899 163.4C175.611 163.955 175.189 164.381 174.635 164.68C174.08 164.968 173.472 165.112 172.811 165.112ZM184.933 156.36C185.616 156.36 186.224 156.493 186.757 156.76C187.301 157.027 187.728 157.437 188.037 157.992C188.347 158.536 188.501 159.24 188.501 160.104V165H186.501V160.36C186.501 159.603 186.32 159.037 185.957 158.664C185.605 158.291 185.109 158.104 184.469 158.104C184 158.104 183.584 158.2 183.221 158.392C182.859 158.584 182.576 158.872 182.373 159.256C182.181 159.629 182.085 160.104 182.085 160.68V165H180.085V156.456H181.989V158.76L181.653 158.056C181.952 157.512 182.384 157.096 182.949 156.808C183.525 156.509 184.187 156.36 184.933 156.36ZM191.039 165V156.456H193.039V165H191.039ZM192.047 155.048C191.673 155.048 191.364 154.931 191.119 154.696C190.884 154.461 190.767 154.179 190.767 153.848C190.767 153.507 190.884 153.224 191.119 153C191.364 152.765 191.673 152.648 192.047 152.648C192.42 152.648 192.724 152.76 192.959 152.984C193.204 153.197 193.327 153.469 193.327 153.8C193.327 154.152 193.209 154.451 192.975 154.696C192.74 154.931 192.431 155.048 192.047 155.048ZM199.584 165.112C198.688 165.112 197.888 164.925 197.184 164.552C196.49 164.168 195.946 163.645 195.552 162.984C195.157 162.323 194.96 161.571 194.96 160.728C194.96 159.875 195.157 159.123 195.552 158.472C195.946 157.811 196.49 157.293 197.184 156.92C197.888 156.547 198.688 156.36 199.584 156.36C200.416 156.36 201.146 156.531 201.776 156.872C202.416 157.203 202.901 157.693 203.232 158.344L201.696 159.24C201.44 158.835 201.125 158.536 200.752 158.344C200.389 158.152 199.994 158.056 199.568 158.056C199.077 158.056 198.634 158.163 198.24 158.376C197.845 158.589 197.536 158.899 197.312 159.304C197.088 159.699 196.976 160.173 196.976 160.728C196.976 161.283 197.088 161.763 197.312 162.168C197.536 162.563 197.845 162.867 198.24 163.08C198.634 163.293 199.077 163.4 199.568 163.4C199.994 163.4 200.389 163.304 200.752 163.112C201.125 162.92 201.44 162.621 201.696 162.216L203.232 163.112C202.901 163.752 202.416 164.248 201.776 164.6C201.146 164.941 200.416 165.112 199.584 165.112ZM210.224 165V163.272L210.112 162.904V159.88C210.112 159.293 209.936 158.84 209.584 158.52C209.232 158.189 208.699 158.024 207.984 158.024C207.504 158.024 207.03 158.099 206.56 158.248C206.102 158.397 205.712 158.605 205.392 158.872L204.608 157.416C205.067 157.064 205.611 156.803 206.24 156.632C206.88 156.451 207.542 156.36 208.224 156.36C209.462 156.36 210.416 156.659 211.088 157.256C211.771 157.843 212.112 158.755 212.112 159.992V165H210.224ZM207.536 165.112C206.896 165.112 206.336 165.005 205.856 164.792C205.376 164.568 205.003 164.264 204.736 163.88C204.48 163.485 204.352 163.043 204.352 162.552C204.352 162.072 204.464 161.64 204.688 161.256C204.923 160.872 205.302 160.568 205.824 160.344C206.347 160.12 207.04 160.008 207.904 160.008H210.384V161.336H208.048C207.366 161.336 206.907 161.448 206.672 161.672C206.438 161.885 206.32 162.152 206.32 162.472C206.32 162.835 206.464 163.123 206.752 163.336C207.04 163.549 207.44 163.656 207.952 163.656C208.443 163.656 208.88 163.544 209.264 163.32C209.659 163.096 209.942 162.765 210.112 162.328L210.448 163.528C210.256 164.029 209.91 164.419 209.408 164.696C208.918 164.973 208.294 165.112 207.536 165.112ZM217.895 165.112C216.957 165.112 216.231 164.872 215.719 164.392C215.207 163.901 214.951 163.181 214.951 162.232V154.568H216.951V162.184C216.951 162.589 217.053 162.904 217.255 163.128C217.469 163.352 217.762 163.464 218.135 163.464C218.583 163.464 218.957 163.347 219.255 163.112L219.815 164.536C219.581 164.728 219.293 164.872 218.951 164.968C218.61 165.064 218.258 165.112 217.895 165.112ZM213.543 158.12V156.52H219.239V158.12H213.543ZM221.46 165V156.456H223.46V165H221.46ZM222.468 155.048C222.095 155.048 221.786 154.931 221.54 154.696C221.306 154.461 221.188 154.179 221.188 153.848C221.188 153.507 221.306 153.224 221.54 153C221.786 152.765 222.095 152.648 222.468 152.648C222.842 152.648 223.146 152.76 223.38 152.984C223.626 153.197 223.748 153.469 223.748 153.8C223.748 154.152 223.631 154.451 223.396 154.696C223.162 154.931 222.852 155.048 222.468 155.048ZM229.925 165.112C229.051 165.112 228.272 164.925 227.589 164.552C226.907 164.168 226.368 163.645 225.973 162.984C225.579 162.323 225.381 161.571 225.381 160.728C225.381 159.875 225.579 159.123 225.973 158.472C226.368 157.811 226.907 157.293 227.589 156.92C228.272 156.547 229.051 156.36 229.925 156.36C230.811 156.36 231.595 156.547 232.277 156.92C232.971 157.293 233.509 157.805 233.893 158.456C234.288 159.107 234.485 159.864 234.485 160.728C234.485 161.571 234.288 162.323 233.893 162.984C233.509 163.645 232.971 164.168 232.277 164.552C231.595 164.925 230.811 165.112 229.925 165.112ZM229.925 163.4C230.416 163.4 230.853 163.293 231.237 163.08C231.621 162.867 231.92 162.557 232.133 162.152C232.357 161.747 232.469 161.272 232.469 160.728C232.469 160.173 232.357 159.699 232.133 159.304C231.92 158.899 231.621 158.589 231.237 158.376C230.853 158.163 230.421 158.056 229.941 158.056C229.451 158.056 229.013 158.163 228.629 158.376C228.256 158.589 227.957 158.899 227.733 159.304C227.509 159.699 227.397 160.173 227.397 160.728C227.397 161.272 227.509 161.747 227.733 162.152C227.957 162.557 228.256 162.867 228.629 163.08C229.013 163.293 229.445 163.4 229.925 163.4ZM241.246 156.36C241.929 156.36 242.537 156.493 243.07 156.76C243.614 157.027 244.041 157.437 244.35 157.992C244.659 158.536 244.814 159.24 244.814 160.104V165H242.814V160.36C242.814 159.603 242.633 159.037 242.27 158.664C241.918 158.291 241.422 158.104 240.782 158.104C240.313 158.104 239.897 158.2 239.534 158.392C239.171 158.584 238.889 158.872 238.686 159.256C238.494 159.629 238.398 160.104 238.398 160.68V165H236.398V156.456H238.302V158.76L237.966 158.056C238.265 157.512 238.697 157.096 239.262 156.808C239.838 156.509 240.499 156.36 241.246 156.36Z" fill="#0F52BA"/>
<path d="M78.3789 196.703V208.461H69.8438V196.703H78.3789ZM72.3047 198.656V206.488H75.8984V198.656H72.3047ZM83.3008 195.023V201.723H85.918V203.793H83.3008V212.797H80.8008V195.023H83.3008ZM94.668 195.355C98.6133 195.355 101.113 196.664 101.133 198.832C101.113 200.98 98.6133 202.289 94.668 202.27C90.7422 202.289 88.1836 200.98 88.1836 198.832C88.1836 196.664 90.7422 195.355 94.668 195.355ZM94.668 197.289C92.1875 197.289 90.7617 197.816 90.7812 198.832C90.7617 199.828 92.1875 200.336 94.668 200.336C97.1289 200.336 98.5547 199.828 98.5547 198.832C98.5547 197.816 97.1289 197.289 94.668 197.289ZM100.84 206.547V212.602H88.4375V206.547H100.84ZM90.8984 208.52V210.609H98.3984V208.52H90.8984ZM102.773 203.305V205.297H86.5625V203.305H102.773ZM118.086 195.023V201.996H120.449V204.047H118.086V212.797H115.586V195.023H118.086ZM109.16 196.84C109.141 201.723 108.633 205.531 105.449 209.027L103.496 207.641C105.918 205.023 106.621 202.416 106.777 198.871H104.277V196.84H109.16ZM114.082 196.84C114.082 201.918 113.633 206.312 110.488 210.18L108.516 208.793C110.928 205.824 111.582 202.777 111.738 198.871H109.746V196.84H114.082ZM128.027 199.867C128.027 202.738 129.492 205.805 132.48 207.055L131.133 209.008C129.033 208.119 127.588 206.352 126.797 204.184C125.986 206.537 124.512 208.49 122.422 209.457L120.996 207.484C123.945 206.176 125.469 202.875 125.469 199.867V198.773H121.699V196.742H131.738V198.773H128.027V199.867ZM136.016 195.023V212.797H133.496V195.023H136.016ZM149.551 196.762C149.531 198.949 150.801 200.961 153.633 201.762L152.363 203.695C150.42 203.109 149.092 201.928 148.34 200.395C147.539 202.133 146.113 203.48 144.023 204.145L142.793 202.172C145.723 201.273 147.031 199.105 147.051 196.781V195.648H149.551V196.762ZM157.129 195.023V198.5H159.531V200.531H157.129V204.164H154.629V195.023H157.129ZM157.129 204.848V209.594H147.812V210.707H157.637V212.68H145.371V207.816H154.648V206.762H145.332V204.848H157.129ZM175.254 195.023V212.797H172.734V195.023H175.254ZM170.82 196.664V198.656H169.238V206.371C170.02 206.322 170.791 206.244 171.543 206.156L171.66 208.012C167.871 208.637 163.77 208.695 160.508 208.715L160.273 206.684L162.324 206.664V198.656H160.762V196.664H170.82ZM164.746 206.605L166.816 206.527V198.656H164.746V206.605ZM192.031 199.867V201.82H179.609V195.648H182.09V199.867H192.031ZM193.848 203.734V205.688H177.578V203.734H193.848ZM192.148 210.414V212.406H179.453V207.133H181.953V210.414H192.148ZM213.867 194.965V201.664H216.016V203.754H213.867V212.797H211.387V194.965H213.867ZM204.473 196.801V198.793H202.344V206.352C203.066 206.322 203.77 206.244 204.57 206.098L204.766 208.148C203.301 208.402 202.148 208.441 200.742 208.422H199.844V196.801H204.473ZM210.195 196.801V198.793H207.852V206.371C208.926 206.342 209.648 206.264 210.449 206.059L210.645 208.109C209.434 208.402 208.438 208.441 206.328 208.422H205.391V196.801H210.195ZM232.988 203.266V205.258H216.777V203.266H232.988ZM231.582 200.141V202.094H225.41V195.863H231.484V197.836H227.891V200.141H231.582ZM224.512 195.863V197.836H220.781V200.121C222.129 200.092 223.281 199.994 224.609 199.711L224.805 201.703C222.988 202.074 221.445 202.094 219.395 202.094H218.281V195.863H224.512ZM226.172 206.625C226.172 208.52 228.008 210.336 231.934 210.766L231.035 212.719C228.105 212.318 226.006 211.186 224.922 209.555C223.818 211.186 221.729 212.318 218.789 212.719L217.91 210.766C221.816 210.336 223.633 208.52 223.633 206.625V206.273H226.172V206.625ZM248.164 195.043V200.492H250.566V202.523H248.164V208.305H245.664V195.043H248.164ZM244.609 196.898V198.871H234.062V196.898H238.105V195.004H240.586V196.898H244.609ZM239.336 199.496C241.914 199.496 243.711 200.883 243.711 202.934C243.711 204.984 241.914 206.332 239.336 206.332C236.738 206.332 234.922 204.984 234.922 202.934C234.922 200.883 236.738 199.496 239.336 199.496ZM239.336 201.391C238.145 201.41 237.344 201.957 237.363 202.934C237.344 203.91 238.145 204.438 239.336 204.438C240.527 204.438 241.348 203.91 241.348 202.934C241.348 201.957 240.527 201.41 239.336 201.391ZM248.809 210.492V212.484H236.641V207.289H239.121V210.492H248.809ZM272.207 203.422V205.375H255.957V203.422H262.871V201.898H257.93V195.805H270.254V197.738H260.41V199.945H270.352V201.898H265.312V203.422H272.207ZM264.043 206.273C267.891 206.273 270.215 207.445 270.234 209.555C270.215 211.625 267.891 212.816 264.043 212.816C260.156 212.816 257.812 211.625 257.812 209.555C257.812 207.445 260.156 206.273 264.043 206.273ZM264.043 208.168C261.582 208.168 260.332 208.637 260.352 209.555C260.332 210.492 261.582 210.922 264.043 210.922C266.445 210.922 267.715 210.492 267.734 209.555C267.715 208.637 266.445 208.168 264.043 208.168ZM288.516 195.023V206.176H286.152V201.449H284.727V205.59H282.402V195.355H284.727V199.418H286.152V195.023H288.516ZM281.875 196.859V198.793H273.145V196.859H276.289V195.18H278.77V196.859H281.875ZM277.539 199.379C279.805 199.379 281.406 200.629 281.426 202.484C281.406 204.32 279.805 205.57 277.539 205.57C275.312 205.57 273.691 204.32 273.691 202.484C273.691 200.629 275.312 199.379 277.539 199.379ZM277.539 201.176C276.562 201.176 275.918 201.664 275.918 202.484C275.918 203.305 276.562 203.812 277.539 203.793C278.516 203.812 279.16 203.305 279.18 202.484C279.16 201.664 278.516 201.176 277.539 201.176ZM282.441 206.332C286.289 206.332 288.594 207.504 288.613 209.574C288.594 211.625 286.289 212.797 282.441 212.797C278.613 212.797 276.289 211.625 276.289 209.574C276.289 207.504 278.613 206.332 282.441 206.332ZM282.441 208.207C280.039 208.207 278.77 208.637 278.789 209.574C278.77 210.473 280.039 210.922 282.441 210.922C284.863 210.922 286.094 210.473 286.094 209.574C286.094 208.637 284.863 208.207 282.441 208.207Z" fill="#1A1A1A"/>
<path d="M93.9375 234.766C93.9375 236.547 95.1719 238.25 97.3125 238.969L96.5625 240.125C94.9766 239.578 93.8125 238.484 93.2031 237.109C92.5938 238.625 91.3828 239.812 89.7344 240.391L88.9375 239.234C91.125 238.484 92.4375 236.688 92.4531 234.75V234.375H89.375V233.172H96.9531V234.375H93.9375V234.766ZM100.047 232.25V235.844H102.078V237.094H100.047V240.688H98.5625V232.25H100.047ZM100.047 241.375V246.25H98.5625V242.578H90.7969V241.375H100.047ZM115.641 239.562V240.75H102.875V239.562H115.641ZM114.203 244.75V245.953H104.484V241.891H105.984V244.75H114.203ZM109.25 232.719C112.281 232.703 114.25 233.766 114.25 235.516C114.25 237.281 112.281 238.344 109.25 238.359C106.203 238.344 104.25 237.281 104.25 235.516C104.25 233.766 106.203 232.703 109.25 232.719ZM109.25 233.906C107.109 233.906 105.766 234.516 105.781 235.516C105.766 236.547 107.109 237.141 109.25 237.141C111.391 237.141 112.719 236.547 112.719 235.516C112.719 234.516 111.391 233.906 109.25 233.906ZM123.75 232.469V233.688H130.234V232.469H131.719V237.109H122.281V232.469H123.75ZM123.75 235.984H130.234V234.781H123.75V235.984ZM133.375 238.125V239.328H127.719V240.531H131.766V243.797H123.609V244.969H132.156V246.109H122.156V242.734H130.297V241.641H122.141V240.531H126.234V239.328H120.609V238.125H133.375ZM146.109 232.25V242.641H144.625V238.781H142.438V237.531H144.625V236.062H142.438V234.844H144.625V232.25H146.109ZM142.281 233.344V234.547H140.938V239.234C141.531 239.188 142.102 239.141 142.656 239.078L142.719 240.172C140.031 240.594 136.891 240.641 134.641 240.656L134.453 239.406L136.156 239.391V234.547H134.844V233.344H142.281ZM146.469 244.75V245.953H136.984V241.797H138.484V244.75H146.469ZM137.594 239.375C138.227 239.359 138.867 239.344 139.516 239.312V234.547H137.594V239.375ZM159.266 232.25V235.875H161.297V237.141H159.266V240.688H157.781V232.25H159.266ZM159.266 241.422V246.078H150.328V241.422H159.266ZM151.781 242.594V244.875H157.797V242.594H151.781ZM156.625 233.672V234.859H148.281V233.672H151.719V232.141H153.203V233.672H156.625ZM152.453 235.469C154.469 235.469 155.844 236.469 155.844 237.969C155.844 239.484 154.469 240.469 152.453 240.484C150.406 240.469 149.047 239.484 149.047 237.969C149.047 236.469 150.406 235.469 152.453 235.469ZM152.453 236.609C151.266 236.594 150.469 237.125 150.484 237.969C150.469 238.844 151.266 239.359 152.453 239.359C153.641 239.359 154.438 238.844 154.453 237.969C154.438 237.125 153.641 236.594 152.453 236.609ZM174.141 232.25V246.25H172.719V232.25H174.141ZM171.297 232.516V245.562H169.875V238.812H168.297C168.172 241.547 167 243.25 165.266 243.234C163.438 243.25 162.25 241.328 162.25 238.297C162.25 235.266 163.438 233.359 165.266 233.375C166.969 233.359 168.125 234.977 168.297 237.609H169.875V232.516H171.297ZM165.266 234.766C164.25 234.766 163.625 236.062 163.625 238.297C163.625 240.531 164.25 241.828 165.266 241.828C166.297 241.828 166.938 240.531 166.938 238.297C166.938 236.062 166.297 234.766 165.266 234.766ZM187.266 238.703V239.891H183.031V243.312H188.734V244.531H175.922V243.312H181.562V239.891H177.516V233.328H187.141V234.531H179V238.703H187.266ZM205.438 232.25V246.25H203.938V232.25H205.438ZM193.562 238.844C195.391 238.844 197.477 238.828 199.562 238.719C199.906 236.852 199.969 235.461 200 234.5H194.781V233.297H201.469V233.938C201.453 234.859 201.453 236.43 201.078 238.625C201.727 238.586 202.375 238.531 203 238.469L203.094 239.578C201.711 239.766 200.281 239.883 198.875 239.953V245.438H197.391V240.016C196.117 240.062 194.891 240.078 193.766 240.078L193.562 238.844ZM223.031 232.25V246.25H221.531V232.25H223.031ZM218.859 233.75C218.859 237.844 217.109 241.406 212.312 243.703L211.531 242.5C215.258 240.727 217.07 238.203 217.359 234.938H212.203V233.75H218.859ZM231.594 232.406C234.75 232.406 236.594 233.266 236.594 234.812C236.594 236.375 234.75 237.234 231.594 237.234C228.438 237.234 226.594 236.375 226.594 234.812C226.594 233.266 228.438 232.406 231.594 232.406ZM231.594 233.516C229.359 233.531 228.125 233.984 228.141 234.812C228.125 235.688 229.359 236.125 231.594 236.125C233.828 236.125 235.062 235.688 235.062 234.812C235.062 233.984 233.828 233.531 231.594 233.516ZM237.984 238.062V239.234H232.328V240.438H236.375V243.719H228.219V244.969H236.766V246.109H226.766V242.641H234.906V241.547H226.75V240.438H230.844V239.234H225.219V238.062H237.984ZM250.641 232.25V246.281H249.156V232.25H250.641ZM243.156 233.297C245.234 233.297 246.766 235.203 246.766 238.203C246.766 241.219 245.234 243.125 243.156 243.125C241.047 243.125 239.531 241.219 239.531 238.203C239.531 235.203 241.047 233.297 243.156 233.297ZM243.156 234.625C241.859 234.625 240.969 236 240.969 238.203C240.969 240.422 241.859 241.797 243.156 241.797C244.438 241.797 245.328 240.422 245.328 238.203C245.328 236 244.438 234.625 243.156 234.625ZM259.922 233.594V235.547H263.078V232.25H264.547V246.281H263.078V240.594H259.922V242.75H253.422V233.594H259.922ZM254.891 234.75V241.562H258.469V234.75H254.891ZM259.922 239.391H263.078V236.766H259.922V239.391ZM269.219 243.844L267.969 248.156H266.641L267.469 243.844H269.219ZM88.375 258.25V263.047H90.375V264.281H88.375V269.188H86.8906V258.25H88.375ZM88.875 270.75V271.953H79.3281V268.453H80.8125V270.75H88.875ZM77.2656 266.469C78.3438 266.469 79.6016 266.461 80.9219 266.406V265.438C79.3281 265.266 78.3125 264.492 78.3281 263.344C78.3125 261.984 79.6406 261.172 81.6562 261.188C83.6562 261.172 84.9844 261.984 84.9844 263.344C84.9844 264.484 83.9844 265.258 82.4062 265.438V266.344C83.6562 266.273 84.9219 266.164 86.0938 265.984L86.2188 267.031C83.2344 267.594 79.8594 267.641 77.4219 267.656L77.2656 266.469ZM85.7031 259.547V260.641H77.625V259.547H80.9219V258.203H82.4062V259.547H85.7031ZM81.6562 262.203C80.4531 262.203 79.7344 262.625 79.7344 263.344C79.7344 264.031 80.4531 264.453 81.6562 264.453C82.8438 264.453 83.5625 264.031 83.5625 263.344C83.5625 262.625 82.8438 262.203 81.6562 262.203ZM96.0625 262.375C96.0625 264.594 97.5156 267.062 99.6406 268.062L98.7969 269.219C97.2266 268.461 95.9844 266.883 95.3594 265.047C94.7109 267.055 93.3984 268.781 91.7969 269.578L90.9219 268.406C93.0469 267.391 94.5938 264.75 94.5938 262.375V260.891H91.4375V259.656H99.1094V260.891H96.0625V262.375ZM102.094 258.25V263.797H104.344V265.047H102.094V272.25H100.609V258.25H102.094ZM117.812 265.578V266.766H112.25V269.344H110.781V266.766H105V265.578H117.812ZM116.391 270.75V271.953H106.594V268.125H108.062V270.75H116.391ZM108.156 258.688V260.391H114.641V258.688H116.125V264.344H106.688V258.688H108.156ZM108.156 263.156H114.641V261.5H108.156V263.156ZM126.641 259.75V260.609C126.641 261.781 126.641 263.594 126.234 266.094L124.766 265.984C125.117 263.742 125.156 262.125 125.172 260.953H119.484V259.75H126.641ZM123.047 263.75V267.938C124.539 267.891 126.055 267.789 127.453 267.609L127.531 268.719C124.609 269.188 121.359 269.25 118.875 269.234L118.703 268.031C119.578 268.023 120.555 268.016 121.578 267.984V263.75H123.047ZM129.75 258.25V264.031H131.891V265.297H129.75V272.25H128.25V258.25H129.75ZM149.391 269.281V270.516H136.578V269.281H142.219V266.406H138.047V259.203H139.531V261.609H146.406V259.203H147.875V266.406H143.688V269.281H149.391ZM139.531 265.203H146.406V262.812H139.531V265.203ZM162.531 260.219V261.422H151.016V260.219H156.047V258.453H157.516V260.219H162.531ZM163.219 269.469V270.672H150.406V269.469H156.047V267.609C153.594 267.461 152.109 266.492 152.109 264.938C152.109 263.25 153.891 262.266 156.781 262.266C159.641 262.266 161.438 263.25 161.438 264.938C161.438 266.492 159.945 267.461 157.516 267.609V269.469H163.219ZM156.781 263.438C154.781 263.438 153.609 263.969 153.625 264.938C153.609 265.906 154.781 266.438 156.781 266.453C158.75 266.438 159.922 265.906 159.922 264.938C159.922 263.969 158.75 263.438 156.781 263.438ZM169.109 262.375C169.109 264.594 170.562 267.062 172.688 268.062L171.844 269.219C170.273 268.461 169.031 266.883 168.406 265.047C167.758 267.055 166.445 268.781 164.844 269.578L163.969 268.406C166.094 267.391 167.641 264.75 167.641 262.375V260.891H164.484V259.656H172.156V260.891H169.109V262.375ZM175.141 258.25V263.797H177.391V265.047H175.141V272.25H173.656V258.25H175.141ZM188.969 258.25V263.828H191.141V265.062H188.969V272.234H187.484V258.25H188.969ZM185.312 259.719C185.297 263.766 183.516 267.375 178.906 269.656L178.078 268.5C181.586 266.75 183.492 264.219 183.797 260.953H178.781V259.719H185.312ZM207.391 258.25V272.25H205.906V258.25H207.391ZM201.062 262.75C201.062 264.984 202.547 267.266 204.719 268.188L203.906 269.328C202.297 268.625 201.008 267.172 200.359 265.406C199.727 267.273 198.461 268.828 196.828 269.562L196 268.422C198.172 267.453 199.609 265.094 199.609 262.75V261.828H196.422V260.641H199.594V258.531H201.062V260.641H204.203V261.828H201.062V262.75ZM222.438 269.328V270.578H209.625V269.328H213.125V266.859H211.188V262.406H219.406V260.453H211.156V259.234H220.875V263.609H212.656V265.641H221.203V266.859H219.078V269.328H222.438ZM214.562 269.328H217.625V266.859H214.562V269.328ZM235.156 259.75V260.609C235.156 261.781 235.156 263.594 234.75 266.094L233.281 265.984C233.633 263.742 233.672 262.125 233.688 260.953H228V259.75H235.156ZM231.562 263.75V267.938C233.055 267.891 234.57 267.789 235.969 267.609L236.047 268.719C233.125 269.188 229.875 269.25 227.391 269.234L227.219 268.031C228.094 268.023 229.07 268.016 230.094 267.984V263.75H231.562ZM238.266 258.25V264.031H240.406V265.297H238.266V272.25H236.766V258.25H238.266ZM252.859 258.25V266.578H251.375V263.031H248.766V261.812H251.375V258.25H252.859ZM248.172 266.969C251.109 266.969 252.906 267.938 252.906 269.609C252.906 271.281 251.109 272.234 248.172 272.25C245.234 272.234 243.422 271.281 243.438 269.609C243.422 267.938 245.234 266.969 248.172 266.969ZM248.172 268.125C246.125 268.125 244.906 268.656 244.906 269.609C244.906 270.547 246.125 271.094 248.172 271.078C250.219 271.094 251.438 270.547 251.438 269.609C251.438 268.656 250.219 268.125 248.172 268.125ZM246.203 260.719C246.203 262.5 247.469 264.219 249.578 264.938L248.812 266.109C247.242 265.562 246.086 264.445 245.484 263.062C244.867 264.633 243.641 265.891 241.969 266.5L241.188 265.312C243.359 264.562 244.688 262.672 244.688 260.734V260.422H241.656V259.219H249.203V260.422H246.203V260.719ZM267.062 258.25V272.25H265.641V258.25H267.062ZM264.219 258.516V271.562H262.797V264.812H261.219C261.094 267.547 259.922 269.25 258.188 269.234C256.359 269.25 255.172 267.328 255.172 264.297C255.172 261.266 256.359 259.359 258.188 259.375C259.891 259.359 261.047 260.977 261.219 263.609H262.797V258.516H264.219ZM258.188 260.766C257.172 260.766 256.547 262.062 256.547 264.297C256.547 266.531 257.172 267.828 258.188 267.828C259.219 267.828 259.859 266.531 259.859 264.297C259.859 262.062 259.219 260.766 258.188 260.766ZM273.891 261.812C273.891 264.375 275.328 266.922 277.469 267.891L276.562 269.078C274.969 268.281 273.773 266.695 273.156 264.781C272.539 266.797 271.312 268.5 269.703 269.344L268.766 268.141C270.938 267.109 272.391 264.406 272.391 261.812V259.422H273.891V261.812ZM280.516 258.25V272.281H279.047V264.109H275.922V262.906H279.047V258.25H280.516ZM75.6172 284.141V288.219H77.5391V289.875H75.6172V294.5H73.6172V284.141H75.6172ZM76.1328 296.516V298.109H66.3984V293.406H68.3828V296.516H76.1328ZM68.3359 285.062C70.5078 285.062 72.2109 286.562 72.2109 288.672C72.2109 290.75 70.5078 292.281 68.3359 292.281C66.1484 292.281 64.4297 290.75 64.4297 288.672C64.4297 286.562 66.1484 285.062 68.3359 285.062ZM68.3359 286.797C67.2578 286.781 66.3828 287.484 66.3984 288.672C66.3828 289.828 67.2578 290.547 68.3359 290.547C69.4297 290.547 70.2578 289.828 70.2734 288.672C70.2578 287.484 69.4297 286.781 68.3359 286.797ZM90.0703 284.156V292.172H88.0703V284.156H90.0703ZM90.0703 292.828V298.203H80.5391V292.828H90.0703ZM82.5078 294.406V296.609H88.1172V294.406H82.5078ZM83.6172 286.047C83.6016 287.781 84.6484 289.422 86.9453 290.141L85.9766 291.656C84.3516 291.18 83.2266 290.195 82.5859 288.922C81.9375 290.305 80.7812 291.398 79.0859 291.922L78.1172 290.359C80.4922 289.641 81.5391 287.828 81.5391 286.047V284.672H83.6172V286.047ZM106.992 284.203V287.484H109.039V288.703H106.992V291.906H105.508V284.203H106.992ZM106.992 292.562V295.812H99.4297V296.984H107.477V298.109H97.9766V294.766H105.523V293.672H97.9453V292.562H106.992ZM104.352 285.438V286.609H96.0078V285.438H99.4453V284.125H100.93V285.438H104.352ZM100.18 287.141C102.227 287.141 103.57 288.016 103.57 289.438C103.57 290.859 102.227 291.719 100.18 291.719C98.1172 291.719 96.7734 290.859 96.7734 289.438C96.7734 288.016 98.1172 287.141 100.18 287.141ZM100.18 288.203C98.9766 288.203 98.1953 288.688 98.2109 289.438C98.1953 290.188 98.9766 290.641 100.18 290.641C101.383 290.641 102.164 290.188 102.18 289.438C102.164 288.688 101.383 288.203 100.18 288.203ZM120.898 285.484C120.883 287.344 123.164 289.094 125.914 289.453L125.336 290.672C123.047 290.305 121.031 289.117 120.133 287.469C119.211 289.125 117.203 290.305 114.93 290.672L114.336 289.453C117.086 289.094 119.336 287.359 119.352 285.484V284.719H120.898V285.484ZM126.492 292.047V293.266H120.805V298.25H119.352V293.266H113.727V292.047H126.492ZM136.32 293.5C136.32 294.703 136.914 295.977 138.18 296.734C139.469 295.914 140.102 294.57 140.102 293.5V292.828H141.555V293.5C141.555 294.953 142.508 296.359 144.336 296.953L143.602 298.047C142.219 297.57 141.281 296.641 140.789 295.484C140.344 296.617 139.508 297.641 138.227 298.172C136.883 297.664 136.031 296.672 135.602 295.531C135.094 296.633 134.172 297.562 132.852 298.047L132.102 296.953C133.898 296.312 134.867 294.859 134.883 293.5V292.828H136.32V293.5ZM143.07 284.266V292.234H141.586V284.266H143.07ZM135.477 285.031C137.617 285.031 139.195 286.391 139.195 288.344C139.195 290.281 137.617 291.625 135.477 291.625C133.336 291.625 131.742 290.281 131.742 288.344C131.742 286.391 133.336 285.031 135.477 285.031ZM135.477 286.297C134.148 286.281 133.195 287.109 133.195 288.344C133.195 289.562 134.148 290.391 135.477 290.391C136.789 290.391 137.742 289.562 137.742 288.344C137.742 287.109 136.789 286.281 135.477 286.297ZM156.633 290.703V291.891H152.398V295.312H158.102V296.531H145.289V295.312H150.93V291.891H146.883V285.328H156.508V286.531H148.367V290.703H156.633ZM171.914 291.891V293.094H159.102V291.891H164.773V290.562H160.742V287H168.82V285.75H160.711V284.578H170.305V288.094H162.211V289.406H170.586V290.562H166.242V291.891H171.914ZM170.383 294.078V298.141H168.883V295.266H160.539V294.078H170.383ZM188.148 287.438V288.641H178.539V284.453H179.992V287.438H188.148ZM189.648 289.875V291.062H176.836V289.875H189.648ZM188.039 292.188V295.609H179.914V296.906H188.523V298.078H178.43V294.516H186.57V293.344H178.398V292.188H188.039ZM207.398 295.25V296.469H194.586V295.25H200.195V291.922H201.664V295.25H207.398ZM201.695 286.203C201.695 288.422 204.133 290.5 206.836 290.953L206.195 292.172C203.93 291.719 201.844 290.32 200.914 288.391C199.992 290.312 197.93 291.734 195.68 292.172L195.023 290.953C197.711 290.5 200.133 288.422 200.133 286.203V285.141H201.695V286.203ZM221.18 291.609V292.781H208.383V291.609H214.039V290.391H210.055V284.625H219.617V285.797H211.555V286.938H219.258V288.047H211.555V289.234H219.711V290.391H215.523V291.609H221.18ZM214.789 293.703C217.867 293.688 219.617 294.5 219.617 295.969C219.617 297.453 217.867 298.234 214.789 298.219C211.68 298.234 209.93 297.453 209.93 295.969C209.93 294.5 211.68 293.688 214.789 293.703ZM214.789 294.812C212.586 294.812 211.398 295.219 211.414 295.969C211.398 296.719 212.586 297.109 214.789 297.094C216.961 297.109 218.133 296.719 218.133 295.969C218.133 295.219 216.961 294.812 214.789 294.812ZM233.148 284.25V289.922H235.398V291.156H233.148V298.25H231.68V284.25H233.148ZM230.461 286.438V287.656H222.164V286.438H225.617V284.438H227.102V286.438H230.461ZM226.367 288.688C228.367 288.688 229.836 290.031 229.852 291.938C229.836 293.859 228.367 295.188 226.367 295.203C224.352 295.188 222.883 293.859 222.883 291.938C222.883 290.031 224.352 288.688 226.367 288.688ZM226.367 289.906C225.18 289.906 224.289 290.734 224.305 291.938C224.289 293.156 225.18 293.969 226.367 293.953C227.555 293.969 228.43 293.156 228.43 291.938C228.43 290.734 227.555 289.906 226.367 289.906ZM242.273 285.266C242.273 286.305 242.102 287.258 241.773 288.125H243.758V284.547H245.164V292.094H243.758V289.328H241.148C240.258 290.711 238.844 291.812 236.914 292.625L236.164 291.516C238.938 290.414 240.469 288.695 240.742 286.469H236.805V285.266H242.273ZM248.008 284.266V292.312H246.602V284.266H248.008ZM241.055 293.609C241.039 294.82 241.641 296.086 242.914 296.859C244.188 296.016 244.805 294.656 244.82 293.609V292.766H246.258V293.609C246.258 295.062 247.227 296.5 249.039 297.094L248.32 298.188C246.93 297.695 245.992 296.758 245.508 295.594C245.062 296.719 244.234 297.758 242.93 298.297C241.594 297.789 240.758 296.781 240.336 295.625C239.828 296.75 238.898 297.688 237.586 298.188L236.836 297.094C238.633 296.453 239.633 294.969 239.633 293.609V292.766H241.055V293.609ZM252.945 292.641V294.125H259.523V292.641H261.008V298.078H251.477V292.641H252.945ZM252.945 296.891H259.523V295.281H252.945V296.891ZM262.664 290.531V291.766H249.898V290.531H262.664ZM257.039 285C257.039 286.609 259.273 288.172 261.961 288.5L261.43 289.672C259.156 289.352 257.18 288.281 256.289 286.797C255.375 288.289 253.391 289.352 251.148 289.672L250.586 288.5C253.305 288.156 255.523 286.656 255.523 285V284.406H257.039V285ZM275.352 284.25V298.25H273.867V284.25H275.352ZM266.055 285.609V293.406C268.094 293.391 270.242 293.227 272.492 292.766L272.695 294.016C270.211 294.516 267.961 294.688 265.758 294.688H264.586V285.609H266.055ZM288.461 284.25V289.672H290.711V290.891H288.461V298.281H286.977V284.25H288.461ZM284.695 285.594V286.797H279.633V293.562C281.984 293.555 283.75 293.453 285.742 293.094L285.93 294.344C283.742 294.734 281.883 294.812 279.273 294.797H278.148V285.594H284.695ZM292.977 297.031C292.367 297.031 291.852 296.531 291.867 295.922C291.852 295.312 292.367 294.812 292.977 294.812C293.57 294.812 294.086 295.312 294.086 295.922C294.086 296.531 293.57 297.031 292.977 297.031Z" fill="#555555"/>
<g filter="url(#filter1_dd_86_748)">
<path d="M139 83C139 60.9086 156.909 43 179 43C201.091 43 219 60.9086 219 83C219 105.091 201.091 123 179 123C156.909 123 139 105.091 139 83Z" fill="white" shape-rendering="crispEdges"/>
<path d="M172.167 96.3335C175.348 97.9653 179.007 98.4072 182.485 97.5798C185.963 96.7523 189.031 94.7099 191.136 91.8205C193.242 88.931 194.246 85.3847 193.968 81.8204C193.69 78.2562 192.148 74.9084 189.62 72.3805C187.092 69.8525 183.744 68.3106 180.18 68.0325C176.616 67.7545 173.069 68.7586 170.18 70.8639C167.29 72.9692 165.248 76.0373 164.42 79.5153C163.593 82.9933 164.035 86.6525 165.667 89.8335L162.333 99.6668L172.167 96.3335Z" stroke="#0F52BA" stroke-width="3.33333" stroke-linecap="round" stroke-linejoin="round"/>
</g>
</g>
<defs>
<filter id="filter0_dd_86_748" x="0" y="0" width="358" height="355" filterUnits="userSpaceOnUse" color-interpolation-filters="sRGB">
<feFlood flood-opacity="0" result="BackgroundImageFix"/>
<feColorMatrix in="SourceAlpha" type="matrix" values="0 0 0 0 0 0 0 0 0 0 0 0 0 0 0 0 0 0 127 0" result="hardAlpha"/>
<feMorphology radius="1" operator="erode" in="SourceAlpha" result="effect1_dropShadow_86_748"/>
<feOffset dy="1"/>
<feGaussianBlur stdDeviation="1"/>
<feComposite in2="hardAlpha" operator="out"/>
<feColorMatrix type="matrix" values="0 0 0 0 0 0 0 0 0 0 0 0 0 0 0 0 0 0 0.1 0"/>
<feBlend mode="normal" in2="BackgroundImageFix" result="effect1_dropShadow_86_748"/>
<feColorMatrix in="SourceAlpha" type="matrix" values="0 0 0 0 0 0 0 0 0 0 0 0 0 0 0 0 0 0 127 0" result="hardAlpha"/>
<feOffset dy="1"/>
<feGaussianBlur stdDeviation="1.5"/>
<feComposite in2="hardAlpha" operator="out"/>
<feColorMatrix type="matrix" values="0 0 0 0 0 0 0 0 0 0 0 0 0 0 0 0 0 0 0.1 0"/>
<feBlend mode="normal" in2="effect1_dropShadow_86_748" result="effect2_dropShadow_86_748"/>
<feBlend mode="normal" in="SourceGraphic" in2="effect2_dropShadow_86_748" result="shape"/>
</filter>
<filter id="filter1_dd_86_748" x="134" y="42" width="90" height="90" filterUnits="userSpaceOnUse" color-interpolation-filters="sRGB">
<feFlood flood-opacity="0" result="BackgroundImageFix"/>
<feColorMatrix in="SourceAlpha" type="matrix" values="0 0 0 0 0 0 0 0 0 0 0 0 0 0 0 0 0 0 127 0" result="hardAlpha"/>
<feMorphology radius="2" operator="erode" in="SourceAlpha" result="effect1_dropShadow_86_748"/>
<feOffset dy="2"/>
<feGaussianBlur stdDeviation="2"/>
<feComposite in2="hardAlpha" operator="out"/>
<feColorMatrix type="matrix" values="0 0 0 0 0 0 0 0 0 0 0 0 0 0 0 0 0 0 0.1 0"/>
<feBlend mode="normal" in2="BackgroundImageFix" result="effect1_dropShadow_86_748"/>
<feColorMatrix in="SourceAlpha" type="matrix" values="0 0 0 0 0 0 0 0 0 0 0 0 0 0 0 0 0 0 127 0" result="hardAlpha"/>
<feMorphology radius="1" operator="erode" in="SourceAlpha" result="effect2_dropShadow_86_748"/>
<feOffset dy="4"/>
<feGaussianBlur stdDeviation="3"/>
<feComposite in2="hardAlpha" operator="out"/>
<feColorMatrix type="matrix" values="0 0 0 0 0 0 0 0 0 0 0 0 0 0 0 0 0 0 0.1 0"/>
<feBlend mode="normal" in2="effect1_dropShadow_86_748" result="effect2_dropShadow_86_748"/>
<feBlend mode="normal" in="SourceGraphic" in2="effect2_dropShadow_86_748" result="shape"/>
</filter>
</defs>
</svg>
