<svg width="358" height="355" viewBox="0 0 358 355" fill="none" xmlns="http://www.w3.org/2000/svg">
<g filter="url(#filter0_dd_86_748)">
<mask id="path-1-inside-1_86_748" fill="white">
<path d="M3 18C3 9.16344 10.1634 2 19 2H339C347.837 2 355 9.16344 355 18V335C355 343.837 347.837 351 339 351H19C10.1634 351 3 343.837 3 335V18Z"/>
</mask>
<path d="M3 18C3 9.16344 10.1634 2 19 2H339C347.837 2 355 9.16344 355 18V335C355 343.837 347.837 351 339 351H19C10.1634 351 3 343.837 3 335V18Z" fill="white" shape-rendering="crispEdges"/>
<path d="M19 2V3H339V2V1H19V2ZM355 18H354V335H355H356V18H355ZM339 351V350H19V351V352H339V351ZM3 335H4V18H3H2V335H3ZM19 351V350C10.7157 350 4 343.284 4 335H3H2C2 344.389 9.61117 352 19 352V351ZM355 335H354C354 343.284 347.284 350 339 350V351V352C348.389 352 356 344.389 356 335H355ZM339 2V3C347.284 3 354 9.71573 354 18H355H356C356 8.61116 348.389 1 339 1V2ZM19 2V1C9.61116 1 2 8.61116 2 18H3H4C4 9.71573 10.7157 3 19 3V2Z" fill="white" mask="url(#path-1-inside-1_86_748)"/>
<path d="M119.274 165.16C118.421 165.16 117.626 165.021 116.89 164.744C116.165 164.456 115.53 164.056 114.986 163.544C114.453 163.021 114.037 162.408 113.738 161.704C113.439 161 113.29 160.232 113.29 159.4C113.29 158.568 113.439 157.8 113.738 157.096C114.037 156.392 114.458 155.784 115.002 155.272C115.546 154.749 116.181 154.349 116.906 154.072C117.631 153.784 118.426 153.64 119.29 153.64C120.207 153.64 121.045 153.8 121.802 154.12C122.559 154.429 123.199 154.893 123.722 155.512L122.378 156.776C121.973 156.339 121.519 156.013 121.018 155.8C120.517 155.576 119.973 155.464 119.386 155.464C118.799 155.464 118.261 155.56 117.77 155.752C117.29 155.944 116.869 156.216 116.506 156.568C116.154 156.92 115.877 157.336 115.674 157.816C115.482 158.296 115.386 158.824 115.386 159.4C115.386 159.976 115.482 160.504 115.674 160.984C115.877 161.464 116.154 161.88 116.506 162.232C116.869 162.584 117.29 162.856 117.77 163.048C118.261 163.24 118.799 163.336 119.386 163.336C119.973 163.336 120.517 163.229 121.018 163.016C121.519 162.792 121.973 162.456 122.378 162.008L123.722 163.288C123.199 163.896 122.559 164.36 121.802 164.68C121.045 165 120.202 165.16 119.274 165.16ZM129.035 165.112C128.16 165.112 127.381 164.925 126.699 164.552C126.016 164.168 125.477 163.645 125.083 162.984C124.688 162.323 124.491 161.571 124.491 160.728C124.491 159.875 124.688 159.123 125.083 158.472C125.477 157.811 126.016 157.293 126.699 156.92C127.381 156.547 128.16 156.36 129.035 156.36C129.92 156.36 130.704 156.547 131.387 156.92C132.08 157.293 132.619 157.805 133.003 158.456C133.397 159.107 133.595 159.864 133.595 160.728C133.595 161.571 133.397 162.323 133.003 162.984C132.619 163.645 132.08 164.168 131.387 164.552C130.704 164.925 129.92 165.112 129.035 165.112ZM129.035 163.4C129.525 163.4 129.963 163.293 130.347 163.08C130.731 162.867 131.029 162.557 131.243 162.152C131.467 161.747 131.579 161.272 131.579 160.728C131.579 160.173 131.467 159.699 131.243 159.304C131.029 158.899 130.731 158.589 130.347 158.376C129.963 158.163 129.531 158.056 129.051 158.056C128.56 158.056 128.123 158.163 127.739 158.376C127.365 158.589 127.067 158.899 126.843 159.304C126.619 159.699 126.507 160.173 126.507 160.728C126.507 161.272 126.619 161.747 126.843 162.152C127.067 162.557 127.365 162.867 127.739 163.08C128.123 163.293 128.555 163.4 129.035 163.4ZM146.291 156.36C146.974 156.36 147.577 156.493 148.099 156.76C148.633 157.027 149.049 157.437 149.347 157.992C149.646 158.536 149.795 159.24 149.795 160.104V165H147.795V160.36C147.795 159.603 147.63 159.037 147.299 158.664C146.969 158.291 146.494 158.104 145.875 158.104C145.438 158.104 145.049 158.2 144.707 158.392C144.377 158.584 144.115 158.867 143.923 159.24C143.742 159.613 143.651 160.088 143.651 160.664V165H141.651V160.36C141.651 159.603 141.486 159.037 141.155 158.664C140.825 158.291 140.35 158.104 139.731 158.104C139.294 158.104 138.905 158.2 138.563 158.392C138.233 158.584 137.971 158.867 137.779 159.24C137.598 159.613 137.507 160.088 137.507 160.664V165H135.507V156.456H137.411V158.728L137.075 158.056C137.363 157.501 137.779 157.08 138.323 156.792C138.878 156.504 139.507 156.36 140.211 156.36C141.011 156.36 141.705 156.557 142.291 156.952C142.889 157.347 143.283 157.944 143.475 158.744L142.691 158.472C142.969 157.832 143.427 157.32 144.067 156.936C144.707 156.552 145.449 156.36 146.291 156.36ZM163.135 156.36C163.818 156.36 164.42 156.493 164.943 156.76C165.476 157.027 165.892 157.437 166.191 157.992C166.49 158.536 166.639 159.24 166.639 160.104V165H164.639V160.36C164.639 159.603 164.474 159.037 164.143 158.664C163.812 158.291 163.338 158.104 162.719 158.104C162.282 158.104 161.892 158.2 161.551 158.392C161.22 158.584 160.959 158.867 160.767 159.24C160.586 159.613 160.495 160.088 160.495 160.664V165H158.495V160.36C158.495 159.603 158.33 159.037 157.999 158.664C157.668 158.291 157.194 158.104 156.575 158.104C156.138 158.104 155.748 158.2 155.407 158.392C155.076 158.584 154.815 158.867 154.623 159.24C154.442 159.613 154.351 160.088 154.351 160.664V165H152.351V156.456H154.255V158.728L153.919 158.056C154.207 157.501 154.623 157.08 155.167 156.792C155.722 156.504 156.351 156.36 157.055 156.36C157.855 156.36 158.548 156.557 159.135 156.952C159.732 157.347 160.127 157.944 160.319 158.744L159.535 158.472C159.812 157.832 160.271 157.32 160.911 156.936C161.551 156.552 162.292 156.36 163.135 156.36ZM172.811 165.112C172.085 165.112 171.445 164.979 170.891 164.712C170.336 164.435 169.904 164.019 169.595 163.464C169.285 162.899 169.131 162.189 169.131 161.336V156.456H171.131V161.064C171.131 161.832 171.301 162.408 171.643 162.792C171.995 163.165 172.491 163.352 173.131 163.352C173.6 163.352 174.005 163.256 174.347 163.064C174.699 162.872 174.971 162.584 175.163 162.2C175.365 161.816 175.467 161.341 175.467 160.776V156.456H177.467V165H175.563V162.696L175.899 163.4C175.611 163.955 175.189 164.381 174.635 164.68C174.08 164.968 173.472 165.112 172.811 165.112ZM184.933 156.36C185.616 156.36 186.224 156.493 186.757 156.76C187.301 157.027 187.728 157.437 188.037 157.992C188.347 158.536 188.501 159.24 188.501 160.104V165H186.501V160.36C186.501 159.603 186.32 159.037 185.957 158.664C185.605 158.291 185.109 158.104 184.469 158.104C184 158.104 183.584 158.2 183.221 158.392C182.859 158.584 182.576 158.872 182.373 159.256C182.181 159.629 182.085 160.104 182.085 160.68V165H180.085V156.456H181.989V158.76L181.653 158.056C181.952 157.512 182.384 157.096 182.949 156.808C183.525 156.509 184.187 156.36 184.933 156.36ZM191.039 165V156.456H193.039V165H191.039ZM192.047 155.048C191.673 155.048 191.364 154.931 191.119 154.696C190.884 154.461 190.767 154.179 190.767 153.848C190.767 153.507 190.884 153.224 191.119 153C191.364 152.765 191.673 152.648 192.047 152.648C192.42 152.648 192.724 152.76 192.959 152.984C193.204 153.197 193.327 153.469 193.327 153.8C193.327 154.152 193.209 154.451 192.975 154.696C192.74 154.931 192.431 155.048 192.047 155.048ZM199.584 165.112C198.688 165.112 197.888 164.925 197.184 164.552C196.49 164.168 195.946 163.645 195.552 162.984C195.157 162.323 194.96 161.571 194.96 160.728C194.96 159.875 195.157 159.123 195.552 158.472C195.946 157.811 196.49 157.293 197.184 156.92C197.888 156.547 198.688 156.36 199.584 156.36C200.416 156.36 201.146 156.531 201.776 156.872C202.416 157.203 202.901 157.693 203.232 158.344L201.696 159.24C201.44 158.835 201.125 158.536 200.752 158.344C200.389 158.152 199.994 158.056 199.568 158.056C199.077 158.056 198.634 158.163 198.24 158.376C197.845 158.589 197.536 158.899 197.312 159.304C197.088 159.699 196.976 160.173 196.976 160.728C196.976 161.283 197.088 161.763 197.312 162.168C197.536 162.563 197.845 162.867 198.24 163.08C198.634 163.293 199.077 163.4 199.568 163.4C199.994 163.4 200.389 163.304 200.752 163.112C201.125 162.92 201.44 162.621 201.696 162.216L203.232 163.112C202.901 163.752 202.416 164.248 201.776 164.6C201.146 164.941 200.416 165.112 199.584 165.112ZM210.224 165V163.272L210.112 162.904V159.88C210.112 159.293 209.936 158.84 209.584 158.52C209.232 158.189 208.699 158.024 207.984 158.024C207.504 158.024 207.03 158.099 206.56 158.248C206.102 158.397 205.712 158.605 205.392 158.872L204.608 157.416C205.067 157.064 205.611 156.803 206.24 156.632C206.88 156.451 207.542 156.36 208.224 156.36C209.462 156.36 210.416 156.659 211.088 157.256C211.771 157.843 212.112 158.755 212.112 159.992V165H210.224ZM207.536 165.112C206.896 165.112 206.336 165.005 205.856 164.792C205.376 164.568 205.003 164.264 204.736 163.88C204.48 163.485 204.352 163.043 204.352 162.552C204.352 162.072 204.464 161.64 204.688 161.256C204.923 160.872 205.302 160.568 205.824 160.344C206.347 160.12 207.04 160.008 207.904 160.008H210.384V161.336H208.048C207.366 161.336 206.907 161.448 206.672 161.672C206.438 161.885 206.32 162.152 206.32 162.472C206.32 162.835 206.464 163.123 206.752 163.336C207.04 163.549 207.44 163.656 207.952 163.656C208.443 163.656 208.88 163.544 209.264 163.32C209.659 163.096 209.942 162.765 210.112 162.328L210.448 163.528C210.256 164.029 209.91 164.419 209.408 164.696C208.918 164.973 208.294 165.112 207.536 165.112ZM217.895 165.112C216.957 165.112 216.231 164.872 215.719 164.392C215.207 163.901 214.951 163.181 214.951 162.232V154.568H216.951V162.184C216.951 162.589 217.053 162.904 217.255 163.128C217.469 163.352 217.762 163.464 218.135 163.464C218.583 163.464 218.957 163.347 219.255 163.112L219.815 164.536C219.581 164.728 219.293 164.872 218.951 164.968C218.61 165.064 218.258 165.112 217.895 165.112ZM213.543 158.12V156.52H219.239V158.12H213.543ZM221.46 165V156.456H223.46V165H221.46ZM222.468 155.048C222.095 155.048 221.786 154.931 221.54 154.696C221.306 154.461 221.188 154.179 221.188 153.848C221.188 153.507 221.306 153.224 221.54 153C221.786 152.765 222.095 152.648 222.468 152.648C222.842 152.648 223.146 152.76 223.38 152.984C223.626 153.197 223.748 153.469 223.748 153.8C223.748 154.152 223.631 154.451 223.396 154.696C223.162 154.931 222.852 155.048 222.468 155.048ZM229.925 165.112C229.051 165.112 228.272 164.925 227.589 164.552C226.907 164.168 226.368 163.645 225.973 162.984C225.579 162.323 225.381 161.571 225.381 160.728C225.381 159.875 225.579 159.123 225.973 158.472C226.368 157.811 226.907 157.293 227.589 156.92C228.272 156.547 229.051 156.36 229.925 156.36C230.811 156.36 231.595 156.547 232.277 156.92C232.971 157.293 233.509 157.805 233.893 158.456C234.288 159.107 234.485 159.864 234.485 160.728C234.485 161.571 234.288 162.323 233.893 162.984C233.509 163.645 232.971 164.168 232.277 164.552C231.595 164.925 230.811 165.112 229.925 165.112ZM229.925 163.4C230.416 163.4 230.853 163.293 231.237 163.08C231.621 162.867 231.92 162.557 232.133 162.152C232.357 161.747 232.469 161.272 232.469 160.728C232.469 160.173 232.357 159.699 232.133 159.304C231.92 158.899 231.621 158.589 231.237 158.376C230.853 158.163 230.421 158.056 229.941 158.056C229.451 158.056 229.013 158.163 228.629 158.376C228.256 158.589 227.957 158.899 227.733 159.304C227.509 159.699 227.397 160.173 227.397 160.728C227.397 161.272 227.509 161.747 227.733 162.152C227.957 162.557 228.256 162.867 228.629 163.08C229.013 163.293 229.445 163.4 229.925 163.4ZM241.246 156.36C241.929 156.36 242.537 156.493 243.07 156.76C243.614 157.027 244.041 157.437 244.35 157.992C244.659 158.536 244.814 159.24 244.814 160.104V165H242.814V160.36C242.814 159.603 242.633 159.037 242.27 158.664C241.918 158.291 241.422 158.104 240.782 158.104C240.313 158.104 239.897 158.2 239.534 158.392C239.171 158.584 238.889 158.872 238.686 159.256C238.494 159.629 238.398 160.104 238.398 160.68V165H236.398V156.456H238.302V158.76L237.966 158.056C238.265 157.512 238.697 157.096 239.262 156.808C239.838 156.509 240.499 156.36 241.246 156.36Z" fill="#0F52BA"/>
<path d="M78.3789 196.703V208.461H69.8438V196.703H78.3789ZM72.3047 198.656V206.488H75.8984V198.656H72.3047ZM83.3008 195.023V201.723H85.918V203.793H83.3008V212.797H80.8008V195.023H83.3008ZM94.668 195.355C98.6133 195.355 101.113 196.664 101.133 198.832C101.113 200.98 98.6133 202.289 94.668 202.27C90.7422 202.289 88.1836 200.98 88.1836 198.832C88.1836 196.664 90.7422 195.355 94.668 195.355ZM94.668 197.289C92.1875 197.289 90.7617 197.816 90.7812 198.832C90.7617 199.828 92.1875 200.336 94.668 200.336C97.1289 200.336 98.5547 199.828 98.5547 198.832C98.5547 197.816 97.1289 197.289 94.668 197.289ZM100.84 206.547V212.602H88.4375V206.547H100.84ZM90.8984 208.52V210.609H98.3984V208.52H90.8984ZM102.773 203.305V205.297H86.5625V203.305H102.773ZM118.086 195.023V201.996H120.449V204.047H118.086V212.797H115.586V195.023H118.086ZM109.16 196.84C109.141 201.723 108.633 205.531 105.449 209.027L103.496 207.641C105.918 205.023 106.621 202.416 106.777 198.871H104.277V196.84H109.16ZM114.082 196.84C114.082 201.918 113.633 206.312 110.488 210.18L108.516 208.793C110.928 205.824 111.582 202.777 111.738 198.871H109.746V196.84H114.082ZM128.027 199.867C128.027 202.738 129.492 205.805 132.48 207.055L131.133 209.008C129.033 208.119 127.588 206.352 126.797 204.184C125.986 206.537 124.512 208.49 122.422 209.457L120.996 207.484C123.945 206.176 125.469 202.875 125.469 199.867V198.773H121.699V196.742H131.738V198.773H128.027V199.867ZM136.016 195.023V212.797H133.496V195.023H136.016ZM149.551 196.762C149.531 198.949 150.801 200.961 153.633 201.762L152.363 203.695C150.42 203.109 149.092 201.928 148.34 200.395C147.539 202.133 146.113 203.48 144.023 204.145L142.793 202.172C145.723 201.273 147.031 199.105 147.051 196.781V195.648H149.551V196.762ZM157.129 195.023V198.5H159.531V200.531H157.129V204.164H154.629V195.023H157.129ZM157.129 204.848V209.594H147.812V210.707H157.637V212.68H145.371V207.816H154.648V206.762H145.332V204.848H157.129ZM175.254 195.023V212.797H172.734V195.023H175.254ZM170.82 196.664V198.656H169.238V206.371C170.02 206.322 170.791 206.244 171.543 206.156L171.66 208.012C167.871 208.637 163.77 208.695 160.508 208.715L160.273 206.684L162.324 206.664V198.656H160.762V196.664H170.82ZM164.746 206.605L166.816 206.527V198.656H164.746V206.605ZM192.031 199.867V201.82H179.609V195.648H182.09V199.867H192.031ZM193.848 203.734V205.688H177.578V203.734H193.848ZM192.148 210.414V212.406H179.453V207.133H181.953V210.414H192.148ZM213.867 194.965V201.664H216.016V203.754H213.867V212.797H211.387V194.965H213.867ZM204.473 196.801V198.793H202.344V206.352C203.066 206.322 203.77 206.244 204.57 206.098L204.766 208.148C203.301 208.402 202.148 208.441 200.742 208.422H199.844V196.801H204.473ZM210.195 196.801V198.793H207.852V206.371C208.926 206.342 209.648 206.264 210.449 206.059L210.645 208.109C209.434 208.402 208.438 208.441 206.328 208.422H205.391V196.801H210.195ZM232.988 203.266V205.258H216.777V203.266H232.988ZM231.582 200.141V202.094H225.41V195.863H231.484V197.836H227.891V200.141H231.582ZM224.512 195.863V197.836H220.781V200.121C222.129 200.092 223.281 199.994 224.609 199.711L224.805 201.703C222.988 202.074 221.445 202.094 219.395 202.094H218.281V195.863H224.512ZM226.172 206.625C226.172 208.52 228.008 210.336 231.934 210.766L231.035 212.719C228.105 212.318 226.006 211.186 224.922 209.555C223.818 211.186 221.729 212.318 218.789 212.719L217.91 210.766C221.816 210.336 223.633 208.52 223.633 206.625V206.273H226.172V206.625ZM248.164 195.043V200.492H250.566V202.523H248.164V208.305H245.664V195.043H248.164ZM244.609 196.898V198.871H234.062V196.898H238.105V195.004H240.586V196.898H244.609ZM239.336 199.496C241.914 199.496 243.711 200.883 243.711 202.934C243.711 204.984 241.914 206.332 239.336 206.332C236.738 206.332 234.922 204.984 234.922 202.934C234.922 200.883 236.738 199.496 239.336 199.496ZM239.336 201.391C238.145 201.41 237.344 201.957 237.363 202.934C237.344 203.91 238.145 204.438 239.336 204.438C240.527 204.438 241.348 203.91 241.348 202.934C241.348 201.957 240.527 201.41 239.336 201.391ZM248.809 210.492V212.484H236.641V207.289H239.121V210.492H248.809ZM272.207 203.422V205.375H255.957V203.422H262.871V201.898H257.93V195.805H270.254V197.738H260.41V199.945H270.352V201.898H265.312V203.422H272.207ZM264.043 206.273C267.891 206.273 270.215 207.445 270.234 209.555C270.215 211.625 267.891 212.816 264.043 212.816C260.156 212.816 257.812 211.625 257.812 209.555C257.812 207.445 260.156 206.273 264.043 206.273ZM264.043 208.168C261.582 208.168 260.332 208.637 260.352 209.555C260.332 210.492 261.582 210.922 264.043 210.922C266.445 210.922 267.715 210.492 267.734 209.555C267.715 208.637 266.445 208.168 264.043 208.168ZM288.516 195.023V206.176H286.152V201.449H284.727V205.59H282.402V195.355H284.727V199.418H286.152V195.023H288.516ZM281.875 196.859V198.793H273.145V196.859H276.289V195.18H278.77V196.859H281.875ZM277.539 199.379C279.805 199.379 281.406 200.629 281.426 202.484C281.406 204.32 279.805 205.57 277.539 205.57C275.312 205.57 273.691 204.32 273.691 202.484C273.691 200.629 275.312 199.379 277.539 199.379ZM277.539 201.176C276.562 201.176 275.918 201.664 275.918 202.484C275.918 203.305 276.562 203.812 277.539 203.793C278.516 203.812 279.16 203.305 279.18 202.484C279.16 201.664 278.516 201.176 277.539 201.176ZM282.441 206.332C286.289 206.332 288.594 207.504 288.613 209.574C288.594 211.625 286.289 212.797 282.441 212.797C278.613 212.797 276.289 211.625 276.289 209.574C276.289 207.504 278.613 206.332 282.441 206.332ZM282.441 208.207C280.039 208.207 278.77 208.637 278.789 209.574C278.77 210.473 280.039 210.922 282.441 210.922C284.863 210.922 286.094 210.473 286.094 209.574C286.094 208.637 284.863 208.207 282.441 208.207Z" fill="#1A1A1A"/>
<path d="M60.6094 239.844C60.6094 241.625 61.8438 243.328 63.9844 244.047L63.2344 245.203C61.6484 244.656 60.4844 243.562 59.875 242.188C59.2656 243.703 58.0547 244.891 56.4062 245.469L55.6094 244.312C57.7969 243.562 59.1094 241.766 59.125 239.828V239.453H56.0469V238.25H63.625V239.453H60.6094V239.844ZM66.7188 237.328V240.922H68.75V242.172H66.7188V245.766H65.2344V237.328H66.7188ZM66.7188 246.453V251.328H65.2344V247.656H57.4688V246.453H66.7188ZM82.3125 244.641V245.828H69.5469V244.641H82.3125ZM80.875 249.828V251.031H71.1562V246.969H72.6562V249.828H80.875ZM75.9219 237.797C78.9531 237.781 80.9219 238.844 80.9219 240.594C80.9219 242.359 78.9531 243.422 75.9219 243.438C72.875 243.422 70.9219 242.359 70.9219 240.594C70.9219 238.844 72.875 237.781 75.9219 237.797ZM75.9219 238.984C73.7812 238.984 72.4375 239.594 72.4531 240.594C72.4375 241.625 73.7812 242.219 75.9219 242.219C78.0625 242.219 79.3906 241.625 79.3906 240.594C79.3906 239.594 78.0625 238.984 75.9219 238.984ZM90.4219 237.547V238.766H96.9062V237.547H98.3906V242.188H88.9531V237.547H90.4219ZM90.4219 241.062H96.9062V239.859H90.4219V241.062ZM100.047 243.203V244.406H94.3906V245.609H98.4375V248.875H90.2812V250.047H98.8281V251.188H88.8281V247.812H96.9688V246.719H88.8125V245.609H92.9062V244.406H87.2812V243.203H100.047ZM112.781 237.328V247.719H111.297V243.859H109.109V242.609H111.297V241.141H109.109V239.922H111.297V237.328H112.781ZM108.953 238.422V239.625H107.609V244.312C108.203 244.266 108.773 244.219 109.328 244.156L109.391 245.25C106.703 245.672 103.562 245.719 101.312 245.734L101.125 244.484L102.828 244.469V239.625H101.516V238.422H108.953ZM113.141 249.828V251.031H103.656V246.875H105.156V249.828H113.141ZM104.266 244.453C104.898 244.438 105.539 244.422 106.188 244.391V239.625H104.266V244.453ZM125.938 237.328V240.953H127.969V242.219H125.938V245.766H124.453V237.328H125.938ZM125.938 246.5V251.156H117V246.5H125.938ZM118.453 247.672V249.953H124.469V247.672H118.453ZM123.297 238.75V239.938H114.953V238.75H118.391V237.219H119.875V238.75H123.297ZM119.125 240.547C121.141 240.547 122.516 241.547 122.516 243.047C122.516 244.562 121.141 245.547 119.125 245.562C117.078 245.547 115.719 244.562 115.719 243.047C115.719 241.547 117.078 240.547 119.125 240.547ZM119.125 241.688C117.938 241.672 117.141 242.203 117.156 243.047C117.141 243.922 117.938 244.438 119.125 244.438C120.312 244.438 121.109 243.922 121.125 243.047C121.109 242.203 120.312 241.672 119.125 241.688ZM140.812 237.328V251.328H139.391V237.328H140.812ZM137.969 237.594V250.641H136.547V243.891H134.969C134.844 246.625 133.672 248.328 131.938 248.312C130.109 248.328 128.922 246.406 128.922 243.375C128.922 240.344 130.109 238.438 131.938 238.453C133.641 238.438 134.797 240.055 134.969 242.688H136.547V237.594H137.969ZM131.938 239.844C130.922 239.844 130.297 241.141 130.297 243.375C130.297 245.609 130.922 246.906 131.938 246.906C132.969 246.906 133.609 245.609 133.609 243.375C133.609 241.141 132.969 239.844 131.938 239.844ZM153.938 243.781V244.969H149.703V248.391H155.406V249.609H142.594V248.391H148.234V244.969H144.188V238.406H153.812V239.609H145.672V243.781H153.938ZM172.109 237.328V251.328H170.609V237.328H172.109ZM160.234 243.922C162.062 243.922 164.148 243.906 166.234 243.797C166.578 241.93 166.641 240.539 166.672 239.578H161.453V238.375H168.141V239.016C168.125 239.938 168.125 241.508 167.75 243.703C168.398 243.664 169.047 243.609 169.672 243.547L169.766 244.656C168.383 244.844 166.953 244.961 165.547 245.031V250.516H164.062V245.094C162.789 245.141 161.562 245.156 160.438 245.156L160.234 243.922ZM189.703 237.328V251.328H188.203V237.328H189.703ZM185.531 238.828C185.531 242.922 183.781 246.484 178.984 248.781L178.203 247.578C181.93 245.805 183.742 243.281 184.031 240.016H178.875V238.828H185.531ZM198.266 237.484C201.422 237.484 203.266 238.344 203.266 239.891C203.266 241.453 201.422 242.312 198.266 242.312C195.109 242.312 193.266 241.453 193.266 239.891C193.266 238.344 195.109 237.484 198.266 237.484ZM198.266 238.594C196.031 238.609 194.797 239.062 194.812 239.891C194.797 240.766 196.031 241.203 198.266 241.203C200.5 241.203 201.734 240.766 201.734 239.891C201.734 239.062 200.5 238.609 198.266 238.594ZM204.656 243.141V244.312H199V245.516H203.047V248.797H194.891V250.047H203.438V251.188H193.438V247.719H201.578V246.625H193.422V245.516H197.516V244.312H191.891V243.141H204.656ZM217.312 237.328V251.359H215.828V237.328H217.312ZM209.828 238.375C211.906 238.375 213.438 240.281 213.438 243.281C213.438 246.297 211.906 248.203 209.828 248.203C207.719 248.203 206.203 246.297 206.203 243.281C206.203 240.281 207.719 238.375 209.828 238.375ZM209.828 239.703C208.531 239.703 207.641 241.078 207.641 243.281C207.641 245.5 208.531 246.875 209.828 246.875C211.109 246.875 212 245.5 212 243.281C212 241.078 211.109 239.703 209.828 239.703ZM226.594 238.672V240.625H229.75V237.328H231.219V251.359H229.75V245.672H226.594V247.828H220.094V238.672H226.594ZM221.562 239.828V246.641H225.141V239.828H221.562ZM226.594 244.469H229.75V241.844H226.594V244.469ZM235.891 248.922L234.641 253.234H233.312L234.141 248.922H235.891ZM252.391 237.328V242.125H254.391V243.359H252.391V248.266H250.906V237.328H252.391ZM252.891 249.828V251.031H243.344V247.531H244.828V249.828H252.891ZM241.281 245.547C242.359 245.547 243.617 245.539 244.938 245.484V244.516C243.344 244.344 242.328 243.57 242.344 242.422C242.328 241.062 243.656 240.25 245.672 240.266C247.672 240.25 249 241.062 249 242.422C249 243.562 248 244.336 246.422 244.516V245.422C247.672 245.352 248.938 245.242 250.109 245.062L250.234 246.109C247.25 246.672 243.875 246.719 241.438 246.734L241.281 245.547ZM249.719 238.625V239.719H241.641V238.625H244.938V237.281H246.422V238.625H249.719ZM245.672 241.281C244.469 241.281 243.75 241.703 243.75 242.422C243.75 243.109 244.469 243.531 245.672 243.531C246.859 243.531 247.578 243.109 247.578 242.422C247.578 241.703 246.859 241.281 245.672 241.281ZM260.078 241.453C260.078 243.672 261.531 246.141 263.656 247.141L262.812 248.297C261.242 247.539 260 245.961 259.375 244.125C258.727 246.133 257.414 247.859 255.812 248.656L254.938 247.484C257.062 246.469 258.609 243.828 258.609 241.453V239.969H255.453V238.734H263.125V239.969H260.078V241.453ZM266.109 237.328V242.875H268.359V244.125H266.109V251.328H264.625V237.328H266.109ZM281.828 244.656V245.844H276.266V248.422H274.797V245.844H269.016V244.656H281.828ZM280.406 249.828V251.031H270.609V247.203H272.078V249.828H280.406ZM272.172 237.766V239.469H278.656V237.766H280.141V243.422H270.703V237.766H272.172ZM272.172 242.234H278.656V240.578H272.172V242.234ZM290.656 238.828V239.688C290.656 240.859 290.656 242.672 290.25 245.172L288.781 245.062C289.133 242.82 289.172 241.203 289.188 240.031H283.5V238.828H290.656ZM287.062 242.828V247.016C288.555 246.969 290.07 246.867 291.469 246.688L291.547 247.797C288.625 248.266 285.375 248.328 282.891 248.312L282.719 247.109C283.594 247.102 284.57 247.094 285.594 247.062V242.828H287.062ZM293.766 237.328V243.109H295.906V244.375H293.766V251.328H292.266V237.328H293.766ZM115.969 274.359V275.594H103.156V274.359H108.797V271.484H104.625V264.281H106.109V266.688H112.984V264.281H114.453V271.484H110.266V274.359H115.969ZM106.109 270.281H112.984V267.891H106.109V270.281ZM129.109 265.297V266.5H117.594V265.297H122.625V263.531H124.094V265.297H129.109ZM129.797 274.547V275.75H116.984V274.547H122.625V272.688C120.172 272.539 118.688 271.57 118.688 270.016C118.688 268.328 120.469 267.344 123.359 267.344C126.219 267.344 128.016 268.328 128.016 270.016C128.016 271.57 126.523 272.539 124.094 272.688V274.547H129.797ZM123.359 268.516C121.359 268.516 120.188 269.047 120.203 270.016C120.188 270.984 121.359 271.516 123.359 271.531C125.328 271.516 126.5 270.984 126.5 270.016C126.5 269.047 125.328 268.516 123.359 268.516ZM135.688 267.453C135.688 269.672 137.141 272.141 139.266 273.141L138.422 274.297C136.852 273.539 135.609 271.961 134.984 270.125C134.336 272.133 133.023 273.859 131.422 274.656L130.547 273.484C132.672 272.469 134.219 269.828 134.219 267.453V265.969H131.062V264.734H138.734V265.969H135.688V267.453ZM141.719 263.328V268.875H143.969V270.125H141.719V277.328H140.234V263.328H141.719ZM155.547 263.328V268.906H157.719V270.141H155.547V277.312H154.062V263.328H155.547ZM151.891 264.797C151.875 268.844 150.094 272.453 145.484 274.734L144.656 273.578C148.164 271.828 150.07 269.297 150.375 266.031H145.359V264.797H151.891ZM173.969 263.328V277.328H172.484V263.328H173.969ZM167.641 267.828C167.641 270.062 169.125 272.344 171.297 273.266L170.484 274.406C168.875 273.703 167.586 272.25 166.938 270.484C166.305 272.352 165.039 273.906 163.406 274.641L162.578 273.5C164.75 272.531 166.188 270.172 166.188 267.828V266.906H163V265.719H166.172V263.609H167.641V265.719H170.781V266.906H167.641V267.828ZM189.016 274.406V275.656H176.203V274.406H179.703V271.938H177.766V267.484H185.984V265.531H177.734V264.312H187.453V268.688H179.234V270.719H187.781V271.938H185.656V274.406H189.016ZM181.141 274.406H184.203V271.938H181.141V274.406ZM201.734 264.828V265.688C201.734 266.859 201.734 268.672 201.328 271.172L199.859 271.062C200.211 268.82 200.25 267.203 200.266 266.031H194.578V264.828H201.734ZM198.141 268.828V273.016C199.633 272.969 201.148 272.867 202.547 272.688L202.625 273.797C199.703 274.266 196.453 274.328 193.969 274.312L193.797 273.109C194.672 273.102 195.648 273.094 196.672 273.062V268.828H198.141ZM204.844 263.328V269.109H206.984V270.375H204.844V277.328H203.344V263.328H204.844ZM219.438 263.328V271.656H217.953V268.109H215.344V266.891H217.953V263.328H219.438ZM214.75 272.047C217.688 272.047 219.484 273.016 219.484 274.688C219.484 276.359 217.688 277.312 214.75 277.328C211.812 277.312 210 276.359 210.016 274.688C210 273.016 211.812 272.047 214.75 272.047ZM214.75 273.203C212.703 273.203 211.484 273.734 211.484 274.688C211.484 275.625 212.703 276.172 214.75 276.156C216.797 276.172 218.016 275.625 218.016 274.688C218.016 273.734 216.797 273.203 214.75 273.203ZM212.781 265.797C212.781 267.578 214.047 269.297 216.156 270.016L215.391 271.188C213.82 270.641 212.664 269.523 212.062 268.141C211.445 269.711 210.219 270.969 208.547 271.578L207.766 270.391C209.938 269.641 211.266 267.75 211.266 265.812V265.5H208.234V264.297H215.781V265.5H212.781V265.797ZM233.641 263.328V277.328H232.219V263.328H233.641ZM230.797 263.594V276.641H229.375V269.891H227.797C227.672 272.625 226.5 274.328 224.766 274.312C222.938 274.328 221.75 272.406 221.75 269.375C221.75 266.344 222.938 264.438 224.766 264.453C226.469 264.438 227.625 266.055 227.797 268.688H229.375V263.594H230.797ZM224.766 265.844C223.75 265.844 223.125 267.141 223.125 269.375C223.125 271.609 223.75 272.906 224.766 272.906C225.797 272.906 226.438 271.609 226.438 269.375C226.438 267.141 225.797 265.844 224.766 265.844ZM240.469 266.891C240.469 269.453 241.906 272 244.047 272.969L243.141 274.156C241.547 273.359 240.352 271.773 239.734 269.859C239.117 271.875 237.891 273.578 236.281 274.422L235.344 273.219C237.516 272.188 238.969 269.484 238.969 266.891V264.5H240.469V266.891ZM247.094 263.328V277.359H245.625V269.188H242.5V267.984H245.625V263.328H247.094Z" fill="#555555"/>
<path d="M213.562 267.219V271.297H215.484V272.953H213.562V277.578H211.562V267.219H213.562ZM214.078 279.594V281.188H204.344V276.484H206.328V279.594H214.078ZM206.281 268.141C208.453 268.141 210.156 269.641 210.156 271.75C210.156 273.828 208.453 275.359 206.281 275.359C204.094 275.359 202.375 273.828 202.375 271.75C202.375 269.641 204.094 268.141 206.281 268.141ZM206.281 269.875C205.203 269.859 204.328 270.562 204.344 271.75C204.328 272.906 205.203 273.625 206.281 273.625C207.375 273.625 208.203 272.906 208.219 271.75C208.203 270.562 207.375 269.859 206.281 269.875ZM228.016 267.234V275.25H226.016V267.234H228.016ZM228.016 275.906V281.281H218.484V275.906H228.016ZM220.453 277.484V279.688H226.062V277.484H220.453ZM221.562 269.125C221.547 270.859 222.594 272.5 224.891 273.219L223.922 274.734C222.297 274.258 221.172 273.273 220.531 272C219.883 273.383 218.727 274.477 217.031 275L216.062 273.438C218.438 272.719 219.484 270.906 219.484 269.125V267.75H221.562V269.125Z" fill="#1A1A1A"/>
<path d="M133.859 263.281V266.562H135.906V267.781H133.859V270.984H132.375V263.281H133.859ZM133.859 271.641V274.891H126.297V276.062H134.344V277.188H124.844V273.844H132.391V272.75H124.812V271.641H133.859ZM131.219 264.516V265.688H122.875V264.516H126.312V263.203H127.797V264.516H131.219ZM127.047 266.219C129.094 266.219 130.438 267.094 130.438 268.516C130.438 269.938 129.094 270.797 127.047 270.797C124.984 270.797 123.641 269.938 123.641 268.516C123.641 267.094 124.984 266.219 127.047 266.219ZM127.047 267.281C125.844 267.281 125.062 267.766 125.078 268.516C125.062 269.266 125.844 269.719 127.047 269.719C128.25 269.719 129.031 269.266 129.047 268.516C129.031 267.766 128.25 267.281 127.047 267.281ZM147.766 264.562C147.75 266.422 150.031 268.172 152.781 268.531L152.203 269.75C149.914 269.383 147.898 268.195 147 266.547C146.078 268.203 144.07 269.383 141.797 269.75L141.203 268.531C143.953 268.172 146.203 266.438 146.219 264.562V263.797H147.766V264.562ZM153.359 271.125V272.344H147.672V277.328H146.219V272.344H140.594V271.125H153.359ZM163.188 272.578C163.188 273.781 163.781 275.055 165.047 275.812C166.336 274.992 166.969 273.648 166.969 272.578V271.906H168.422V272.578C168.422 274.031 169.375 275.438 171.203 276.031L170.469 277.125C169.086 276.648 168.148 275.719 167.656 274.562C167.211 275.695 166.375 276.719 165.094 277.25C163.75 276.742 162.898 275.75 162.469 274.609C161.961 275.711 161.039 276.641 159.719 277.125L158.969 276.031C160.766 275.391 161.734 273.938 161.75 272.578V271.906H163.188V272.578ZM169.938 263.344V271.312H168.453V263.344H169.938ZM162.344 264.109C164.484 264.109 166.062 265.469 166.062 267.422C166.062 269.359 164.484 270.703 162.344 270.703C160.203 270.703 158.609 269.359 158.609 267.422C158.609 265.469 160.203 264.109 162.344 264.109ZM162.344 265.375C161.016 265.359 160.062 266.188 160.062 267.422C160.062 268.641 161.016 269.469 162.344 269.469C163.656 269.469 164.609 268.641 164.609 267.422C164.609 266.188 163.656 265.359 162.344 265.375ZM183.5 269.781V270.969H179.266V274.391H184.969V275.609H172.156V274.391H177.797V270.969H173.75V264.406H183.375V265.609H175.234V269.781H183.5ZM198.781 270.969V272.172H185.969V270.969H191.641V269.641H187.609V266.078H195.688V264.828H187.578V263.656H197.172V267.172H189.078V268.484H197.453V269.641H193.109V270.969H198.781ZM197.25 273.156V277.219H195.75V274.344H187.406V273.156H197.25ZM215.016 266.516V267.719H205.406V263.531H206.859V266.516H215.016ZM216.516 268.953V270.141H203.703V268.953H216.516ZM214.906 271.266V274.688H206.781V275.984H215.391V277.156H205.297V273.594H213.438V272.422H205.266V271.266H214.906ZM234.266 274.328V275.547H221.453V274.328H227.062V271H228.531V274.328H234.266ZM228.562 265.281C228.562 267.5 231 269.578 233.703 270.031L233.062 271.25C230.797 270.797 228.711 269.398 227.781 267.469C226.859 269.391 224.797 270.812 222.547 271.25L221.891 270.031C224.578 269.578 227 267.5 227 265.281V264.219H228.562V265.281ZM248.047 270.688V271.859H235.25V270.688H240.906V269.469H236.922V263.703H246.484V264.875H238.422V266.016H246.125V267.125H238.422V268.312H246.578V269.469H242.391V270.688H248.047ZM241.656 272.781C244.734 272.766 246.484 273.578 246.484 275.047C246.484 276.531 244.734 277.312 241.656 277.297C238.547 277.312 236.797 276.531 236.797 275.047C236.797 273.578 238.547 272.766 241.656 272.781ZM241.656 273.891C239.453 273.891 238.266 274.297 238.281 275.047C238.266 275.797 239.453 276.188 241.656 276.172C243.828 276.188 245 275.797 245 275.047C245 274.297 243.828 273.891 241.656 273.891ZM260.016 263.328V269H262.266V270.234H260.016V277.328H258.547V263.328H260.016ZM257.328 265.516V266.734H249.031V265.516H252.484V263.516H253.969V265.516H257.328ZM253.234 267.766C255.234 267.766 256.703 269.109 256.719 271.016C256.703 272.938 255.234 274.266 253.234 274.281C251.219 274.266 249.75 272.938 249.75 271.016C249.75 269.109 251.219 267.766 253.234 267.766ZM253.234 268.984C252.047 268.984 251.156 269.812 251.172 271.016C251.156 272.234 252.047 273.047 253.234 273.031C254.422 273.047 255.297 272.234 255.297 271.016C255.297 269.812 254.422 268.984 253.234 268.984ZM269.141 264.344C269.141 265.383 268.969 266.336 268.641 267.203H270.625V263.625H272.031V271.172H270.625V268.406H268.016C267.125 269.789 265.711 270.891 263.781 271.703L263.031 270.594C265.805 269.492 267.336 267.773 267.609 265.547H263.672V264.344H269.141ZM274.875 263.344V271.391H273.469V263.344H274.875ZM267.922 272.688C267.906 273.898 268.508 275.164 269.781 275.938C271.055 275.094 271.672 273.734 271.688 272.688V271.844H273.125V272.688C273.125 274.141 274.094 275.578 275.906 276.172L275.188 277.266C273.797 276.773 272.859 275.836 272.375 274.672C271.93 275.797 271.102 276.836 269.797 277.375C268.461 276.867 267.625 275.859 267.203 274.703C266.695 275.828 265.766 276.766 264.453 277.266L263.703 276.172C265.5 275.531 266.5 274.047 266.5 272.688V271.844H267.922V272.688ZM279.812 271.719V273.203H286.391V271.719H287.875V277.156H278.344V271.719H279.812ZM279.812 275.969H286.391V274.359H279.812V275.969ZM289.531 269.609V270.844H276.766V269.609H289.531ZM283.906 264.078C283.906 265.688 286.141 267.25 288.828 267.578L288.297 268.75C286.023 268.43 284.047 267.359 283.156 265.875C282.242 267.367 280.258 268.43 278.016 268.75L277.453 267.578C280.172 267.234 282.391 265.734 282.391 264.078V263.484H283.906V264.078ZM302.219 263.328V277.328H300.734V263.328H302.219ZM292.922 264.688V272.484C294.961 272.469 297.109 272.305 299.359 271.844L299.562 273.094C297.078 273.594 294.828 273.766 292.625 273.766H291.453V264.688H292.922ZM215.523 289.328V294.75H217.773V295.969H215.523V303.359H214.039V289.328H215.523ZM211.758 290.672V291.875H206.695V298.641C209.047 298.633 210.812 298.531 212.805 298.172L212.992 299.422C210.805 299.812 208.945 299.891 206.336 299.875H205.211V290.672H211.758ZM220.039 302.109C219.43 302.109 218.914 301.609 218.93 301C218.914 300.391 219.43 299.891 220.039 299.891C220.633 299.891 221.148 300.391 221.148 301C221.148 301.609 220.633 302.109 220.039 302.109Z" fill="#555555"/>
<g filter="url(#filter1_dd_86_748)">
<path d="M139 83C139 60.9086 156.909 43 179 43C201.091 43 219 60.9086 219 83C219 105.091 201.091 123 179 123C156.909 123 139 105.091 139 83Z" fill="white" shape-rendering="crispEdges"/>
<path d="M172.167 96.3335C175.348 97.9653 179.007 98.4072 182.485 97.5798C185.963 96.7523 189.031 94.7099 191.136 91.8205C193.242 88.931 194.246 85.3847 193.968 81.8204C193.69 78.2562 192.148 74.9084 189.62 72.3805C187.092 69.8525 183.744 68.3106 180.18 68.0325C176.616 67.7545 173.069 68.7586 170.18 70.8639C167.29 72.9692 165.248 76.0373 164.42 79.5153C163.593 82.9933 164.035 86.6525 165.667 89.8335L162.333 99.6668L172.167 96.3335Z" stroke="#0F52BA" stroke-width="3.33333" stroke-linecap="round" stroke-linejoin="round"/>
</g>
</g>
<defs>
<filter id="filter0_dd_86_748" x="0" y="0" width="358" height="355" filterUnits="userSpaceOnUse" color-interpolation-filters="sRGB">
<feFlood flood-opacity="0" result="BackgroundImageFix"/>
<feColorMatrix in="SourceAlpha" type="matrix" values="0 0 0 0 0 0 0 0 0 0 0 0 0 0 0 0 0 0 127 0" result="hardAlpha"/>
<feMorphology radius="1" operator="erode" in="SourceAlpha" result="effect1_dropShadow_86_748"/>
<feOffset dy="1"/>
<feGaussianBlur stdDeviation="1"/>
<feComposite in2="hardAlpha" operator="out"/>
<feColorMatrix type="matrix" values="0 0 0 0 0 0 0 0 0 0 0 0 0 0 0 0 0 0 0.1 0"/>
<feBlend mode="normal" in2="BackgroundImageFix" result="effect1_dropShadow_86_748"/>
<feColorMatrix in="SourceAlpha" type="matrix" values="0 0 0 0 0 0 0 0 0 0 0 0 0 0 0 0 0 0 127 0" result="hardAlpha"/>
<feOffset dy="1"/>
<feGaussianBlur stdDeviation="1.5"/>
<feComposite in2="hardAlpha" operator="out"/>
<feColorMatrix type="matrix" values="0 0 0 0 0 0 0 0 0 0 0 0 0 0 0 0 0 0 0.1 0"/>
<feBlend mode="normal" in2="effect1_dropShadow_86_748" result="effect2_dropShadow_86_748"/>
<feBlend mode="normal" in="SourceGraphic" in2="effect2_dropShadow_86_748" result="shape"/>
</filter>
<filter id="filter1_dd_86_748" x="134" y="42" width="90" height="90" filterUnits="userSpaceOnUse" color-interpolation-filters="sRGB">
<feFlood flood-opacity="0" result="BackgroundImageFix"/>
<feColorMatrix in="SourceAlpha" type="matrix" values="0 0 0 0 0 0 0 0 0 0 0 0 0 0 0 0 0 0 127 0" result="hardAlpha"/>
<feMorphology radius="2" operator="erode" in="SourceAlpha" result="effect1_dropShadow_86_748"/>
<feOffset dy="2"/>
<feGaussianBlur stdDeviation="2"/>
<feComposite in2="hardAlpha" operator="out"/>
<feColorMatrix type="matrix" values="0 0 0 0 0 0 0 0 0 0 0 0 0 0 0 0 0 0 0.1 0"/>
<feBlend mode="normal" in2="BackgroundImageFix" result="effect1_dropShadow_86_748"/>
<feColorMatrix in="SourceAlpha" type="matrix" values="0 0 0 0 0 0 0 0 0 0 0 0 0 0 0 0 0 0 127 0" result="hardAlpha"/>
<feMorphology radius="1" operator="erode" in="SourceAlpha" result="effect2_dropShadow_86_748"/>
<feOffset dy="4"/>
<feGaussianBlur stdDeviation="3"/>
<feComposite in2="hardAlpha" operator="out"/>
<feColorMatrix type="matrix" values="0 0 0 0 0 0 0 0 0 0 0 0 0 0 0 0 0 0 0.1 0"/>
<feBlend mode="normal" in2="effect1_dropShadow_86_748" result="effect2_dropShadow_86_748"/>
<feBlend mode="normal" in="SourceGraphic" in2="effect2_dropShadow_86_748" result="shape"/>
</filter>
</defs>
</svg>
