<svg width="40" height="40" viewBox="0 0 40 40" fill="none" xmlns="http://www.w3.org/2000/svg">
<path d="M11.6665 16.6667V36.6667" stroke="#E6BE8A" stroke-width="3.33333" stroke-linecap="round" stroke-linejoin="round"/>
<path d="M25.0002 9.79992L23.3335 16.6666H33.0502C33.5676 16.6666 34.078 16.7871 34.5409 17.0185C35.0037 17.2499 35.4063 17.5859 35.7168 17.9999C36.0273 18.4139 36.2372 18.8945 36.3297 19.4036C36.4223 19.9128 36.3951 20.4365 36.2502 20.9333L32.3668 34.2666C32.1649 34.959 31.7438 35.5672 31.1668 35.9999C30.5898 36.4327 29.8881 36.6666 29.1668 36.6666H6.66683C5.78277 36.6666 4.93493 36.3154 4.30981 35.6903C3.68469 35.0652 3.3335 34.2173 3.3335 33.3333V19.9999C3.3335 19.1159 3.68469 18.268 4.30981 17.6429C4.93493 17.0178 5.78277 16.6666 6.66683 16.6666H11.2668C11.887 16.6663 12.4947 16.4929 13.0218 16.1661C13.5488 15.8393 13.9742 15.3719 14.2502 14.8166L20.0002 3.33325C20.7861 3.34298 21.5597 3.5302 22.2632 3.88091C22.9666 4.23162 23.5817 4.73676 24.0625 5.35859C24.5433 5.98042 24.8774 6.70285 25.0397 7.47192C25.2021 8.24099 25.1886 9.03681 25.0002 9.79992Z" stroke="#E6BE8A" stroke-width="3.33333" stroke-linecap="round" stroke-linejoin="round"/>
</svg>
