<svg width="106" height="16" viewBox="0 0 106 16" fill="none" xmlns="http://www.w3.org/2000/svg">
<path d="M7.68323 1.53009C7.71245 1.47107 7.75758 1.42138 7.81353 1.38664C7.86949 1.3519 7.93404 1.3335 7.9999 1.3335C8.06576 1.3335 8.13031 1.3519 8.18626 1.38664C8.24222 1.42138 8.28735 1.47107 8.31656 1.53009L9.85656 4.64943C9.95802 4.85474 10.1078 5.03236 10.293 5.16706C10.4782 5.30176 10.6933 5.3895 10.9199 5.42276L14.3639 5.92676C14.4292 5.93621 14.4905 5.96374 14.5409 6.00622C14.5913 6.04871 14.6288 6.10446 14.6492 6.16716C14.6696 6.22987 14.6721 6.29703 14.6563 6.36105C14.6405 6.42507 14.6071 6.48339 14.5599 6.52943L12.0692 8.95476C11.905 9.11483 11.7821 9.31241 11.7111 9.53051C11.6402 9.74861 11.6233 9.98069 11.6619 10.2068L12.2499 13.6334C12.2614 13.6987 12.2544 13.7658 12.2296 13.8272C12.2048 13.8886 12.1632 13.9418 12.1096 13.9808C12.056 14.0197 11.9925 14.0428 11.9265 14.0474C11.8604 14.052 11.7944 14.0379 11.7359 14.0068L8.65723 12.3881C8.45438 12.2816 8.22868 12.2259 7.99956 12.2259C7.77044 12.2259 7.54475 12.2816 7.3419 12.3881L4.2639 14.0068C4.20545 14.0377 4.1395 14.0516 4.07353 14.0469C4.00757 14.0422 3.94424 14.0191 3.89076 13.9802C3.83728 13.9413 3.79579 13.8882 3.771 13.8269C3.74622 13.7656 3.73914 13.6986 3.75056 13.6334L4.3379 10.2074C4.37669 9.98125 4.35989 9.74902 4.28892 9.53079C4.21796 9.31256 4.09497 9.11486 3.93056 8.95476L1.4399 6.53009C1.39229 6.48411 1.35856 6.42569 1.34254 6.36147C1.32652 6.29726 1.32886 6.22984 1.34928 6.16689C1.36971 6.10393 1.40741 6.04799 1.45808 6.00541C1.50876 5.96284 1.57037 5.93536 1.6359 5.92609L5.07923 5.42276C5.30607 5.38976 5.52149 5.30213 5.70695 5.16742C5.89242 5.0327 6.04237 4.85494 6.1439 4.64943L7.68323 1.53009Z" fill="#E6BE8A" stroke="#E6BE8A" stroke-width="1.33333" stroke-linecap="round" stroke-linejoin="round"/>
<path d="M27.6832 1.53009C27.7124 1.47107 27.7576 1.42138 27.8135 1.38664C27.8695 1.3519 27.934 1.3335 27.9999 1.3335C28.0658 1.3335 28.1303 1.3519 28.1863 1.38664C28.2422 1.42138 28.2873 1.47107 28.3166 1.53009L29.8566 4.64943C29.958 4.85474 30.1078 5.03236 30.293 5.16706C30.4782 5.30176 30.6933 5.3895 30.9199 5.42276L34.3639 5.92676C34.4292 5.93621 34.4905 5.96374 34.5409 6.00622C34.5913 6.04871 34.6288 6.10446 34.6492 6.16716C34.6696 6.22987 34.6721 6.29703 34.6563 6.36105C34.6405 6.42507 34.6071 6.48339 34.5599 6.52943L32.0692 8.95476C31.905 9.11483 31.7821 9.31241 31.7111 9.53051C31.6402 9.74861 31.6233 9.98069 31.6619 10.2068L32.2499 13.6334C32.2614 13.6987 32.2544 13.7658 32.2296 13.8272C32.2048 13.8886 32.1632 13.9418 32.1096 13.9808C32.056 14.0197 31.9925 14.0428 31.9265 14.0474C31.8604 14.052 31.7944 14.0379 31.7359 14.0068L28.6572 12.3881C28.4544 12.2816 28.2287 12.2259 27.9996 12.2259C27.7704 12.2259 27.5448 12.2816 27.3419 12.3881L24.2639 14.0068C24.2055 14.0377 24.1395 14.0516 24.0735 14.0469C24.0076 14.0422 23.9442 14.0191 23.8908 13.9802C23.8373 13.9413 23.7958 13.8882 23.771 13.8269C23.7462 13.7656 23.7391 13.6986 23.7506 13.6334L24.3379 10.2074C24.3767 9.98125 24.3599 9.74902 24.2889 9.53079C24.218 9.31256 24.095 9.11486 23.9306 8.95476L21.4399 6.53009C21.3923 6.48411 21.3586 6.42569 21.3425 6.36147C21.3265 6.29726 21.3289 6.22984 21.3493 6.16689C21.3697 6.10393 21.4074 6.04799 21.4581 6.00541C21.5088 5.96284 21.5704 5.93536 21.6359 5.92609L25.0792 5.42276C25.3061 5.38976 25.5215 5.30213 25.707 5.16742C25.8924 5.0327 26.0424 4.85494 26.1439 4.64943L27.6832 1.53009Z" fill="#E6BE8A" stroke="#E6BE8A" stroke-width="1.33333" stroke-linecap="round" stroke-linejoin="round"/>
<path d="M47.6832 1.53009C47.7124 1.47107 47.7576 1.42138 47.8135 1.38664C47.8695 1.3519 47.934 1.3335 47.9999 1.3335C48.0658 1.3335 48.1303 1.3519 48.1863 1.38664C48.2422 1.42138 48.2873 1.47107 48.3166 1.53009L49.8566 4.64943C49.958 4.85474 50.1078 5.03236 50.293 5.16706C50.4782 5.30176 50.6933 5.3895 50.9199 5.42276L54.3639 5.92676C54.4292 5.93621 54.4905 5.96374 54.5409 6.00622C54.5913 6.04871 54.6288 6.10446 54.6492 6.16716C54.6696 6.22987 54.6721 6.29703 54.6563 6.36105C54.6405 6.42507 54.6071 6.48339 54.5599 6.52943L52.0692 8.95476C51.905 9.11483 51.7821 9.31241 51.7111 9.53051C51.6402 9.74861 51.6233 9.98069 51.6619 10.2068L52.2499 13.6334C52.2614 13.6987 52.2544 13.7658 52.2296 13.8272C52.2048 13.8886 52.1632 13.9418 52.1096 13.9808C52.056 14.0197 51.9925 14.0428 51.9265 14.0474C51.8604 14.052 51.7944 14.0379 51.7359 14.0068L48.6572 12.3881C48.4544 12.2816 48.2287 12.2259 47.9996 12.2259C47.7704 12.2259 47.5448 12.2816 47.3419 12.3881L44.2639 14.0068C44.2055 14.0377 44.1395 14.0516 44.0735 14.0469C44.0076 14.0422 43.9442 14.0191 43.8908 13.9802C43.8373 13.9413 43.7958 13.8882 43.771 13.8269C43.7462 13.7656 43.7391 13.6986 43.7506 13.6334L44.3379 10.2074C44.3767 9.98125 44.3599 9.74902 44.2889 9.53079C44.218 9.31256 44.095 9.11486 43.9306 8.95476L41.4399 6.53009C41.3923 6.48411 41.3586 6.42569 41.3425 6.36147C41.3265 6.29726 41.3289 6.22984 41.3493 6.16689C41.3697 6.10393 41.4074 6.04799 41.4581 6.00541C41.5088 5.96284 41.5704 5.93536 41.6359 5.92609L45.0792 5.42276C45.3061 5.38976 45.5215 5.30213 45.707 5.16742C45.8924 5.0327 46.0424 4.85494 46.1439 4.64943L47.6832 1.53009Z" fill="#E6BE8A" stroke="#E6BE8A" stroke-width="1.33333" stroke-linecap="round" stroke-linejoin="round"/>
<path d="M67.6832 1.53009C67.7124 1.47107 67.7576 1.42138 67.8135 1.38664C67.8695 1.3519 67.934 1.3335 67.9999 1.3335C68.0658 1.3335 68.1303 1.3519 68.1863 1.38664C68.2422 1.42138 68.2873 1.47107 68.3166 1.53009L69.8566 4.64943C69.958 4.85474 70.1078 5.03236 70.293 5.16706C70.4782 5.30176 70.6933 5.3895 70.9199 5.42276L74.3639 5.92676C74.4292 5.93621 74.4905 5.96374 74.5409 6.00622C74.5913 6.04871 74.6288 6.10446 74.6492 6.16716C74.6696 6.22987 74.6721 6.29703 74.6563 6.36105C74.6405 6.42507 74.6071 6.48339 74.5599 6.52943L72.0692 8.95476C71.905 9.11483 71.7821 9.31241 71.7111 9.53051C71.6402 9.74861 71.6233 9.98069 71.6619 10.2068L72.2499 13.6334C72.2614 13.6987 72.2544 13.7658 72.2296 13.8272C72.2048 13.8886 72.1632 13.9418 72.1096 13.9808C72.056 14.0197 71.9925 14.0428 71.9265 14.0474C71.8604 14.052 71.7944 14.0379 71.7359 14.0068L68.6572 12.3881C68.4544 12.2816 68.2287 12.2259 67.9996 12.2259C67.7704 12.2259 67.5448 12.2816 67.3419 12.3881L64.2639 14.0068C64.2055 14.0377 64.1395 14.0516 64.0735 14.0469C64.0076 14.0422 63.9442 14.0191 63.8908 13.9802C63.8373 13.9413 63.7958 13.8882 63.771 13.8269C63.7462 13.7656 63.7391 13.6986 63.7506 13.6334L64.3379 10.2074C64.3767 9.98125 64.3599 9.74902 64.2889 9.53079C64.218 9.31256 64.095 9.11486 63.9306 8.95476L61.4399 6.53009C61.3923 6.48411 61.3586 6.42569 61.3425 6.36147C61.3265 6.29726 61.3289 6.22984 61.3493 6.16689C61.3697 6.10393 61.4074 6.04799 61.4581 6.00541C61.5088 5.96284 61.5704 5.93536 61.6359 5.92609L65.0792 5.42276C65.3061 5.38976 65.5215 5.30213 65.707 5.16742C65.8924 5.0327 66.0424 4.85494 66.1439 4.64943L67.6832 1.53009Z" fill="#E6BE8A" stroke="#E6BE8A" stroke-width="1.33333" stroke-linecap="round" stroke-linejoin="round"/>
<path d="M87.6832 1.53009C87.7124 1.47107 87.7576 1.42138 87.8135 1.38664C87.8695 1.3519 87.934 1.3335 87.9999 1.3335C88.0658 1.3335 88.1303 1.3519 88.1863 1.38664C88.2422 1.42138 88.2873 1.47107 88.3166 1.53009L89.8566 4.64943C89.958 4.85474 90.1078 5.03236 90.293 5.16706C90.4782 5.30176 90.6933 5.3895 90.9199 5.42276L94.3639 5.92676C94.4292 5.93621 94.4905 5.96374 94.5409 6.00622C94.5913 6.04871 94.6288 6.10446 94.6492 6.16716C94.6696 6.22987 94.6721 6.29703 94.6563 6.36105C94.6405 6.42507 94.6071 6.48339 94.5599 6.52943L92.0692 8.95476C91.905 9.11483 91.7821 9.31241 91.7111 9.53051C91.6402 9.74861 91.6233 9.98069 91.6619 10.2068L92.2499 13.6334C92.2614 13.6987 92.2544 13.7658 92.2296 13.8272C92.2048 13.8886 92.1632 13.9418 92.1096 13.9808C92.056 14.0197 91.9925 14.0428 91.9265 14.0474C91.8604 14.052 91.7944 14.0379 91.7359 14.0068L88.6572 12.3881C88.4544 12.2816 88.2287 12.2259 87.9996 12.2259C87.7704 12.2259 87.5448 12.2816 87.3419 12.3881L84.2639 14.0068C84.2055 14.0377 84.1395 14.0516 84.0735 14.0469C84.0076 14.0422 83.9442 14.0191 83.8908 13.9802C83.8373 13.9413 83.7958 13.8882 83.771 13.8269C83.7462 13.7656 83.7391 13.6986 83.7506 13.6334L84.3379 10.2074C84.3767 9.98125 84.3599 9.74902 84.2889 9.53079C84.218 9.31256 84.095 9.11486 83.9306 8.95476L81.4399 6.53009C81.3923 6.48411 81.3586 6.42569 81.3425 6.36147C81.3265 6.29726 81.3289 6.22984 81.3493 6.16689C81.3697 6.10393 81.4074 6.04799 81.4581 6.00541C81.5088 5.96284 81.5704 5.93536 81.6359 5.92609L85.0792 5.42276C85.3061 5.38976 85.5215 5.30213 85.707 5.16742C85.8924 5.0327 86.0424 4.85494 86.1439 4.64943L87.6832 1.53009Z" fill="#E6BE8A" stroke="#E6BE8A" stroke-width="1.33333" stroke-linecap="round" stroke-linejoin="round"/>
</svg>
